<?xml version="1.0" standalone="no"?>
<!DOCTYPE svg PUBLIC "-//W3C//DTD SVG 1.1//EN" "http://www.w3.org/Graphics/SVG/1.1/DTD/svg11.dtd" >
<svg xmlns="http://www.w3.org/2000/svg">
<metadata></metadata>
<defs>
<font id="land_rover_ot4_lightlight" horiz-adv-x="1150" >
<font-face units-per-em="2048" ascent="1434" descent="-614" />
<missing-glyph horiz-adv-x="552" />
<glyph unicode="&#xfb01;" horiz-adv-x="1067" d="M49 899v80h164v203q0 52 9 92.5t22.5 67.5t37 46t46 29.5t57.5 16t61.5 7t67.5 1.5h39v-82h-35q-50 0 -79 -3t-59 -13.5t-45 -32t-24.5 -58.5t-9.5 -92v-182h252v-80h-252v-899h-88v899h-164zM786 1317q0 63 66 63t66 -63q0 -68 -66 -68t-66 68zM807 0v979h88v-979h-88z " />
<glyph unicode="&#xfb02;" horiz-adv-x="1091" d="M49 899v80h164v203q0 52 9 92.5t22.5 67.5t37 46t46 29.5t57.5 16t61.5 7t67.5 1.5h39v-82h-35q-50 0 -79 -3t-59 -13.5t-45 -32t-24.5 -58.5t-9.5 -92v-182h252v-80h-252v-899h-88v899h-164zM807 258v1169h88v-1155q0 -130 17.5 -166t91.5 -36h14v-78h-33q-50 0 -83 12 t-52 30.5t-28.5 56t-12 72t-2.5 95.5z" />
<glyph unicode="&#xfb03;" horiz-adv-x="1660" d="M49 899v80h164v203q0 52 9 92.5t22.5 67.5t37 46t46 29.5t57.5 16t61.5 7t67.5 1.5h39v-82h-35q-50 0 -79 -3t-59 -13.5t-45 -32t-24.5 -58.5t-9.5 -92v-182h506v203q0 52 9 92.5t22.5 67.5t37 46t46 29.5t57.5 16t61.5 7t67.5 1.5h39v-82h-35q-50 0 -79 -3t-59 -13.5 t-45 -32t-24.5 -58.5t-9.5 -92v-182h252v-80h-252v-899h-88v899h-506v-899h-88v899h-164zM1380 1317q0 63 66 63q65 0 65 -63q0 -68 -65 -68q-66 0 -66 68zM1401 0v979h88v-979h-88z" />
<glyph unicode="&#xfb04;" horiz-adv-x="1685" d="M49 899v80h164v203q0 52 9 92.5t22.5 67.5t37 46t46 29.5t57.5 16t61.5 7t67.5 1.5h39v-82h-35q-50 0 -79 -3t-59 -13.5t-45 -32t-24.5 -58.5t-9.5 -92v-182h506v203q0 52 9 92.5t22.5 67.5t37 46t46 29.5t57.5 16t61.5 7t67.5 1.5h39v-82h-35q-50 0 -79 -3t-59 -13.5 t-45 -32t-24.5 -58.5t-9.5 -92v-182h252v-80h-252v-899h-88v899h-506v-899h-88v899h-164zM1401 258v1169h88v-1155q0 -130 17 -166t91 -36h15v-78h-33q-50 0 -83 12t-52 30.5t-28.5 56t-12 72t-2.5 95.5z" />
<glyph horiz-adv-x="0" />
<glyph unicode="&#xd;" horiz-adv-x="2048" />
<glyph unicode=" "  horiz-adv-x="552" />
<glyph unicode="&#x09;" horiz-adv-x="552" />
<glyph unicode="&#xa0;" horiz-adv-x="552" />
<glyph unicode="!" horiz-adv-x="575" d="M217 55q0 70 70 70q71 0 71 -70q0 -69 -71 -69q-70 0 -70 69zM244 389v977h86v-977h-86z" />
<glyph unicode="&#x22;" horiz-adv-x="880" d="M246 942v424h84v-424h-84zM553 942v424h84v-424h-84z" />
<glyph unicode="#" d="M33 475v78h274l84 315h-252v78h275l127 475h82l-129 -475h288l129 475h82l-129 -475h254v-78h-274l-84 -315h252v-78h-273l-125 -475h-82l125 475h-288l-125 -475h-82l125 475h-254zM391 553h287l84 315h-289z" />
<glyph unicode="$" horiz-adv-x="1130" d="M141 274h86q0 -106 67 -148t226 -44v590q-77 5 -130 15.5t-101.5 33t-76.5 59.5t-44 95t-16 139q0 184 92 266.5t276 85.5v195h84v-195q193 -2 281 -63.5t88 -210.5h-86q0 107 -62.5 148.5t-220.5 43.5v-532q54 -5 86.5 -9t73 -11t63 -16t50 -23t42 -32.5t30 -44.5 t22.5 -59.5t11.5 -76t4.5 -95.5q0 -198 -91 -290t-292 -95v-203l-84 2v201q-194 2 -286.5 64t-92.5 210zM238 1004q0 -46 6.5 -82t17 -61t31 -43t39.5 -28.5t53 -17.5t61.5 -10t73.5 -6v528q-154 -2 -218 -63t-64 -217zM604 80q162 3 230.5 74.5t68.5 238.5q0 45 -3.5 79.5 t-12.5 61.5t-19.5 46t-30.5 33.5t-40 23t-53 15t-63 10t-77 6.5v-588z" />
<glyph unicode="%" horiz-adv-x="1687" d="M117 956q0 157 5 214.5t23 93.5q56 114 228 114q87 0 141.5 -27t83.5 -87q19 -37 25 -97t6 -211q0 -220 -21 -282q-48 -139 -235 -139q-188 0 -236 139q-12 35 -16 92t-4 190zM193 956q0 -133 4.5 -190t17.5 -86q30 -74 158 -74q127 0 157 74q23 56 23 276q0 202 -16 254 q-14 48 -52.5 70.5t-111.5 22.5t-111.5 -22.5t-52.5 -70.5q-16 -52 -16 -254zM455 0l688 1366h84l-692 -1366h-80zM1057 410q0 157 5 214t23 93q56 114 228 114q87 0 141.5 -27t83.5 -87q19 -37 25 -96.5t6 -210.5q0 -221 -21 -283q-48 -139 -235 -139q-188 0 -236 139 q-12 35 -16 92.5t-4 190.5zM1133 410q0 -133 4.5 -190.5t17.5 -86.5q30 -74 158 -74q127 0 157 74q23 56 23 277q0 202 -16 254q-14 48 -52.5 70t-111.5 22t-111.5 -22t-52.5 -70q-16 -52 -16 -254z" />
<glyph unicode="&#x26;" horiz-adv-x="1230" d="M147 373q0 155 50 239.5t159 110.5q-117 32 -156.5 102.5t-39.5 204.5q0 193 90 271.5t307 78.5q204 0 299.5 -67.5t99.5 -233.5h-86q-4 123 -74 170t-237 47q-183 0 -248 -56.5t-65 -213.5q0 -83 18.5 -135.5t61.5 -80t96 -37t137 -9.5h387v143h84v-143h125v-84h-123 v-231q0 -143 -18.5 -225.5t-75.5 -139.5q-100 -100 -350 -100q-118 0 -196 16.5t-135.5 59.5t-83.5 119.5t-26 193.5zM233 367q0 -78 14.5 -131t40 -86t72 -50.5t98 -23.5t130.5 -6q218 0 291 73q40 40 53.5 110.5t13.5 195.5v231h-387q-97 0 -155.5 -12.5t-99 -48 t-56 -95.5t-15.5 -157z" />
<glyph unicode="'" horiz-adv-x="575" d="M246 942v424h84v-424h-84z" />
<glyph unicode="(" horiz-adv-x="598" d="M82 627q0 588 63 800q36 122 122.5 173t248.5 51v-78q-88 0 -143.5 -17t-84 -46t-48.5 -78q-30 -78 -51 -301t-21 -502t21 -500t51 -299q20 -49 48.5 -78t84 -46t143.5 -17v-80q-162 0 -248.5 51t-122.5 172q-63 212 -63 795z" />
<glyph unicode=")" horiz-adv-x="598" d="M82 -311q88 0 143.5 17t84 46t48.5 78q30 78 51 299t21 500t-21 502t-51 301q-20 49 -48.5 78t-84 46t-143.5 17v78q162 0 248.5 -51t122.5 -173q63 -212 63 -800q0 -583 -63 -795q-36 -121 -122.5 -172t-248.5 -51v80z" />
<glyph unicode="*" horiz-adv-x="1071" d="M57 999l25 72l416 -129v424h77v-424l414 129l25 -72l-416 -131l254 -342l-61 -45l-256 340l-252 -340l-64 45l256 342z" />
<glyph unicode="+" d="M86 451v81h446v447h84v-447h447v-81h-447v-451h-84v451h-446z" />
<glyph unicode="," horiz-adv-x="425" d="M66 -258l38 37q46 42 57 79t11 111v154h86v-154q0 -93 -16.5 -142.5t-69.5 -94.5l-51 -45z" />
<glyph unicode="-" horiz-adv-x="983" d="M193 451v81h598v-81h-598z" />
<glyph unicode="." horiz-adv-x="425" d="M143 55q0 70 70 70q72 0 72 -70q0 -69 -72 -69q-70 0 -70 69z" />
<glyph unicode="/" horiz-adv-x="1011" d="M33 -172l860 1718h86l-860 -1718h-86z" />
<glyph unicode="0" horiz-adv-x="1148" d="M158 682q0 258 9 356.5t40 161.5q45 93 134.5 136.5t231.5 43.5t232 -43.5t135 -136.5q31 -64 41 -164t10 -354q0 -227 -6.5 -322t-26.5 -151q-38 -114 -133 -168.5t-252 -54.5q-156 0 -250.5 54t-132.5 169q-20 56 -26 150t-6 323zM246 682q0 -226 8 -324.5t31 -150.5 q31 -72 98.5 -105.5t189.5 -33.5t190 33.5t99 105.5q23 53 32 153t9 322q0 346 -29 442q-28 91 -98 132.5t-203 41.5t-202 -41.5t-97 -132.5q-28 -92 -28 -442z" />
<glyph unicode="1" horiz-adv-x="917" d="M113 1061l344 305h84v-1366h-88v1257l-283 -253z" />
<glyph unicode="2" horiz-adv-x="1126" d="M174 0v299q0 125 61 195.5t179 115.5q30 12 133.5 44t173 63t104.5 69q70 73 70 215q0 116 -33 181q-58 116 -284 116q-166 0 -242 -46t-76 -160h-86q0 157 98.5 222.5t300.5 65.5q206 0 306 -80q104 -82 104 -299q0 -185 -98 -280q-45 -43 -127.5 -78t-186 -67.5 t-135.5 -45.5q-108 -45 -141 -100.5t-33 -169.5v-178h717v-82h-805z" />
<glyph unicode="3" horiz-adv-x="1128" d="M147 276h86q0 -113 75 -160.5t241 -47.5q91 0 150.5 12.5t102.5 45.5t62 91.5t19 149.5q0 101 -18.5 159t-61.5 90q-39 29 -96 40.5t-154 11.5h-193v84h193q87 0 141.5 10t96.5 39.5t60.5 84t18.5 140.5q0 157 -66.5 214.5t-250.5 57.5q-168 0 -244 -46.5t-76 -159.5h-86 q0 157 100.5 222.5t305.5 65.5q221 0 313 -78.5t92 -271.5q0 -83 -13.5 -140.5t-56.5 -107t-118 -71.5q112 -28 156.5 -110t44.5 -228q0 -215 -101 -301t-321 -86q-95 0 -165.5 13.5t-125.5 46t-83 90t-28 140.5z" />
<glyph unicode="4" horiz-adv-x="1130" d="M111 408v79l608 879h92v-877h201v-81h-201v-408h-88v408h-612zM213 489h510v740z" />
<glyph unicode="5" d="M176 276h84q0 -115 70.5 -160.5t236.5 -45.5q189 0 261.5 73t72.5 265q0 98 -11 159.5t-43.5 111t-94.5 71.5t-160 22q-302 0 -311 -180h-82v774h745v-82h-661v-534q81 106 313 106q114 0 191 -28t121 -86t62.5 -136t18.5 -190q0 -232 -95.5 -331t-326.5 -99 q-199 0 -295 66t-96 224z" />
<glyph unicode="6" horiz-adv-x="1144" d="M158 625q0 339 26 483q24 141 123.5 206.5t280.5 65.5q379 0 379 -288h-86q0 105 -72 155.5t-219 50.5q-138 0 -209.5 -41t-99.5 -133q-16 -53 -24 -147.5t-8.5 -144.5t-0.5 -154q96 178 342 178q216 0 306.5 -100.5t90.5 -337.5q0 -225 -96.5 -328.5t-308.5 -103.5 q-143 0 -242 57.5t-139 165.5q-43 119 -43 416zM256 426q0 -188 78 -272t246 -84q174 0 247.5 78t73.5 268q0 201 -66.5 278.5t-234.5 77.5q-173 0 -258.5 -85.5t-85.5 -260.5z" />
<glyph unicode="7" horiz-adv-x="931" d="M59 1284v82h815v-80l-595 -1286h-97l598 1284h-721z" />
<glyph unicode="8" d="M158 371q0 154 50.5 233.5t160.5 106.5q-62 17 -102.5 44.5t-61 70t-28 89t-7.5 115.5q0 193 92 271.5t313 78.5t313.5 -79t92.5 -271q0 -135 -40.5 -211t-156.5 -108q110 -26 159.5 -106t49.5 -234q0 -215 -99 -300t-319 -85t-318.5 85t-98.5 300zM246 367 q0 -76 11.5 -127.5t34.5 -85t64 -52t92 -25.5t127 -7q93 0 150.5 11.5t100.5 43t61 89.5t18 151t-18 152t-60.5 92.5t-101 46t-150.5 12.5q-96 0 -153.5 -11t-100 -43.5t-59 -91.5t-16.5 -155zM258 1030q0 -87 17.5 -142t59 -85.5t97 -41.5t143.5 -11q89 0 144 10.5t97 40 t59.5 84t17.5 141.5q0 157 -67 214.5t-251 57.5q-185 0 -251 -56.5t-66 -211.5z" />
<glyph unicode="9" horiz-adv-x="1140" d="M154 948q0 225 96.5 328.5t308.5 103.5q143 0 242 -57.5t139 -165.5q43 -119 43 -416q0 -333 -27 -483q-24 -141 -123 -206.5t-280 -65.5q-379 0 -379 288h86q0 -105 72 -155.5t219 -50.5q138 0 209.5 41t99.5 133q16 53 24 147.5t8.5 144.5t0.5 154q-96 -178 -342 -178 q-216 0 -306.5 100.5t-90.5 337.5zM240 950q0 -201 66.5 -278.5t234.5 -77.5q173 0 258.5 85.5t85.5 260.5q0 188 -78 272t-246 84q-174 0 -247.5 -78t-73.5 -268z" />
<glyph unicode=":" horiz-adv-x="425" d="M143 55q0 70 70 70q72 0 72 -70q0 -69 -72 -69q-70 0 -70 69zM143 926q0 69 70 69q72 0 72 -69q0 -70 -72 -70q-70 0 -70 70z" />
<glyph unicode=";" horiz-adv-x="425" d="M66 -258l38 37q46 42 57 79t11 111v154h86v-154q0 -93 -16.5 -142.5t-69.5 -94.5l-51 -45zM143 926q0 69 70 69q72 0 72 -69q0 -70 -72 -70q-70 0 -70 70z" />
<glyph unicode="&#x3c;" d="M82 451v81l952 447l35 -78l-883 -407l883 -416l-35 -78z" />
<glyph unicode="=" horiz-adv-x="1153" d="M88 254v82h977v-82h-977zM88 649v82h977v-82h-977z" />
<glyph unicode="&#x3e;" d="M82 78l883 416l-883 407l35 78l952 -447v-81l-952 -451z" />
<glyph unicode="?" horiz-adv-x="860" d="M70 1092q0 156 87.5 222t274.5 66q191 0 280 -76t89 -264q0 -129 -51.5 -202.5t-167.5 -124.5q-41 -18 -66.5 -36t-41 -35.5t-22.5 -47t-8.5 -55.5t-1.5 -76v-74h-88v109q0 124 41 183.5t137 100.5q47 20 77 38.5t56 47.5t38 71.5t12 100.5q0 146 -62 202t-217 56 q-153 0 -218.5 -46t-65.5 -160h-82zM330 55q0 70 69 70q72 0 72 -70q0 -69 -72 -69q-69 0 -69 69z" />
<glyph unicode="@" horiz-adv-x="1564" d="M168 645q0 85 3.5 150t15.5 163t43 176t79 123q69 64 185 93.5t297 29.5q193 0 308.5 -27t182.5 -89q64 -59 89.5 -163t25.5 -319q0 -361 -99 -460q-51 -49 -113.5 -64.5t-156.5 -15.5v100q-82 -113 -268 -113q-61 0 -108.5 10t-81 27t-57.5 46t-38 60t-22 76t-10.5 87 t-2.5 100t2.5 100t10 87.5t21.5 76.5t37.5 60.5t57 46.5t81 27.5t108.5 10.5q189 0 270 -112v98h78v-711q81 0 129 48q46 46 63 143.5t17 288.5q0 183 -22.5 268.5t-73.5 134.5q-104 101 -424 101q-322 0 -426 -107q-119 -121 -119 -561q0 -451 102 -569q62 -72 176 -98.5 t275 -26.5q70 0 120 3t106.5 13.5t97.5 30t79.5 53t65.5 80.5l71 -37q-29 -59 -77.5 -101.5t-100 -65t-122 -35.5t-124.5 -16t-126 -3q-201 0 -319.5 34.5t-186.5 112.5q-70 82 -94.5 247t-24.5 388zM524 635q0 -35 0.5 -57.5t2 -52.5t5 -48.5t9 -42.5t14.5 -38.5t21.5 -31 t29.5 -26t38.5 -18t49 -12t60.5 -3.5q154 0 214 71.5t60 258.5q0 188 -61 261t-215 73q-46 0 -81.5 -9t-59.5 -22.5t-40.5 -39t-25.5 -49.5t-14 -63.5t-6 -70t-1 -80.5z" />
<glyph unicode="A" horiz-adv-x="1243" d="M53 0l520 1366h95l522 -1366h-96l-160 418h-631l-158 -418h-92zM334 496h569l-282 764z" />
<glyph unicode="B" horiz-adv-x="1323" d="M201 0v1366h444q182 0 245 -9q148 -23 204 -122q45 -80 45 -217q0 -53 -8 -99.5t-26.5 -91.5t-53.5 -77.5t-84 -47.5q56 -15 94 -47.5t57 -79t26 -93.5t7 -107q0 -79 -13.5 -138.5t-32 -99t-58.5 -66.5t-71 -41t-94 -21t-103.5 -8t-121.5 -1h-456zM289 82h354 q172 0 221 7q115 16 159 90q38 65 38 190q0 62 -10 108.5t-22.5 78t-44 52t-54.5 31.5t-75 16.5t-84.5 6t-102.5 0.5h-25h-354v-580zM289 739h356h14q66 0 97 0.5t82 6t75 16t56 30.5t46.5 50.5t25 76t10.5 105.5q0 56 -9 98t-26.5 70t-42 47t-55.5 28t-68 14t-78.5 5h-86.5 h-54h-342v-547z" />
<glyph unicode="C" horiz-adv-x="1300" d="M168 682q0 95 0.5 140.5t5 122.5t13.5 114t26.5 93t44 82.5t65.5 60.5t91 48.5t121 25.5t155 11q248 0 354.5 -82t106.5 -280h-84q-1 107 -36.5 166t-120 85.5t-238.5 26.5q-88 0 -153.5 -14.5t-110 -32.5t-73.5 -64.5t-44.5 -81t-23 -113t-8.5 -128.5t-1 -158v-7.5v-7 v-7.5v-27q0 -106 1 -155t8.5 -126.5t23 -111.5t44.5 -80.5t73.5 -64.5t110 -32.5t153.5 -14.5q154 0 238.5 26.5t120 85.5t36.5 166h84q0 -198 -106.5 -281t-354.5 -83q-86 0 -155 11t-121 25.5t-91 48.5t-65.5 60.5t-44 82.5t-26.5 93t-13.5 114t-5 122.5t-0.5 140.5z" />
<glyph unicode="D" horiz-adv-x="1351" d="M201 0v1366h463q188 0 286 -37t156 -131q45 -74 61.5 -181.5t16.5 -332.5t-16.5 -333.5t-61.5 -182.5q-58 -94 -156 -131t-286 -37h-463zM289 82h362q166 0 246.5 26.5t124.5 92.5q40 61 56 164t16 319t-16 319t-56 164q-44 66 -124.5 92.5t-246.5 26.5h-362v-1204z" />
<glyph unicode="E" horiz-adv-x="1193" d="M201 0v1366h821v-82h-729v-541h708v-81h-708v-580h729v-82h-821z" />
<glyph unicode="F" horiz-adv-x="1142" d="M201 0v1366h811v-82h-721v-541h702v-81h-702v-662h-90z" />
<glyph unicode="G" horiz-adv-x="1349" d="M168 658v24v5q0 96 0.5 141.5t5 122.5t14 113t27 92t44 81.5t65.5 59.5t91.5 48t122 24.5t156.5 10.5q250 0 365 -83t115 -279h-87q-1 156 -92.5 217t-318.5 61q-89 0 -155 -14t-111 -32t-74.5 -64t-45 -79t-23 -110t-8.5 -125t-1 -153v-37v-55q0 -101 1 -148t8 -120.5 t22.5 -106t44.5 -76.5t73.5 -61.5t109.5 -31t153 -13.5q267 0 356 131q39 58 49 139.5t10 245.5v76h-413v81h502v-301q0 -87 -16.5 -157t-42.5 -117t-67 -81.5t-82.5 -54t-96 -30.5t-100.5 -14.5t-103 -3.5q-82 0 -148 11t-115.5 26t-87 49t-62.5 60t-41.5 81t-25 90.5 t-13 109t-5 116t-0.5 131.5z" />
<glyph unicode="H" horiz-adv-x="1337" d="M201 0v1366h90v-623h756v623h90v-1366h-90v662h-756v-662h-90z" />
<glyph unicode="I" horiz-adv-x="491" d="M201 0v1366h90v-1366h-90z" />
<glyph unicode="J" horiz-adv-x="1077" d="M86 348h84q0 -84 19 -138.5t60.5 -85t98 -42.5t141.5 -12q66 0 115 9.5t83 30t56 47.5t34.5 68.5t17 86t4.5 106.5v948h90v-944q0 -113 -17.5 -190t-61.5 -135t-123 -85.5t-198 -27.5q-207 0 -305 82t-98 282z" />
<glyph unicode="K" horiz-adv-x="1171" d="M201 0v1366h88v-645l706 645h125l-753 -680l755 -686h-133l-698 643v-643h-90z" />
<glyph unicode="L" horiz-adv-x="1042" d="M201 0v1366h90v-1284h721v-82h-811z" />
<glyph unicode="M" horiz-adv-x="1677" d="M201 0v1366h121l518 -1270l514 1270h123v-1366h-88v1239l-504 -1239h-97l-501 1239v-1239h-86z" />
<glyph unicode="N" horiz-adv-x="1333" d="M201 0v1366h110l733 -1239v1239h89v-1366h-115l-729 1241v-1241h-88z" />
<glyph unicode="O" horiz-adv-x="1361" d="M168 648v36q0 243 10 326q22 184 116 267q117 103 386 103q108 0 189.5 -18t136 -41.5t91 -78t55.5 -94.5t28 -126.5t10.5 -138.5t1.5 -163v-36q0 -243 -10 -326q-22 -186 -117 -271q-117 -103 -385 -103q-108 0 -189.5 18t-136 42t-91 79t-55.5 95.5t-28 127t-10.5 139 t-1.5 163.5zM258 682q0 -236 9 -309q18 -157 98 -224q94 -79 315 -79q90 0 156.5 14t112 32t75 64t45.5 78.5t23.5 109t8.5 123t1 150.5v41q0 235 -8 309q-19 158 -99 225q-94 80 -315 80q-90 0 -156.5 -14.5t-112 -32.5t-75 -64t-45.5 -79t-23.5 -109.5t-8.5 -123 t-1 -150.5v-41z" />
<glyph unicode="P" horiz-adv-x="1232" d="M201 0v1366h440q83 0 123 -1t105 -7.5t95.5 -20t71 -40t58.5 -65.5t31.5 -97.5t13.5 -135.5q0 -76 -13.5 -134t-32 -97t-58.5 -65t-72 -40t-94.5 -21t-105 -8t-122.5 -1h-350v-633h-90zM291 715h342h34q65 0 96 0.5t80.5 5.5t73 15.5t54.5 31t44.5 51t23.5 76t10 106.5 q0 60 -10.5 105.5t-24.5 76t-46 51t-55.5 31t-74.5 15.5t-81 5.5t-96 0.5h-28h-342v-571z" />
<glyph unicode="Q" horiz-adv-x="1400" d="M168 648v36q0 243 10 326q22 184 116 267q117 103 386 103q108 0 189.5 -18t136 -41.5t91 -78t55.5 -94.5t28 -126.5t10.5 -138.5t1.5 -163v-36q0 -248 -11 -334q-16 -135 -71 -213l133 -84l-43 -67l-145 92q-121 -94 -375 -94q-108 0 -189.5 18t-136 42t-91 79 t-55.5 95.5t-28 127t-10.5 139t-1.5 163.5zM258 682q0 -236 9 -309q18 -157 98 -224q94 -79 315 -79q199 0 291 61l-164 105l43 67l180 -115q48 61 60 162.5t12 331.5q0 235 -8 309q-19 158 -99 225q-94 80 -315 80q-90 0 -156.5 -14.5t-112 -32.5t-75 -64t-45.5 -79 t-23.5 -109.5t-8.5 -123t-1 -150.5v-41z" />
<glyph unicode="R" horiz-adv-x="1318" d="M201 0v1366h440q187 0 251 -10q141 -22 197 -117q50 -84 50 -242q0 -181 -83 -263t-288 -85l428 -649h-111l-311 475q-28 42 -37.5 56.5t-29 40.5t-25.5 32.5t-23.5 20t-26 14.5t-29.5 5.5t-37.5 4.5h-47.5h-227v-649h-90zM291 733h387q87 0 132.5 3t100.5 16.5t80 42 t42.5 80t17.5 129.5q0 42 -3.5 76.5t-15 61.5t-20.5 48t-31.5 36t-35 25.5t-45.5 17t-48.5 10.5t-58 5.5t-59.5 1.5h-67h-34h-342v-553z" />
<glyph unicode="S" horiz-adv-x="1310" d="M152 348h86q0 -49 8.5 -88.5t27 -67.5t39 -49t53 -34t61 -21t71.5 -12t76.5 -5t82.5 -1q80 0 137.5 6.5t112.5 26.5t88.5 54t53.5 92t20 138q0 78 -20.5 130t-43 79t-84.5 41t-95.5 16t-124.5 3q-32 1 -48 1q-188 3 -255 14q-150 26 -205 128q-41 76 -41 200q0 82 16 144 t48.5 103.5t73.5 68.5t101 41t119 19t139 5q64 0 114 -3t104 -13t93.5 -26t76.5 -43.5t60 -65t36.5 -91t13.5 -120.5h-84q0 56 -13 99t-32 72.5t-52.5 49.5t-64 31t-79 17t-85 7.5t-92.5 1.5q-58 0 -98 -2t-86 -8.5t-76 -19t-60 -34.5t-47 -53t-27.5 -75.5t-10.5 -102.5 q0 -74 21.5 -125t45.5 -77t85 -39.5t93 -14.5t117 -3q35 -1 53 -1q192 -3 266 -18q150 -30 203 -140q35 -74 35 -190q0 -97 -24.5 -169.5t-67 -118t-108 -73t-138.5 -38t-168 -10.5q-92 0 -158.5 6.5t-135 29t-111 61t-69.5 106t-27 161.5z" />
<glyph unicode="T" horiz-adv-x="1097" d="M61 1284v82h975v-82h-442v-1284h-90v1284h-443z" />
<glyph unicode="U" horiz-adv-x="1329" d="M187 499q0 20 -0.5 47.5t0.5 61.5q1 69 1 80v678h91v-678q0 -40 -0.5 -104.5t-0.5 -93t1 -73.5t3.5 -67t6.5 -51t11 -48.5t17 -37.5q80 -143 347 -143q262 0 342 143q23 41 33 111.5t11 131.5t1 232v678h90v-678q1 -14 1 -84v-57.5v-32.5q0 -20 -2 -78t-6.5 -84.5 t-11.5 -67.5t-18.5 -69.5t-26.5 -52.5q-57 -90 -156 -134t-257 -44q-357 0 -445 229q-12 31 -19 77t-9.5 107.5t-3.5 101.5z" />
<glyph unicode="V" horiz-adv-x="1148" d="M25 1366h94l456 -1253l457 1253h92l-506 -1366h-94z" />
<glyph unicode="W" horiz-adv-x="1785" d="M102 1366h93l303 -1239l342 1239h108l342 -1239l305 1239h88l-340 -1366h-108l-342 1247l-344 -1247h-111z" />
<glyph unicode="X" horiz-adv-x="1126" d="M76 0l432 690l-426 676h102l381 -608l375 608h104l-428 -676l435 -690h-105l-387 618l-381 -618h-102z" />
<glyph unicode="Y" horiz-adv-x="1067" d="M23 1366h100l414 -678l409 678h98l-469 -764v-602h-88v602z" />
<glyph unicode="Z" horiz-adv-x="1224" d="M145 0v84l832 1200h-832v82h934v-84l-833 -1200h833v-82h-934z" />
<glyph unicode="[" horiz-adv-x="598" d="M123 -391v2042h393v-78h-307v-1884h307v-80h-393z" />
<glyph unicode="\" horiz-adv-x="1064" d="M59 1546h86l861 -1718h-86z" />
<glyph unicode="]" horiz-adv-x="598" d="M82 -311h307v1884h-307v78h393v-2042h-393v80z" />
<glyph unicode="^" d="M86 426l449 952h81l449 -952l-78 -35l-412 883l-411 -883z" />
<glyph unicode="_" horiz-adv-x="1024" d="M0 -311h1024v-86h-1024v86z" />
<glyph unicode="`" horiz-adv-x="823" d="M223 1366h111l266 -264h-104z" />
<glyph unicode="a" horiz-adv-x="1087" d="M119 276q0 76 17.5 130.5t48 88t80 53t103 26t128.5 6.5h348q-1 138 -4 163q-11 91 -72 127q-67 41 -229 41q-51 0 -89 -3t-82.5 -15t-73 -32.5t-48 -59t-19.5 -90.5h-82q0 70 23.5 122t60.5 82.5t93 49t110.5 24.5t122.5 6q70 0 125.5 -8t94 -23t67.5 -36t45 -47t27 -57 t13.5 -65.5t4.5 -71.5q1 -18 1 -37.5t-1 -38.5v-42v-569h-82v154q-82 -168 -365 -168q-191 0 -278.5 68t-87.5 222zM207 279q0 -115 61.5 -164t210.5 -49q83 0 144 12.5t101.5 40.5t65.5 62t37 87q11 53 15 105q2 33 3 75q0 24 -1 52h-357q-72 0 -117.5 -7.5t-85.5 -29.5 t-58.5 -67.5t-18.5 -116.5z" />
<glyph unicode="b" horiz-adv-x="1130" d="M172 0v1427h88v-589q93 157 342 157q76 0 134.5 -13t100 -34.5t70.5 -58t46 -75t26.5 -95t12.5 -108.5t3 -124t-3 -124t-12.5 -107.5t-27 -93.5t-46.5 -73.5t-70.5 -56.5t-100 -33.5t-133.5 -12.5q-252 0 -346 161v-147h-84zM258 489q0 -238 77.5 -328.5t276.5 -90.5 q47 0 85 7t67 18t51 31t37 39.5t25.5 51t16.5 57.5t9 66.5t3.5 71t0.5 77.5q0 60 -1.5 99.5t-8 88t-18 79t-33.5 63t-53 50t-76.5 29t-104.5 11.5q-200 0 -277 -90t-77 -330z" />
<glyph unicode="c" horiz-adv-x="1054" d="M135 489q0 109 8 180.5t33 138.5t70 105t120.5 60t184.5 22q385 0 385 -284h-82q0 61 -26 103t-73 62t-94.5 27.5t-107.5 7.5q-67 0 -117 -9.5t-85.5 -25t-59 -45t-37 -58.5t-20.5 -78.5t-9 -92t-2 -110.5q0 -67 2 -109.5t9 -92.5t20.5 -79.5t37.5 -59.5t59 -45.5 t85.5 -25.5t116.5 -10q48 0 86.5 3.5t80.5 16t70 33.5t46 58t18 87h82q0 -67 -21.5 -118t-56.5 -81.5t-86 -49.5t-104 -26t-117 -7q-79 0 -139.5 11t-104.5 30t-74.5 52.5t-49.5 71.5t-30 93.5t-14.5 111.5t-3.5 133z" />
<glyph unicode="d" horiz-adv-x="1130" d="M135 489q0 71 3 121.5t12 107t26 95t46 75.5t70.5 59t100.5 35t135 13q249 0 342 -157v589h88v-1427h-84v147q-93 -161 -346 -161q-60 0 -109 7.5t-86.5 20.5t-67 35t-50.5 46t-35.5 59t-23 68.5t-13.5 80t-6.5 88.5t-1.5 98zM223 487q0 -42 0.5 -70t2.5 -64.5t6.5 -61 t12 -54t19 -48.5t27.5 -40.5t37.5 -34t49 -23.5t63 -16t77.5 -5q135 0 210 37.5t109.5 127t34.5 252.5q0 241 -77 331.5t-277 90.5q-59 0 -104.5 -11.5t-76.5 -29t-53 -49.5t-33.5 -62.5t-18 -80t-8 -89t-1.5 -100.5z" />
<glyph unicode="e" horiz-adv-x="1085" d="M135 487q0 75 3.5 130t14 111t29 94.5t49 73.5t73.5 55.5t102.5 32t136.5 11.5q78 0 138.5 -12t103.5 -32.5t73 -56t48 -74t28 -96t13 -112t3 -131.5h-727q0 -65 2 -108.5t9.5 -90.5t21.5 -76.5t38 -58t58.5 -44t84 -24.5t114.5 -9q47 0 86 4t80.5 16.5t69.5 33.5 t46.5 57.5t18.5 86.5h82q0 -282 -385 -282q-78 0 -138 11t-103.5 30t-74.5 52.5t-50 71.5t-29.5 93t-14.5 111t-4 132zM223 561h641q0 96 -14 159t-50 108t-98.5 65t-158.5 20q-183 0 -251.5 -82t-68.5 -270z" />
<glyph unicode="f" horiz-adv-x="602" d="M49 899v80h164v203q0 52 9 92.5t22.5 67.5t37 46t46 29.5t57.5 16t61.5 7t67.5 1.5h39v-82h-35q-50 0 -79 -3t-59 -13.5t-45 -32t-24.5 -58.5t-9.5 -92v-182h252v-80h-252v-899h-88v899h-164z" />
<glyph unicode="g" horiz-adv-x="1128" d="M135 500q0 53 1 90t5.5 83.5t12.5 78t22 68t34 60.5t49 47.5t67 37t87.5 22t110.5 8.5q254 0 348 -159v143h84v-891q0 -115 -9 -181.5t-34 -121.5q-85 -182 -376 -182q-376 0 -379 282h84q0 -200 288 -200q240 0 304 135q22 47 29 98q6 42 6 107q0 14 -1 29v78v26 q-95 -160 -342 -160q-76 0 -135.5 12.5t-100.5 33t-70 57t-45.5 73.5t-25.5 94t-11.5 107.5t-2.5 124.5zM223 498q0 -47 0.5 -77.5t3.5 -70.5t9 -65.5t16 -56.5t25 -50t37 -39t50.5 -30.5t66.5 -17.5t85 -7q199 0 276.5 88.5t77.5 325.5q0 235 -77.5 324t-276.5 89 q-47 0 -85 -7t-67 -17.5t-51 -30.5t-36.5 -39t-25 -50t-16 -56.5t-8.5 -66t-3.5 -70t-0.5 -76.5z" />
<glyph unicode="h" horiz-adv-x="1097" d="M172 0v1427h88v-591q88 159 326 159q190 0 274 -84q30 -31 47.5 -65t24.5 -85.5t8.5 -88t1.5 -117.5v-33v-522h-88v506v24q0 154 -10 218t-53 104q-62 59 -207 59q-68 0 -120.5 -15t-86.5 -35t-57.5 -60.5t-35 -70.5t-17.5 -87t-6.5 -88t-0.5 -95v-26v-434h-88z" />
<glyph unicode="i" horiz-adv-x="432" d="M152 1317q0 63 65 63q66 0 66 -63q0 -68 -66 -68q-65 0 -65 68zM172 0v979h88v-979h-88z" />
<glyph unicode="j" horiz-adv-x="432" d="M-80 -307h31q121 0 171 41.5t50 161.5v1083h88v-1075q0 -159 -68.5 -226t-232.5 -67h-39v82zM152 1317q0 63 65 63q66 0 66 -63q0 -68 -66 -68q-65 0 -65 68z" />
<glyph unicode="k" horiz-adv-x="950" d="M172 0v1427h88v-870l522 422h123l-561 -453l567 -526h-123l-528 496v-496h-88z" />
<glyph unicode="l" horiz-adv-x="456" d="M172 258v1169h88v-1155q0 -130 17.5 -166t91.5 -36h14v-78h-33q-50 0 -83 12t-52 30.5t-28.5 56t-12 72t-2.5 95.5z" />
<glyph unicode="m" horiz-adv-x="1652" d="M172 0v979h84v-139q42 81 122.5 118t180.5 37q244 0 297 -178q30 64 84.5 105.5t112.5 57t123 15.5q59 0 107 -10t80.5 -27t57.5 -41t38 -52t23 -58.5t11.5 -62.5t3.5 -63q1 -16 1 -30.5t-1 -29.5v-29v-592h-88v596q0 50 -1 80.5t-6 68t-14.5 59t-27 44.5t-43 34.5 t-62.5 19t-86 7.5q-61 0 -107.5 -15t-77 -34.5t-51.5 -60t-31.5 -70.5t-16 -87.5t-6 -90t-0.5 -97.5v-24v-430h-88v596q0 69 -3 109.5t-16 85t-38.5 67.5t-70.5 38t-112 15q-61 0 -108 -15t-77.5 -35t-52 -61t-31.5 -70.5t-15.5 -87t-6 -87.5t-0.5 -94v-31v-430h-88z" />
<glyph unicode="n" horiz-adv-x="1097" d="M172 0v979h84v-148q88 164 330 164q190 0 274 -84q30 -30 47.5 -64t24.5 -85.5t8.5 -88.5t1.5 -118v-33v-522h-88v506v24q0 154 -10 218t-53 104q-62 59 -207 59q-68 0 -120.5 -15t-86.5 -35t-57.5 -60.5t-35 -70.5t-17.5 -87t-6.5 -88t-0.5 -95v-26v-434h-88z" />
<glyph unicode="o" horiz-adv-x="1110" d="M135 489q0 72 2.5 121t12 106.5t27 95.5t48.5 75.5t75 59t108 35t147 13.5q64 0 117 -8t93.5 -21.5t72 -37t53.5 -48t37.5 -60.5t24.5 -69.5t14 -80t6.5 -86.5t1.5 -95t-1.5 -95t-6.5 -86.5t-14 -79.5t-24.5 -69t-37.5 -60t-53.5 -47t-72 -36.5t-93.5 -21.5t-117 -8 q-65 0 -118 8t-93.5 21.5t-72 36.5t-53.5 47t-37.5 60t-24 69t-13.5 80t-6.5 86.5t-1.5 94.5zM223 489q0 -52 1 -87t5 -76t11 -68t18.5 -56.5t29 -47.5t42 -36t57 -27.5t74.5 -15t94 -5.5t94 5.5t74.5 15t57 27.5t42 36t29 47.5t18.5 56.5t11 68t5 76t1 87q0 67 -2 110 t-9 92.5t-21 79.5t-38 59.5t-59.5 45.5t-86 25.5t-116.5 9.5t-116.5 -9.5t-86 -25.5t-59.5 -45.5t-38 -59.5t-21 -79.5t-9 -92.5t-2 -110z" />
<glyph unicode="p" horiz-adv-x="1130" d="M172 -391v1370h84v-148q94 164 346 164q76 0 134.5 -12.5t100 -34t70.5 -58t46 -74.5t26.5 -94.5t12.5 -108.5t3 -124q0 -73 -3 -124t-12 -107.5t-26 -94.5t-46 -74t-70.5 -57t-100.5 -33.5t-135 -12.5q-249 0 -342 157v-534h-88zM258 492q0 -241 77 -331.5t277 -90.5 q42 0 77.5 5t63 16.5t49 24.5t37.5 35t27.5 41.5t19 49.5t12 54.5t6.5 61.5t2.5 64.5t0.5 69.5q0 61 -1.5 98.5t-7.5 86.5t-17.5 79t-33 62.5t-52.5 50t-77 29t-106 11.5q-135 0 -210 -37.5t-109.5 -127t-34.5 -252.5z" />
<glyph unicode="q" horiz-adv-x="1130" d="M135 492q0 72 3 123t12 107.5t26 94.5t46 74t70 57.5t99.5 34t134.5 12.5q252 0 346 -159v143h86v-1370h-88v534q-93 -157 -344 -157q-76 0 -135.5 13t-100.5 34t-70 57.5t-45.5 74.5t-25.5 95t-11.5 108t-2.5 124zM223 489q0 -48 0.5 -77.5t3.5 -70.5t8.5 -66.5 t16 -57.5t25 -51t36.5 -39.5t51 -31.5t67 -18t85 -7q136 0 211 37.5t110 128t35 253.5q0 122 -18 201.5t-61.5 129t-109 69.5t-167.5 20q-47 0 -85 -7t-67 -18t-51 -32t-36.5 -40t-25 -51t-16 -57.5t-8.5 -66.5t-3.5 -71t-0.5 -77z" />
<glyph unicode="r" horiz-adv-x="886" d="M172 0v979h84v-143q86 159 303 159q303 0 303 -280h-82q0 110 -57 153t-172 43q-61 0 -108 -15.5t-77.5 -36t-52 -62.5t-31.5 -72t-15.5 -88.5t-6 -88t-0.5 -93.5v-31v-424h-88z" />
<glyph unicode="s" horiz-adv-x="1026" d="M123 268h82q0 -115 62.5 -157.5t232.5 -42.5t242.5 45.5t72.5 158.5q0 96 -39.5 131.5t-161.5 45.5q-35 3 -78.5 5.5t-75 4t-68.5 4t-63 7t-54.5 12.5t-47.5 20t-37.5 31t-29 44t-17 59t-6.5 77q0 157 95 221q92 62 292 61h13q220 0 301 -84q63 -66 63 -196h-84 q0 106 -60.5 152t-217.5 46q-171 0 -242 -41.5t-72 -142.5v-11q0 -38 6 -64q7 -30 19 -49.5t37.5 -31t53.5 -16.5t77 -10q41 -4 97 -7.5t92 -5.5t81 -7.5t73 -14.5t58 -27.5t46.5 -45.5t27 -68t10.5 -95q0 -156 -97 -224q-94 -66 -292 -66h-12q-206 2 -292.5 63.5 t-86.5 218.5z" />
<glyph unicode="t" horiz-adv-x="581" d="M57 899v80h164v387h88v-387h252v-80h-252v-627q0 -118 56.5 -158t181.5 -40h14v-82h-18q-167 0 -244.5 65t-77.5 215v627h-164z" />
<glyph unicode="u" horiz-adv-x="1097" d="M156 424v17.5v15.5v522h88v-506v-24q0 -154 10 -218t53 -104q62 -59 207 -59q68 0 120.5 15t86.5 35t57.5 60.5t35 70.5t17.5 87t6.5 88t0.5 95v26v434h88v-979h-84v147q-90 -163 -330 -163q-190 0 -274 84q-30 30 -47.5 64t-24.5 85.5t-8.5 88.5t-1.5 118z" />
<glyph unicode="v" horiz-adv-x="935" d="M43 979h92l336 -879l330 879h92l-375 -979h-98z" />
<glyph unicode="w" horiz-adv-x="1419" d="M59 979h93l251 -866l259 866h98l260 -866l250 866h90l-291 -979h-102l-256 870l-258 -870h-103z" />
<glyph unicode="x" horiz-adv-x="935" d="M59 0l357 496l-348 483h106l295 -416l299 416h102l-350 -481l357 -498h-107l-303 426l-303 -426h-105z" />
<glyph unicode="y" horiz-adv-x="1097" d="M156 424v17.5v15.5v522h88v-506v-24q0 -154 10 -218t53 -104q62 -59 207 -59q68 0 120.5 15t86.5 35t57.5 60.5t35 70.5t17.5 87t6.5 88t0.5 95v26v434h88v-891q0 -115 -9 -181.5t-34 -121.5q-43 -93 -140 -137.5t-219 -44.5q-178 0 -269 67.5t-91 214.5h84 q0 -103 65 -151.5t205 -48.5q97 0 174 32t111 103q25 53 31 117.5t6 201.5q-91 -155 -328 -155q-190 0 -274 84q-30 30 -47.5 64t-24.5 85.5t-8.5 88.5t-1.5 118z" />
<glyph unicode="z" horiz-adv-x="819" d="M49 0v78l639 821h-639v80h750v-74l-637 -821h637v-84h-750z" />
<glyph unicode="{" horiz-adv-x="743" d="M166 629q0 51 57 108l111 111q8 8 8 18v432q0 126 19 195t75 125q74 74 226 74v-78q-59 0 -98.5 -11.5t-74.5 -46.5q-36 -36 -49.5 -93t-13.5 -160v-420q0 -66 -43 -109q-99 -97 -117 -115q-30 -29 0 -59l115 -111q45 -45 45 -116v-373q0 -101 15 -160.5t51 -95.5 q35 -33 74 -45t96 -12v-78q-152 0 -226 74q-56 56 -75 124.5t-19 194.5v383q0 21 -12 33l-125 125q-39 39 -39 86z" />
<glyph unicode="|" horiz-adv-x="573" d="M244 -391v1757h86v-1757h-86z" />
<glyph unicode="}" horiz-adv-x="743" d="M82 -313q57 0 96 12t74 45q36 36 50.5 95t14.5 161v373q0 71 45 116l115 111q29 30 0 59l-117 115q-43 43 -43 109v420q0 103 -13.5 160t-49.5 93q-35 35 -74 46.5t-98 11.5v78q151 0 225 -74q56 -56 75 -125t19 -195v-432q0 -9 9 -18l110 -111q58 -58 58 -108 q0 -47 -39 -86l-125 -125q-13 -13 -13 -33v-383q0 -126 -19 -194.5t-75 -124.5q-74 -74 -225 -74v78z" />
<glyph unicode="~" d="M72 453l161 100q68 43 156.5 45t157.5 -39q10 -6 47.5 -29t52.5 -31t49 -21.5t56.5 -13.5t54 6.5t61.5 25.5l166 102l45 -70l-161 -102q-68 -43 -157 -44t-157 40q-2 2 -110 65q-105 62 -211 -4l-162 -98z" />
<glyph unicode="&#xa1;" horiz-adv-x="575" d="M217 926q0 69 72 69q69 0 69 -69q0 -70 -69 -70q-72 0 -72 70zM246 -387v977h86v-977h-86z" />
<glyph unicode="&#xa2;" horiz-adv-x="1054" d="M135 492q0 99 6.5 165t28.5 133.5t61.5 107.5t108.5 66t168 29v185h84v-185q344 -7 344 -282h-84q0 56 -21 95.5t-59.5 60.5t-81.5 30.5t-98 11.5v-839q55 2 98 11.5t81.5 30.5t59.5 60.5t21 95.5h84q0 -271 -344 -282v-181h-84v181q-71 2 -126.5 16.5t-94.5 36.5 t-67 58.5t-44 75t-25.5 93.5t-12.5 106t-3 120zM223 492q0 -88 2.5 -135t17.5 -109t44 -93.5t84.5 -56t136.5 -28.5v839q-41 -1 -75.5 -7t-61 -18t-48 -25t-36.5 -34.5t-26 -40t-18 -48.5t-11 -52.5t-6 -60t-2.5 -63t-0.5 -68.5z" />
<glyph unicode="&#xa3;" d="M131 0v82h115v563h-115v80h115v219v40v43t1 39t3.5 42.5t6 36.5t9.5 39t13.5 33t19 34.5t25.5 28.5q105 100 319 100q48 0 81.5 -1.5t77 -8t74 -18t62 -33t50.5 -51.5t31.5 -74.5t12.5 -101.5h-86q0 66 -21 109t-63 63.5t-86.5 27t-111.5 6.5q-102 0 -169.5 -18 t-109.5 -63q-12 -13 -21 -28t-14.5 -36t-9 -35t-5 -43t-2 -39.5t0 -45t0.5 -40.5v-225h604v-80h-604v-563h717v-82h-920z" />
<glyph unicode="&#xa4;" horiz-adv-x="1148" d="M31 1188l51 51l190 -192q88 64 155 89t146 25t145.5 -25t153.5 -89l193 190l49 -49l-190 -191q112 -143 112 -299q0 -77 -23.5 -142t-84.5 -155l190 -192l-49 -47l-192 190q-141 -112 -295 -112q-75 0 -147 26t-161 86l-188 -188l-49 49l184 188q-110 149 -110 301 q0 75 25 141t87 154zM199 705q0 -157 109.5 -268t264.5 -111q154 0 264.5 110.5t110.5 265.5q0 154 -109.5 265.5t-258.5 111.5q-159 0 -270 -109t-111 -265z" />
<glyph unicode="&#xa5;" horiz-adv-x="1091" d="M51 1366h103l397 -680l393 680h96l-309 -528h184v-78h-231l-84 -146h315v-79h-323v-535h-88v535h-326v79h320l-88 146h-232v78h187z" />
<glyph unicode="&#xa6;" horiz-adv-x="573" d="M244 215h86v-606h-86v606zM244 760v606h86v-606h-86z" />
<glyph unicode="&#xa7;" d="M193 74h83q0 -117 68 -161t246 -44q147 0 213.5 46t66.5 175q0 65 -16.5 107t-52 63.5t-78 29.5t-109.5 9q-11 0 -52.5 0.5t-59.5 1t-55 3.5t-59.5 8.5t-50 15.5t-48.5 24q-96 68 -96 232q0 100 35.5 158t109.5 81q-145 48 -145 252q0 89 23.5 149t72 94t114 48t158.5 14 q214 0 305.5 -64t91.5 -224h-86q0 115 -67.5 159.5t-243.5 44.5q-147 0 -213.5 -46t-66.5 -175q0 -35 5.5 -63t13.5 -49t23 -36.5t29.5 -26t37 -17.5t40.5 -10.5t45.5 -5t47 -2t50.5 -0.5t50 -1q91 -3 145.5 -14t93.5 -37q96 -65 96 -231q0 -94 -32 -154t-113 -86 q145 -48 145 -252q0 -89 -23.5 -149t-72 -94t-114 -48t-158.5 -14q-215 0 -306 64t-91 225zM281 578q0 -41 9 -73t20.5 -52.5t37 -35t44 -21.5t56.5 -10.5t60 -4t69 -0.5h19q48 0 75.5 1.5t64 7.5t57 19t40.5 35t28.5 57.5t8.5 84.5q0 46 -7 78t-25.5 54t-40.5 35t-61.5 20 t-79 9t-101.5 2q-76 0 -122 -7t-83 -28.5t-53 -62.5t-16 -108z" />
<glyph unicode="&#xa8;" horiz-adv-x="851" d="M141 1303q0 34 15.5 48.5t50.5 14.5t51 -14.5t16 -48.5q0 -68 -67 -68q-66 0 -66 68zM580 1303q0 35 15.5 49t49.5 14q35 0 51.5 -14.5t16.5 -48.5q0 -68 -68 -68q-65 0 -65 68z" />
<glyph unicode="&#xa9;" horiz-adv-x="1681" d="M168 688q0 140 11.5 239.5t42 180t78 130t124.5 83t176.5 46.5t239.5 13q141 0 241 -13t177 -46.5t124.5 -83.5t77.5 -131t41.5 -180.5t11.5 -241.5q0 -138 -12 -237t-42 -180t-78.5 -132t-125 -85.5t-177 -49t-238.5 -14.5t-238.5 14.5t-177 49.5t-124.5 87t-78 133.5 t-42 180.5t-12 237zM250 682q0 -123 9.5 -210t35 -159.5t67 -117t108.5 -76t156.5 -44t213.5 -12.5q127 0 217 12.5t157.5 44.5t108.5 77t66 119t34 161t9 213q0 127 -9 214.5t-34.5 159.5t-66 115t-108.5 72.5t-157.5 40.5t-216.5 11q-128 0 -217.5 -11.5t-157.5 -42 t-108 -74t-65 -117t-33.5 -161t-8.5 -215.5zM428 688q0 105 9 176t34.5 133.5t71.5 98t120 55.5t181 20q63 0 117 -8t105 -29t86.5 -53t57 -83t21.5 -117h-80q0 53 -17 92.5t-44 62t-69 36t-82.5 18t-92.5 4.5q-65 0 -114.5 -9t-85 -24t-60 -42.5t-39 -57t-22.5 -75.5 t-10.5 -90t-2.5 -108t2.5 -108t10.5 -90t22.5 -75.5t39 -56.5t60 -42t85 -24t114.5 -9q52 0 92.5 4.5t82.5 18t69 36t44 62t17 92.5h80q0 -66 -21.5 -117t-57 -83.5t-86.5 -53t-105 -29t-117 -8.5q-107 0 -181 20t-120 55.5t-71.5 98t-34.5 133.5t-9 176z" />
<glyph unicode="&#xaa;" horiz-adv-x="774" d="M82 883q0 55 15 95t39 63t62.5 36t75.5 17t88 4h246q0 51 -3 79.5t-14.5 58t-34.5 43.5t-63.5 23t-101.5 9q-47 0 -81.5 -5t-67 -18t-49.5 -40t-17 -68h-76q0 61 25.5 102.5t72 61.5t95 28t110.5 8q46 0 83.5 -5.5t65 -13.5t49 -23t35.5 -27.5t23.5 -34.5t14 -36.5t7 -40 t3 -39.5t0.5 -40v-432h-66v98q-84 -108 -266 -108q-143 0 -206.5 46t-63.5 159zM160 885q0 -78 39.5 -106.5t148.5 -28.5q71 0 120.5 16.5t76 40t41 64t17.5 73.5t3 84h-250q-46 0 -77.5 -5t-60.5 -19t-43.5 -43.5t-14.5 -75.5z" />
<glyph unicode="&#xab;" horiz-adv-x="915" d="M109 485q0 27 8 57t17.5 54t32 57t34.5 51t43 52.5t41 45.5t44.5 46t37.5 39l57 -60q-3 -3 -37.5 -38t-45.5 -47t-41 -45.5t-43 -53.5t-31.5 -49.5t-25.5 -55.5t-7 -51t7 -51.5t24.5 -55t30.5 -48.5t41.5 -51.5t40.5 -44t45 -45t38 -37.5l-58 -58l-37.5 37.5l-44.5 44.5 t-40 43t-42.5 50.5t-33 48t-31 55.5t-16.5 52.5t-8 57.5zM496 485q0 27 8 57t17.5 54t32 57t34.5 51t43 52.5t41 45.5t44.5 46t37.5 39l57 -60q-3 -3 -37.5 -38t-45.5 -47t-41 -45.5t-43 -53.5t-31.5 -49.5t-25.5 -55.5t-7 -51t7 -51.5t24.5 -55t30.5 -48.5t41.5 -51.5 t40.5 -44t45 -45t38 -37.5l-57 -58q-4 4 -38 37.5t-44 44t-40.5 43.5t-42.5 50t-33.5 49t-30.5 55t-17 52.5t-8 57.5z" />
<glyph unicode="&#xac;" d="M88 649v82h975v-731h-84v649h-891z" />
<glyph unicode="&#xad;" horiz-adv-x="983" d="M193 451v81h598v-81h-598z" />
<glyph unicode="&#xae;" horiz-adv-x="1085" d="M94 920q0 142 18 226t69.5 139t136 75t225.5 20q94 0 161 -8.5t118 -31t82.5 -55.5t51.5 -87t27.5 -120t7.5 -160q0 -138 -18.5 -222.5t-70 -141.5t-136.5 -79t-223 -22q-93 0 -160.5 9.5t-118 33t-83 58t-52 88.5t-27.5 120t-8 158zM158 915q0 -83 5.5 -139t22 -103.5 t42.5 -75.5t70.5 -48t103 -27.5t141.5 -7.5q84 0 143 8t102.5 28.5t70 49t42.5 77t21.5 105.5t5.5 140t-5.5 140t-22 104t-42.5 74.5t-70.5 47t-102.5 26.5t-142 7q-85 0 -143.5 -7t-103 -27t-70 -48t-41.5 -76.5t-21.5 -105.5t-5.5 -142zM346 627v596h197h12q33 0 49 -0.5 t41.5 -3.5t38 -9t29.5 -17.5t24.5 -29t13 -43.5t5.5 -61q0 -46 -12.5 -76t-45.5 -51q58 -33 58 -135v-170h-64v166q0 18 -2 32.5t-5 25.5t-9.5 19t-11 13.5t-15.5 9t-17 5.5t-21 2.5t-22 0.5h-25.5h-26.5h-125v-274h-66zM412 961h131q9 0 29 -0.5t27 0t23 1.5t21.5 3.5t16 7 t14.5 12t9.5 18t7 25t1.5 33.5t-1.5 34t-7 25.5t-9.5 18t-15 12.5l-16.5 7.5t-22 3.5t-24 1.5t-29 0t-30.5 -0.5h-125v-202z" />
<glyph unicode="&#xaf;" horiz-adv-x="849" d="M98 1264v77h656v-77h-656z" />
<glyph unicode="&#xb0;" horiz-adv-x="1155" d="M279 1090q0 158 69.5 224t229.5 66q162 0 230.5 -68t68.5 -229q0 -167 -68 -239t-234 -72q-165 0 -230.5 74t-65.5 244zM360 1075q0 -125 45.5 -175t169.5 -50q125 0 171.5 50t46.5 175q0 126 -45 177t-170 51t-171.5 -51t-46.5 -177z" />
<glyph unicode="&#xb1;" d="M76 0v80h999v-80h-999zM86 586v82h446v391h84v-391h447v-82h-447v-396h-84v396h-446z" />
<glyph unicode="&#xb2;" horiz-adv-x="747" d="M111 1190q0 104 65.5 146t194.5 42q133 0 196.5 -51t63.5 -180q0 -67 -16 -110.5t-59 -71.5t-75.5 -40t-106.5 -32q-3 -1 -5 -1.5t-4.5 -1t-4.5 -1.5q-44 -12 -65 -19t-46 -20.5t-35 -30t-17 -43t-7 -65.5v-93h439v-71h-516v184q0 60 17 100.5t52.5 64.5t70 36.5 t89.5 27.5l12 3t11 2.5t12 3.5q38 11 58 18t47 21t40 31t23 44.5t10 63.5q0 91 -42.5 125.5t-139.5 34.5t-141 -25t-44 -92h-77z" />
<glyph unicode="&#xb3;" horiz-adv-x="747" d="M111 727h77q1 -67 44 -94t141 -27q57 0 88.5 4.5t58 21t37 49t10.5 87.5q0 106 -42 141t-148 35h-131v70h131q49 0 78 4.5t55 18.5t37.5 43.5t11.5 76.5q0 88 -36.5 119t-145.5 31q-99 0 -141.5 -26.5t-42.5 -94.5h-76q0 103 65.5 147.5t194.5 44.5q138 0 198 -49 t60 -168q0 -73 -18 -116t-76 -66q54 -20 78 -70.5t24 -138.5q0 -133 -66 -184t-204 -51q-130 0 -196 43.5t-66 148.5z" />
<glyph unicode="&#xb4;" horiz-adv-x="823" d="M223 1102l266 264h111l-272 -264h-105z" />
<glyph unicode="&#xb5;" horiz-adv-x="1103" d="M170 -391v1370h88v-504v-57q-1 -40 -0.5 -76t3 -68t9.5 -59.5t19 -50t32 -40t47.5 -29.5t66.5 -18.5t89 -6.5q51 0 93.5 8.5t73.5 21.5t55.5 36.5t40.5 46t27.5 59t17.5 65.5t9.5 75.5t4 79.5t0.5 85v432h88v-979h-86v150q-86 -164 -328 -164q-187 0 -262 94v-471h-88z " />
<glyph unicode="&#xb6;" horiz-adv-x="1144" d="M90 999q0 77 13.5 135.5t31.5 97.5t58.5 65.5t71 40t95.5 20t105 7.5t123 1h323v-1366h-86v1284h-145v-1284h-86v637q-73 0 -108 1t-94.5 5t-88.5 13.5t-71 26t-62 43t-42 64t-30 90t-8 119.5zM178 1001q0 -47 5.5 -84.5t15.5 -65.5t25 -49.5t34.5 -35.5t43.5 -23.5 t51.5 -14t59 -7t66.5 -2.5h73h42v565h-32q-64 0 -95 -0.5t-80.5 -5.5t-73.5 -15.5t-55.5 -30.5t-45 -50.5t-24 -75.5t-10.5 -105z" />
<glyph unicode="&#xb7;" horiz-adv-x="428" d="M143 686q0 70 70 70q72 0 72 -70t-72 -70q-70 0 -70 70z" />
<glyph unicode="&#xb8;" horiz-adv-x="849" d="M260 -258h68q0 -40 19.5 -53t68.5 -13q53 0 68.5 20t15.5 68q0 17 -3.5 30t-7.5 21.5t-14 15t-16.5 9.5t-21 5t-21.5 2t-25 0.5t-24 0.5v152h71v-96q133 0 133 -137q0 -77 -35.5 -113.5t-119.5 -36.5q-85 0 -120.5 28.5t-35.5 96.5z" />
<glyph unicode="&#xb9;" horiz-adv-x="747" d="M160 1182l200 184h70v-819h-78v715l-141 -129z" />
<glyph unicode="&#xba;" horiz-adv-x="774" d="M78 1030q0 53 2.5 90t10 76.5t21 65.5t36.5 50t55.5 38t78.5 22t105 8t105 -8t78.5 -22t55.5 -38t36.5 -50t21 -65.5t10 -76.5t2.5 -90t-2.5 -90t-10 -76.5t-21 -65.5t-36.5 -50t-55.5 -38t-78.5 -22t-105 -8t-105 8t-78.5 22t-55.5 38t-36.5 50t-21 65.5t-10 76.5 t-2.5 90zM156 1030q0 -48 1.5 -78t6.5 -63t15 -52t26 -37.5t41 -27.5t59.5 -14.5t81.5 -5.5t81.5 5.5t59.5 14.5t41 27.5t26 37.5t15 52t6.5 63t1.5 78t-1.5 78t-6.5 63t-14.5 52t-26 37.5t-41.5 28t-59.5 15t-81.5 5.5t-81.5 -5.5t-59.5 -15t-41.5 -28t-26 -37.5t-14.5 -52 t-6.5 -63t-1.5 -78z" />
<glyph unicode="&#xbb;" horiz-adv-x="915" d="M104 827l58 60q3 -4 37.5 -39t44.5 -46t41 -45.5t43 -52.5t34.5 -51t32 -57t17.5 -54t8 -57q0 -28 -8 -57.5t-17 -52.5t-30.5 -55t-33.5 -49t-42.5 -50t-40.5 -43.5t-44 -44t-38 -37.5l-57 58q5 5 38 37.5t45 45t40.5 44t41.5 51.5t30.5 48.5t24.5 55t7 51.5t-7.5 51 t-25.5 55t-31.5 50t-42.5 53.5t-42 46t-45.5 46.5t-37.5 38zM492 827l57 60q3 -4 37.5 -39t44.5 -46t41 -45.5t43 -52.5t34.5 -51t32 -57t17.5 -54t8 -57q0 -28 -8 -57.5t-17 -52.5t-30.5 -55t-33.5 -49t-42.5 -50t-40.5 -43.5t-44 -44t-38 -37.5l-57 58q5 5 38 37.5t45 45 t40.5 44t41.5 51.5t30.5 48.5t24.5 55t7 51.5t-7 51t-25.5 55.5t-31.5 49.5t-43 53.5t-41 45.5t-45.5 47t-37.5 38z" />
<glyph unicode="&#xbc;" horiz-adv-x="1687" d="M160 1182l200 184h70v-819h-78v715l-141 -129zM455 0l688 1366h84l-692 -1366h-80zM1016 229v68l373 522h71v-524h127v-66h-127v-229h-76v229h-368zM1102 295h282v405z" />
<glyph unicode="&#xbd;" horiz-adv-x="1687" d="M160 1182l200 184h70v-819h-78v715l-141 -129zM455 0l688 1366h84l-692 -1366h-80zM1051 643q0 104 65.5 146t194.5 42q133 0 196.5 -51t63.5 -180q0 -67 -16 -110.5t-59 -71.5t-75.5 -40t-106.5 -32q-3 -1 -5 -1.5t-4.5 -1t-4.5 -1.5q-44 -12 -65 -19t-46 -20.5t-35 -30 t-17 -43t-7 -65.5v-92h439v-72h-516v184q0 60 17 100.5t52.5 64.5t70 36.5t89.5 27.5q23 6 35 9q38 11 58 18t47 21t40 31t23 44.5t10 63.5q0 91 -42.5 125.5t-139.5 34.5t-141 -25t-44 -92h-77z" />
<glyph unicode="&#xbe;" horiz-adv-x="1687" d="M111 727h77q1 -67 44 -94t141 -27q57 0 88.5 4.5t58 21t37 49t10.5 87.5q0 106 -42 141t-148 35h-131v70h131q49 0 78 4.5t55 18.5t37.5 43.5t11.5 76.5q0 88 -36.5 119t-145.5 31q-99 0 -141.5 -26.5t-42.5 -94.5h-76q0 103 65.5 147.5t194.5 44.5q138 0 198 -49 t60 -168q0 -73 -18 -116t-76 -66q54 -20 78 -70.5t24 -138.5q0 -133 -66 -184t-204 -51q-130 0 -196 43.5t-66 148.5zM455 0l688 1366h84l-692 -1366h-80zM1016 229v68l373 522h71v-524h127v-66h-127v-229h-76v229h-368zM1102 295h282v405z" />
<glyph unicode="&#xbf;" horiz-adv-x="860" d="M66 -57q0 129 51.5 202.5t167.5 124.5q41 18 66.5 36t40.5 35t22 47t8.5 55.5t1.5 76.5v74h88v-109q0 -124 -41 -183.5t-137 -100.5q-63 -26 -99 -52.5t-59.5 -77.5t-23.5 -128q0 -146 61.5 -202t216.5 -56q153 0 219 46t66 160h82q0 -156 -88 -222t-275 -66 q-191 0 -279.5 76t-88.5 264zM395 926q0 69 72 69q70 0 70 -69q0 -70 -70 -70q-72 0 -72 70z" />
<glyph unicode="&#xc0;" horiz-adv-x="1243" d="M53 0l520 1366h95l522 -1366h-96l-160 418h-631l-158 -418h-92zM334 496h569l-282 764zM428 1761h111l266 -264h-105z" />
<glyph unicode="&#xc1;" horiz-adv-x="1243" d="M53 0l520 1366h95l522 -1366h-96l-160 418h-631l-158 -418h-92zM334 496h569l-282 764zM444 1497l267 264h110l-272 -264h-105z" />
<glyph unicode="&#xc2;" horiz-adv-x="1243" d="M53 0l520 1366h95l522 -1366h-96l-160 418h-631l-158 -418h-92zM309 1497l273 264h84l270 -264h-105l-206 205l-209 -205h-107zM334 496h569l-282 764z" />
<glyph unicode="&#xc3;" horiz-adv-x="1243" d="M53 0l520 1366h95l522 -1366h-96l-160 418h-631l-158 -418h-92zM244 1655q14 8 55.5 32.5t60 34t56.5 24.5t64.5 16.5t62.5 -4.5t71 -25q7 -4 29.5 -17t31.5 -17t29 -13t33 -10.5t31.5 -2.5t36.5 4t37 15l125 65l37 -65l-109 -60q-62 -34 -127.5 -36.5t-122.5 28.5 q-8 4 -41 23t-45.5 24t-39 12t-50.5 2t-51 -20l-133 -74zM334 496h569l-282 764z" />
<glyph unicode="&#xc4;" horiz-adv-x="1243" d="M53 0l520 1366h95l522 -1366h-96l-160 418h-631l-158 -418h-92zM334 496h569l-282 764zM338 1696q0 35 15.5 49t49.5 14q35 0 51.5 -14.5t16.5 -48.5q0 -68 -68 -68q-65 0 -65 68zM776 1696q0 34 15.5 48.5t50.5 14.5t51 -14.5t16 -48.5q0 -68 -67 -68q-66 0 -66 68z" />
<glyph unicode="&#xc5;" horiz-adv-x="1243" d="M55 0l486 1274q-79 15 -113.5 67t-34.5 154q0 129 49.5 177t178.5 48q126 0 178.5 -51.5t52.5 -175.5q0 -108 -33 -158t-114 -63l487 -1272h-96l-160 418h-631l-158 -418h-92zM336 496h569l-282 764zM471 1493q0 -91 31 -123.5t123 -32.5q94 0 121.5 32t27.5 126 q0 91 -30.5 123.5t-122.5 32.5q-94 0 -122 -32t-28 -126z" />
<glyph unicode="&#xc6;" horiz-adv-x="1845" d="M4 0l901 1366h768v-82h-659v-541h639v-81h-639v-580h659v-82h-747v422h-545l-277 -422h-100zM432 502h494v753z" />
<glyph unicode="&#xc7;" horiz-adv-x="1300" d="M168 682q0 95 0.5 140.5t5 122.5t13.5 114t26.5 93t44 82.5t65.5 60.5t91 48.5t121 25.5t155 11q249 0 355 -82t106 -280h-84q-1 107 -36.5 166t-120 85.5t-238.5 26.5q-88 0 -153.5 -14.5t-110 -32.5t-73.5 -64.5t-44.5 -81t-23 -113t-8.5 -128.5t-1 -158v-7.5v-7v-7.5 v-27q0 -106 1 -155t8.5 -126.5t23 -111.5t44.5 -80.5t73.5 -64.5t110 -32.5t153.5 -14.5q154 0 238.5 26.5t120 85.5t36.5 166h84q0 -200 -106 -281t-355 -81v-82q133 0 133 -137q0 -77 -35.5 -113.5t-119.5 -36.5q-85 0 -120.5 28.5t-35.5 96.5h68q0 -40 19.5 -53t68.5 -13 q50 0 67 19t17 67q0 15 -1.5 27t-7 20.5t-8.5 15t-13.5 10.5t-15 6.5t-19.5 4t-20 1.5t-24.5 0.5t-24.5 0.5v138q-83 4 -148 17.5t-111.5 43.5t-80 57.5t-54 83t-32.5 95t-17 119.5t-6 129.5t-1 150.5z" />
<glyph unicode="&#xc8;" horiz-adv-x="1193" d="M201 0v1366h821v-82h-729v-541h708v-81h-708v-580h729v-82h-821zM389 1761h111l266 -264h-104z" />
<glyph unicode="&#xc9;" horiz-adv-x="1193" d="M201 0v1366h821v-82h-729v-541h708v-81h-708v-580h729v-82h-821zM414 1497l266 264h111l-273 -264h-104z" />
<glyph unicode="&#xca;" horiz-adv-x="1193" d="M201 0v1366h821v-82h-729v-541h708v-81h-708v-580h729v-82h-821zM289 1497l272 264h84l270 -264h-104l-207 205l-209 -205h-106z" />
<glyph unicode="&#xcb;" horiz-adv-x="1193" d="M201 0v1366h821v-82h-729v-541h708v-81h-708v-580h729v-82h-821zM328 1698q0 35 15.5 49t49.5 14q35 0 51.5 -14.5t16.5 -48.5q0 -68 -68 -68q-65 0 -65 68zM766 1698q0 35 15.5 49t49.5 14q35 0 51.5 -14.5t16.5 -48.5q0 -68 -68 -68q-65 0 -65 68z" />
<glyph unicode="&#xcc;" horiz-adv-x="491" d="M80 1761h110l267 -264h-105zM201 0v1366h90v-1366h-90z" />
<glyph unicode="&#xcd;" horiz-adv-x="491" d="M94 1497l266 264h111l-272 -264h-105zM201 0v1366h90v-1366h-90z" />
<glyph unicode="&#xce;" horiz-adv-x="491" d="M-68 1497l273 264h84l270 -264h-104l-207 205l-209 -205h-107zM201 0v1366h90v-1366h-90z" />
<glyph unicode="&#xcf;" horiz-adv-x="491" d="M-8 1698q0 35 15.5 49t49.5 14q35 0 51.5 -14.5t16.5 -48.5q0 -68 -68 -68q-65 0 -65 68zM201 0v1366h90v-1366h-90zM430 1698q0 34 15.5 48.5t50.5 14.5t51 -14.5t16 -48.5q0 -68 -67 -68q-66 0 -66 68z" />
<glyph unicode="&#xd0;" horiz-adv-x="1388" d="M59 647v82h179v637h462q188 0 286.5 -37t156.5 -131q45 -74 61.5 -181.5t16.5 -332.5t-16.5 -333.5t-61.5 -182.5q-58 -94 -156.5 -131t-286.5 -37h-462v647h-179zM326 82h362q166 0 246.5 26.5t124.5 92.5q39 60 55 163t16 320t-16 320t-55 163q-44 66 -124.5 92.5 t-246.5 26.5h-362v-557h387v-82h-387v-565z" />
<glyph unicode="&#xd1;" horiz-adv-x="1333" d="M201 0v1366h110l733 -1239v1239h89v-1366h-115l-729 1241v-1241h-88zM285 1655q14 8 55.5 32.5t60 34t56.5 24.5t64.5 16.5t62.5 -4.5t71 -25q7 -4 29.5 -17t31.5 -17t29 -13t33 -10.5t31.5 -2.5t36.5 4t37 15l125 65l36 -65l-108 -60q-62 -34 -127.5 -36.5t-122.5 28.5 q-8 4 -41 23t-45.5 24t-39 12t-50.5 2t-51 -20l-133 -74z" />
<glyph unicode="&#xd2;" horiz-adv-x="1361" d="M168 648v36q0 243 10 326q22 184 116 267q117 103 386 103q108 0 189.5 -18t136 -41.5t91 -78t55.5 -94.5t28 -126.5t10.5 -138.5t1.5 -163v-36q0 -243 -10 -326q-22 -186 -117 -271q-117 -103 -385 -103q-108 0 -189.5 18t-136 42t-91 79t-55.5 95.5t-28 127t-10.5 139 t-1.5 163.5zM258 682q0 -236 9 -309q18 -157 98 -224q94 -79 315 -79q90 0 156.5 14t112 32t75 64t45.5 78.5t23.5 109t8.5 123t1 150.5v41q0 235 -8 309q-19 158 -99 225q-94 80 -315 80q-90 0 -156.5 -14.5t-112 -32.5t-75 -64t-45.5 -79t-23.5 -109.5t-8.5 -123 t-1 -150.5v-41zM506 1761h110l267 -264h-105z" />
<glyph unicode="&#xd3;" horiz-adv-x="1361" d="M168 648v36q0 243 10 326q22 184 116 267q117 103 386 103q108 0 189.5 -18t136 -41.5t91 -78t55.5 -94.5t28 -126.5t10.5 -138.5t1.5 -163v-36q0 -243 -10 -326q-22 -186 -117 -271q-117 -103 -385 -103q-108 0 -189.5 18t-136 42t-91 79t-55.5 95.5t-28 127t-10.5 139 t-1.5 163.5zM258 682q0 -236 9 -309q18 -157 98 -224q94 -79 315 -79q90 0 156.5 14t112 32t75 64t45.5 78.5t23.5 109t8.5 123t1 150.5v41q0 235 -8 309q-19 158 -99 225q-94 80 -315 80q-90 0 -156.5 -14.5t-112 -32.5t-75 -64t-45.5 -79t-23.5 -109.5t-8.5 -123 t-1 -150.5v-41zM479 1497l266 264h111l-272 -264h-105z" />
<glyph unicode="&#xd4;" horiz-adv-x="1361" d="M168 648v36q0 243 10 326q22 184 116 267q117 103 386 103q108 0 189.5 -18t136 -41.5t91 -78t55.5 -94.5t28 -126.5t10.5 -138.5t1.5 -163v-36q0 -243 -10 -326q-22 -186 -117 -271q-117 -103 -385 -103q-108 0 -189.5 18t-136 42t-91 79t-55.5 95.5t-28 127t-10.5 139 t-1.5 163.5zM258 682q0 -236 9 -309q18 -157 98 -224q94 -79 315 -79q90 0 156.5 14t112 32t75 64t45.5 78.5t23.5 109t8.5 123t1 150.5v41q0 235 -8 309q-19 158 -99 225q-94 80 -315 80q-90 0 -156.5 -14.5t-112 -32.5t-75 -64t-45.5 -79t-23.5 -109.5t-8.5 -123 t-1 -150.5v-41zM367 1497l272 264h84l270 -264h-104l-207 205l-209 -205h-106z" />
<glyph unicode="&#xd5;" horiz-adv-x="1361" d="M168 648v36q0 243 10 326q22 184 116 267q117 103 386 103q108 0 189.5 -18t136 -41.5t91 -78t55.5 -94.5t28 -126.5t10.5 -138.5t1.5 -163v-36q0 -243 -10 -326q-22 -186 -117 -271q-117 -103 -385 -103q-108 0 -189.5 18t-136 42t-91 79t-55.5 95.5t-28 127t-10.5 139 t-1.5 163.5zM258 682q0 -236 9 -309q18 -157 98 -224q94 -79 315 -79q90 0 156.5 14t112 32t75 64t45.5 78.5t23.5 109t8.5 123t1 150.5v41q0 235 -8 309q-19 158 -99 225q-94 80 -315 80q-90 0 -156.5 -14.5t-112 -32.5t-75 -64t-45.5 -79t-23.5 -109.5t-8.5 -123 t-1 -150.5v-41zM301 1655q13 8 55 32.5t60.5 34t56.5 24.5t64.5 16.5t63 -4.5t71.5 -25q4 -2 34 -19t37.5 -20t33 -12.5t40 -9t37.5 4.5t45 15l125 65l37 -65l-109 -60q-62 -34 -127.5 -36.5t-122.5 28.5q-8 4 -41 23t-45.5 24t-39 12t-50.5 2t-51 -20l-133 -74z" />
<glyph unicode="&#xd6;" horiz-adv-x="1361" d="M168 648v36q0 243 10 326q22 184 116 267q117 103 386 103q108 0 189.5 -18t136 -41.5t91 -78t55.5 -94.5t28 -126.5t10.5 -138.5t1.5 -163v-36q0 -243 -10 -326q-22 -186 -117 -271q-117 -103 -385 -103q-108 0 -189.5 18t-136 42t-91 79t-55.5 95.5t-28 127t-10.5 139 t-1.5 163.5zM258 682q0 -236 9 -309q18 -157 98 -224q94 -79 315 -79q90 0 156.5 14t112 32t75 64t45.5 78.5t23.5 109t8.5 123t1 150.5v41q0 235 -8 309q-19 158 -99 225q-94 80 -315 80q-90 0 -156.5 -14.5t-112 -32.5t-75 -64t-45.5 -79t-23.5 -109.5t-8.5 -123 t-1 -150.5v-41zM395 1696q0 34 15.5 48.5t50.5 14.5t51 -14.5t16 -48.5q0 -68 -67 -68q-66 0 -66 68zM834 1696q0 35 15.5 49t49.5 14q35 0 51.5 -14.5t16.5 -48.5q0 -68 -68 -68q-65 0 -65 68z" />
<glyph unicode="&#xd7;" horiz-adv-x="1153" d="M121 104l397 398l-395 395l57 57l395 -393l398 393l57 -57l-395 -395l397 -398l-59 -57l-398 399l-395 -399z" />
<glyph unicode="&#xd8;" horiz-adv-x="1359" d="M168 688q3 241 17.5 354.5t64.5 184.5q56 80 161.5 117t276.5 36q54 0 109 -6l61 273l80 -19l-59 -266q166 -30 245 -154q46 -73 58.5 -188.5t9.5 -343.5q-3 -236 -18.5 -350.5t-65.5 -186.5q-56 -82 -160.5 -120t-275.5 -37q-37 0 -111 8l-61 -279l-80 17l61 274 q-174 31 -248 154q-46 72 -57 185t-8 347zM256 684q-3 -247 9 -338.5t52 -150.5q62 -91 183 -111l278 1208q-62 4 -90 4q-145 1 -229.5 -28t-128.5 -92q-41 -58 -56 -151.5t-18 -340.5zM580 70q31 -2 92 -2q145 -1 229 27t127 91q41 58 56 149.5t18 338.5q3 248 -9 341.5 t-51 151.5q-62 91 -184 111z" />
<glyph unicode="&#xd9;" horiz-adv-x="1329" d="M187 499q-1 40 0 109t1 80v678h91v-678q0 -40 -0.5 -104.5t-0.5 -93t1 -73.5t3.5 -67t6.5 -51t11 -48.5t17 -37.5q80 -143 347 -143q262 0 342 143q23 41 33 111.5t11 131.5t1 232v678h90v-678q0 -14 0.5 -84t0 -90.5t-2 -78t-6 -84t-11.5 -67.5t-18.5 -69.5t-26.5 -52.5 q-57 -90 -156 -134t-257 -44q-357 0 -445 229q-12 31 -19 77t-9.5 107.5t-3.5 101.5zM463 1761h110l267 -264h-105z" />
<glyph unicode="&#xda;" horiz-adv-x="1329" d="M187 499q-1 40 0 109t1 80v678h91v-678q0 -40 -0.5 -104.5t-0.5 -93t1 -73.5t3.5 -67t6.5 -51t11 -48.5t17 -37.5q80 -143 347 -143q262 0 342 143q23 41 33 111.5t11 131.5t1 232v678h90v-678q0 -14 0.5 -84t0 -90.5t-2 -78t-6 -84t-11.5 -67.5t-18.5 -69.5t-26.5 -52.5 q-57 -90 -156 -134t-257 -44q-357 0 -445 229q-12 31 -19 77t-9.5 107.5t-3.5 101.5zM481 1497l267 264h110l-272 -264h-105z" />
<glyph unicode="&#xdb;" horiz-adv-x="1329" d="M187 499q-1 40 0 109t1 80v678h91v-678q0 -40 -0.5 -104.5t-0.5 -93t1 -73.5t3.5 -67t6.5 -51t11 -48.5t17 -37.5q80 -143 347 -143q262 0 342 143q23 41 33 111.5t11 131.5t1 232v678h90v-678q0 -14 0.5 -84t0 -90.5t-2 -78t-6 -84t-11.5 -67.5t-18.5 -69.5t-26.5 -52.5 q-57 -90 -156 -134t-257 -44q-357 0 -445 229q-12 31 -19 77t-9.5 107.5t-3.5 101.5zM352 1497l273 264h84l270 -264h-105l-206 205l-209 -205h-107z" />
<glyph unicode="&#xdc;" horiz-adv-x="1329" d="M187 499q-1 40 0 109t1 80v678h91v-678q0 -40 -0.5 -104.5t-0.5 -93t1 -73.5t3.5 -67t6.5 -51t11 -48.5t17 -37.5q80 -143 347 -143q262 0 342 143q23 41 33 111.5t11 131.5t1 232v678h90v-678q0 -14 0.5 -84t0 -90.5t-2 -78t-6 -84t-11.5 -67.5t-18.5 -69.5t-26.5 -52.5 q-57 -90 -156 -134t-257 -44q-357 0 -445 229q-12 31 -19 77t-9.5 107.5t-3.5 101.5zM385 1696q0 34 15.5 48.5t50.5 14.5t51 -14.5t16 -48.5q0 -68 -67 -68q-66 0 -66 68zM823 1696q0 34 15.5 48.5t50.5 14.5t51 -14.5t16 -48.5q0 -68 -67 -68q-66 0 -66 68z" />
<glyph unicode="&#xdd;" horiz-adv-x="1067" d="M23 1366h100l414 -678l409 678h98l-469 -764v-602h-88v602zM428 1511l266 265h111l-273 -265h-104z" />
<glyph unicode="&#xde;" horiz-adv-x="1232" d="M201 0v1366h90v-313h350q83 0 123 -1t105 -7.5t95.5 -20t71 -40t58.5 -65.5t31.5 -97.5t13.5 -135.5q0 -76 -13.5 -134t-32 -97t-58 -65.5t-72.5 -40.5t-95 -20.5t-104.5 -8t-122.5 -1.5h-350v-319h-90zM291 401h342h32q57 0 84.5 0.5t73 3.5t67.5 10.5t53.5 20.5 t46.5 34.5t31 51t22 71.5t6 95q0 60 -10.5 105.5t-24.5 76t-46 51t-55.5 31t-74.5 15.5t-81 5.5t-96 0.5h-28h-342v-572z" />
<glyph unicode="&#xdf;" d="M172 0v1004q0 88 8 150t33 120t68.5 92.5t116.5 55t175 20.5q219 0 312.5 -78.5t93.5 -271.5q0 -62 -8 -110.5t-28.5 -93.5t-59 -77t-95.5 -49q108 -27 155.5 -117t47.5 -248q0 -218 -101.5 -307.5t-320.5 -89.5h-161v80h165q90 0 149.5 14t101.5 49t60.5 95t18.5 151 q0 100 -18.5 164.5t-62 102.5t-106 52.5t-159.5 14.5h-149v80h149q187 0 260.5 61.5t73.5 220.5q0 158 -67.5 216.5t-250.5 58.5q-99 0 -161 -20.5t-95.5 -67.5t-45 -107t-11.5 -155v-1010h-88z" />
<glyph unicode="&#xe0;" horiz-adv-x="1087" d="M119 276q0 76 17.5 130.5t48 88t80 53t103 26t128.5 6.5h348q-1 138 -4 163q-11 91 -72 127q-67 41 -229 41q-51 0 -89 -3t-82.5 -15t-73 -32.5t-48 -59t-19.5 -90.5h-82q0 70 23.5 122t60.5 82.5t93 49t110.5 24.5t122.5 6q70 0 125.5 -8t94 -23t67.5 -36t45 -47t27 -57 t13.5 -65.5t4.5 -71.5t0 -76v-42v-569h-82v154q-82 -168 -365 -168q-191 0 -278.5 68t-87.5 222zM207 279q0 -115 61.5 -164t210.5 -49q83 0 144 12.5t101.5 40.5t65.5 62t37 87t15.5 105t1.5 127h-357q-72 0 -117.5 -7.5t-85.5 -29.5t-58.5 -67.5t-18.5 -116.5zM346 1366 h111l266 -264h-105z" />
<glyph unicode="&#xe1;" horiz-adv-x="1087" d="M119 276q0 76 17.5 130.5t48 88t80 53t103 26t128.5 6.5h348q-1 138 -4 163q-11 91 -72 127q-67 41 -229 41q-51 0 -89 -3t-82.5 -15t-73 -32.5t-48 -59t-19.5 -90.5h-82q0 70 23.5 122t60.5 82.5t93 49t110.5 24.5t122.5 6q70 0 125.5 -8t94 -23t67.5 -36t45 -47t27 -57 t13.5 -65.5t4.5 -71.5t0 -76v-42v-569h-82v154q-82 -168 -365 -168q-191 0 -278.5 68t-87.5 222zM207 279q0 -115 61.5 -164t210.5 -49q83 0 144 12.5t101.5 40.5t65.5 62t37 87t15.5 105t1.5 127h-357q-72 0 -117.5 -7.5t-85.5 -29.5t-58.5 -67.5t-18.5 -116.5zM367 1102 l266 264h110l-272 -264h-104z" />
<glyph unicode="&#xe2;" horiz-adv-x="1087" d="M119 276q0 76 17.5 130.5t48 88t80 53t103 26t128.5 6.5h348q-1 138 -4 163q-11 91 -72 127q-67 41 -229 41q-51 0 -89 -3t-82.5 -15t-73 -32.5t-48 -59t-19.5 -90.5h-82q0 70 23.5 122t60.5 82.5t93 49t110.5 24.5t122.5 6q70 0 125.5 -8t94 -23t67.5 -36t45 -47t27 -57 t13.5 -65.5t4.5 -71.5t0 -76v-42v-569h-82v154q-82 -168 -365 -168q-191 0 -278.5 68t-87.5 222zM207 279q0 -115 61.5 -164t210.5 -49q83 0 144 12.5t101.5 40.5t65.5 62t37 87t15.5 105t1.5 127h-357q-72 0 -117.5 -7.5t-85.5 -29.5t-58.5 -67.5t-18.5 -116.5zM229 1102 l273 264h84l270 -264h-104l-207 205l-209 -205h-107z" />
<glyph unicode="&#xe3;" horiz-adv-x="1087" d="M119 276q0 76 17.5 130.5t48 88t80 53t103 26t128.5 6.5h348q-1 138 -4 163q-11 91 -72 127q-67 41 -229 41q-51 0 -89 -3t-82.5 -15t-73 -32.5t-48 -59t-19.5 -90.5h-82q0 70 23.5 122t60.5 82.5t93 49t110.5 24.5t122.5 6q70 0 125.5 -8t94 -23t67.5 -36t45 -47t27 -57 t13.5 -65.5t4.5 -71.5t0 -76v-42v-569h-82v154q-82 -168 -365 -168q-191 0 -278.5 68t-87.5 222zM160 1264q13 7 55 32t60 34.5t56.5 24t64.5 16t62.5 -4.5t71.5 -25q7 -4 29.5 -17t31.5 -17t29 -13t33 -10.5t31.5 -2.5t36.5 4t37 15l125 66l37 -66l-109 -59 q-62 -34 -127.5 -36.5t-122.5 28.5q-8 4 -41 23t-45.5 24t-39 12t-50.5 2t-51 -20l-133 -74zM207 279q0 -115 61.5 -164t210.5 -49q83 0 144 12.5t101.5 40.5t65.5 62t37 87t15.5 105t1.5 127h-357q-72 0 -117.5 -7.5t-85.5 -29.5t-58.5 -67.5t-18.5 -116.5z" />
<glyph unicode="&#xe4;" horiz-adv-x="1087" d="M119 276q0 76 17.5 130.5t48 88t80 53t103 26t128.5 6.5h348q-1 138 -4 163q-11 91 -72 127q-67 41 -229 41q-51 0 -89 -3t-82.5 -15t-73 -32.5t-48 -59t-19.5 -90.5h-82q0 70 23.5 122t60.5 82.5t93 49t110.5 24.5t122.5 6q70 0 125.5 -8t94 -23t67.5 -36t45 -47t27 -57 t13.5 -65.5t4.5 -71.5t0 -76v-42v-569h-82v154q-82 -168 -365 -168q-191 0 -278.5 68t-87.5 222zM207 279q0 -115 61.5 -164t210.5 -49q83 0 144 12.5t101.5 40.5t65.5 62t37 87t15.5 105t1.5 127h-357q-72 0 -117.5 -7.5t-85.5 -29.5t-58.5 -67.5t-18.5 -116.5zM258 1303 q0 34 15.5 48.5t50.5 14.5t51 -14.5t16 -48.5q0 -68 -67 -68q-66 0 -66 68zM696 1303q0 34 15.5 48.5t50.5 14.5t51 -14.5t16 -48.5q0 -68 -67 -68q-66 0 -66 68z" />
<glyph unicode="&#xe5;" horiz-adv-x="1087" d="M119 276q0 76 17.5 130.5t48 88t80 53t103 26t128.5 6.5h348q-1 138 -4 163q-11 91 -72 127q-67 41 -229 41q-51 0 -89 -3t-82.5 -15t-73 -32.5t-48 -59t-19.5 -90.5h-82q0 222 236 270q-35 19 -47 58.5t-12 103.5q0 123 51.5 171t175.5 48q125 0 178 -48t53 -171 q0 -130 -61 -162q45 -10 79.5 -26.5t57 -37.5t38.5 -47.5t23 -56t11.5 -63t4 -68t-0.5 -72.5v-14v-13v-14v-569h-82v154q-82 -168 -365 -168q-191 0 -278.5 68t-87.5 222zM207 279q0 -115 61.5 -164t210.5 -49q83 0 144 12.5t101.5 40.5t65.5 62t37 87t15.5 105t1.5 127 h-357q-72 0 -117.5 -7.5t-85.5 -29.5t-58.5 -67.5t-18.5 -116.5zM397 1139q0 -92 30.5 -121t123.5 -29q92 0 121.5 29.5t29.5 120.5q0 93 -30.5 126t-122.5 33q-93 0 -122.5 -33t-29.5 -126z" />
<glyph unicode="&#xe6;" horiz-adv-x="1796" d="M119 270q0 93 26 154.5t79 93.5t117 44.5t157 12.5h350v12q0 70 -1.5 101.5t-10 78t-27 66t-52.5 41.5t-87.5 29.5t-130.5 7.5q-51 0 -89 -3t-82.5 -15t-73 -32.5t-48 -59t-19.5 -90.5h-82q0 70 23.5 122t60.5 82.5t93 49t110.5 24.5t122.5 6q53 0 102 -7t101 -23.5 t91 -51.5t56 -84q76 166 350 166q122 0 201.5 -26t124.5 -84.5t62.5 -138.5t17.5 -203v-49h-727q0 -46 1 -78.5t3.5 -70.5t8 -64t14 -54.5t21.5 -47.5t31 -38.5t42.5 -31t55 -21.5t69 -14t84.5 -4q47 0 86 4t80.5 16.5t69.5 33.5t46.5 57.5t18.5 86.5h82q0 -282 -385 -282 q-325 0 -375 211q-19 -59 -62 -102.5t-101 -66t-116 -32.5t-121 -10q-192 0 -280 65.5t-88 218.5zM207 272q0 -114 61.5 -160t212.5 -46q72 0 128 10.5t94.5 28t65.5 48.5t42.5 62.5t23.5 80.5t10.5 92.5t2.5 107.5h-359q-56 0 -95.5 -4.5t-77 -18.5t-60 -38.5t-36 -65 t-13.5 -97.5zM936 575h639q0 97 -14 158.5t-51 103t-98 59t-157 17.5q-183 0 -251 -76.5t-68 -261.5z" />
<glyph unicode="&#xe7;" horiz-adv-x="1054" d="M135 489q0 109 8 180.5t33 138.5t70 105t120.5 60t184.5 22q385 0 385 -284h-82q0 61 -26 103t-73 62t-94.5 27.5t-107.5 7.5q-67 0 -117 -9.5t-85.5 -25t-59 -45t-37 -58.5t-20.5 -78.5t-9 -92t-2 -110.5q0 -59 1.5 -97t6 -83.5t14.5 -74t26 -59t40.5 -48.5t58 -33.5 t79.5 -22t104 -6.5q48 0 86.5 4t80.5 16.5t70 33.5t46 58.5t18 87.5h82q0 -64 -19.5 -113t-51.5 -79.5t-78.5 -50.5t-95.5 -28.5t-109 -10.5v-82q133 0 133 -137q0 -77 -36 -113.5t-120 -36.5q-85 0 -120.5 28.5t-35.5 96.5h68q0 -40 19.5 -53t68.5 -13q53 0 68.5 20 t15.5 68q0 17 -3.5 30t-7.5 21.5t-14 15t-16.5 9.5t-21 5t-21.5 2t-25 0.5t-24 0.5v138q-71 3 -125.5 15.5t-94 33t-67.5 54.5t-45 71.5t-26.5 92t-13 108.5t-3.5 128z" />
<glyph unicode="&#xe8;" horiz-adv-x="1085" d="M135 487q0 75 3.5 130t14 111t29 94.5t49 73.5t73.5 55.5t102.5 32t136.5 11.5q78 0 138.5 -12t103.5 -32.5t73 -56t48 -74t28 -96t13 -112t3 -131.5h-727q0 -65 2 -108.5t9.5 -90.5t21.5 -76.5t38 -58t58.5 -44t84 -24.5t114.5 -9q47 0 86 4t80.5 16.5t69.5 33.5 t46.5 57.5t18.5 86.5h82q0 -282 -385 -282q-78 0 -138 11t-103.5 30t-74.5 52.5t-50 71.5t-29.5 93t-14.5 111t-4 132zM223 561h641q0 96 -14 159t-50 108t-98.5 65t-158.5 20q-183 0 -251.5 -82t-68.5 -270zM344 1366h111l266 -264h-105z" />
<glyph unicode="&#xe9;" horiz-adv-x="1085" d="M135 487q0 75 3.5 130t14 111t29 94.5t49 73.5t73.5 55.5t102.5 32t136.5 11.5q78 0 138.5 -12t103.5 -32.5t73 -56t48 -74t28 -96t13 -112t3 -131.5h-727q0 -65 2 -108.5t9.5 -90.5t21.5 -76.5t38 -58t58.5 -44t84 -24.5t114.5 -9q47 0 86 4t80.5 16.5t69.5 33.5 t46.5 57.5t18.5 86.5h82q0 -282 -385 -282q-78 0 -138 11t-103.5 30t-74.5 52.5t-50 71.5t-29.5 93t-14.5 111t-4 132zM223 561h641q0 96 -14 159t-50 108t-98.5 65t-158.5 20q-183 0 -251.5 -82t-68.5 -270zM365 1102l266 264h110l-272 -264h-104z" />
<glyph unicode="&#xea;" horiz-adv-x="1085" d="M135 487q0 75 3.5 130t14 111t29 94.5t49 73.5t73.5 55.5t102.5 32t136.5 11.5q78 0 138.5 -12t103.5 -32.5t73 -56t48 -74t28 -96t13 -112t3 -131.5h-727q0 -65 2 -108.5t9.5 -90.5t21.5 -76.5t38 -58t58.5 -44t84 -24.5t114.5 -9q47 0 86 4t80.5 16.5t69.5 33.5 t46.5 57.5t18.5 86.5h82q0 -282 -385 -282q-78 0 -138 11t-103.5 30t-74.5 52.5t-50 71.5t-29.5 93t-14.5 111t-4 132zM223 561h641q0 96 -14 159t-50 108t-98.5 65t-158.5 20q-183 0 -251.5 -82t-68.5 -270zM225 1102l273 264h84l270 -264h-104l-207 205l-209 -205h-107z " />
<glyph unicode="&#xeb;" horiz-adv-x="1085" d="M135 487q0 75 3.5 130t14 111t29 94.5t49 73.5t73.5 55.5t102.5 32t136.5 11.5q78 0 138.5 -12t103.5 -32.5t73 -56t48 -74t28 -96t13 -112t3 -131.5h-727q0 -65 2 -108.5t9.5 -90.5t21.5 -76.5t38 -58t58.5 -44t84 -24.5t114.5 -9q47 0 86 4t80.5 16.5t69.5 33.5 t46.5 57.5t18.5 86.5h82q0 -282 -385 -282q-78 0 -138 11t-103.5 30t-74.5 52.5t-50 71.5t-29.5 93t-14.5 111t-4 132zM223 561h641q0 96 -14 159t-50 108t-98.5 65t-158.5 20q-183 0 -251.5 -82t-68.5 -270zM258 1303q0 34 15.5 48.5t50.5 14.5t51 -14.5t16 -48.5 q0 -68 -67 -68q-66 0 -66 68zM696 1303q0 34 15.5 48.5t50.5 14.5t51 -14.5t16 -48.5q0 -68 -67 -68q-66 0 -66 68z" />
<glyph unicode="&#xec;" horiz-adv-x="432" d="M29 1366h110l267 -264h-105zM172 0v979h88v-979h-88z" />
<glyph unicode="&#xed;" horiz-adv-x="432" d="M27 1102l266 264h110l-272 -264h-104zM172 0v979h88v-979h-88z" />
<glyph unicode="&#xee;" horiz-adv-x="432" d="M-98 1102l272 264h84l270 -264h-104l-207 205l-209 -205h-106zM172 0v979h88v-979h-88z" />
<glyph unicode="&#xef;" horiz-adv-x="432" d="M-70 1303q0 34 15.5 48.5t50.5 14.5t51 -14.5t16 -48.5q0 -68 -67 -68q-66 0 -66 68zM172 0v979h88v-979h-88zM369 1303q0 35 15.5 49t49.5 14q35 0 51.5 -14.5t16.5 -48.5q0 -68 -68 -68q-65 0 -65 68z" />
<glyph unicode="&#xf0;" horiz-adv-x="1105" d="M135 489q0 69 3 120t12.5 107t26.5 95.5t46 76.5t69.5 59t98 35t131.5 13q88 0 150 -16l-248 246l-125 -109l-49 58l123 104l-115 115l59 53l117 -117l125 109l49 -58l-121 -104l304 -309q112 -113 145 -203t35 -275q0 -75 -3.5 -131.5t-14.5 -111.5t-30.5 -93.5 t-51 -71.5t-75.5 -53t-104.5 -31t-138.5 -11q-91 0 -159 13.5t-113.5 44t-74.5 69.5t-44.5 100t-21 123.5t-5.5 152.5zM221 489q0 -53 1 -88t4.5 -76.5t10.5 -68t19 -56.5t29 -48t42 -36t57.5 -27t74.5 -15t94 -6q58 0 103.5 6.5t79.5 21.5t58 32.5t40.5 47.5t26 58.5 t14.5 73.5t6.5 83.5t1.5 97.5q0 233 -81 326.5t-278 95.5q-60 0 -107 -11t-78.5 -29t-54 -50.5t-34.5 -63.5t-19 -80t-8.5 -88.5t-1.5 -99.5z" />
<glyph unicode="&#xf1;" horiz-adv-x="1097" d="M172 1264q12 7 55 32t60.5 34t56.5 24t65 16.5t62.5 -4.5t71.5 -25q4 -2 34 -19t37.5 -20t33 -12.5t40 -9t37.5 4.5t45 15l125 66l37 -66l-109 -59q-62 -34 -127.5 -36.5t-122.5 28.5q-8 4 -41 23t-45.5 24t-39 12t-50.5 2t-51 -20l-133 -74zM174 0v979h84v-148 q88 164 330 164q190 0 274 -84q30 -30 47.5 -64t24.5 -85.5t8.5 -88.5t1.5 -118v-33v-522h-88v506v24q0 154 -10 218t-53 104q-62 59 -207 59q-68 0 -120.5 -15t-86.5 -35t-57.5 -60.5t-35 -70.5t-17.5 -87t-6.5 -88t-0.5 -95v-26v-434h-88z" />
<glyph unicode="&#xf2;" horiz-adv-x="1110" d="M135 489q0 72 2.5 121t12 106.5t27 95.5t48.5 75.5t75 59t108 35t147 13.5q64 0 117 -8t93.5 -21.5t72 -37t53.5 -48t37.5 -60.5t24.5 -69.5t14 -80t6.5 -86.5t1.5 -95t-1.5 -95t-6.5 -86.5t-14 -79.5t-24.5 -69t-37.5 -60t-53.5 -47t-72 -36.5t-93.5 -21.5t-117 -8 q-65 0 -118 8t-93.5 21.5t-72 36.5t-53.5 47t-37.5 60t-24 69t-13.5 80t-6.5 86.5t-1.5 94.5zM223 489q0 -52 1 -87t5 -76t11 -68t18.5 -56.5t29 -47.5t42 -36t57 -27.5t74.5 -15t94 -5.5t94 5.5t74.5 15t57 27.5t42 36t29 47.5t18.5 56.5t11 68t5 76t1 87q0 67 -2 110 t-9 92.5t-21 79.5t-38 59.5t-59.5 45.5t-86 25.5t-116.5 9.5t-116.5 -9.5t-86 -25.5t-59.5 -45.5t-38 -59.5t-21 -79.5t-9 -92.5t-2 -110zM373 1366h110l267 -264h-105z" />
<glyph unicode="&#xf3;" horiz-adv-x="1110" d="M135 489q0 72 2.5 121t12 106.5t27 95.5t48.5 75.5t75 59t108 35t147 13.5q64 0 117 -8t93.5 -21.5t72 -37t53.5 -48t37.5 -60.5t24.5 -69.5t14 -80t6.5 -86.5t1.5 -95t-1.5 -95t-6.5 -86.5t-14 -79.5t-24.5 -69t-37.5 -60t-53.5 -47t-72 -36.5t-93.5 -21.5t-117 -8 q-65 0 -118 8t-93.5 21.5t-72 36.5t-53.5 47t-37.5 60t-24 69t-13.5 80t-6.5 86.5t-1.5 94.5zM223 489q0 -52 1 -87t5 -76t11 -68t18.5 -56.5t29 -47.5t42 -36t57 -27.5t74.5 -15t94 -5.5t94 5.5t74.5 15t57 27.5t42 36t29 47.5t18.5 56.5t11 68t5 76t1 87q0 67 -2 110 t-9 92.5t-21 79.5t-38 59.5t-59.5 45.5t-86 25.5t-116.5 9.5t-116.5 -9.5t-86 -25.5t-59.5 -45.5t-38 -59.5t-21 -79.5t-9 -92.5t-2 -110zM356 1102l267 264h110l-272 -264h-105z" />
<glyph unicode="&#xf4;" horiz-adv-x="1110" d="M135 489q0 72 2.5 121t12 106.5t27 95.5t48.5 75.5t75 59t108 35t147 13.5q64 0 117 -8t93.5 -21.5t72 -37t53.5 -48t37.5 -60.5t24.5 -69.5t14 -80t6.5 -86.5t1.5 -95t-1.5 -95t-6.5 -86.5t-14 -79.5t-24.5 -69t-37.5 -60t-53.5 -47t-72 -36.5t-93.5 -21.5t-117 -8 q-65 0 -118 8t-93.5 21.5t-72 36.5t-53.5 47t-37.5 60t-24 69t-13.5 80t-6.5 86.5t-1.5 94.5zM223 489q0 -52 1 -87t5 -76t11 -68t18.5 -56.5t29 -47.5t42 -36t57 -27.5t74.5 -15t94 -5.5t94 5.5t74.5 15t57 27.5t42 36t29 47.5t18.5 56.5t11 68t5 76t1 87q0 67 -2 110 t-9 92.5t-21 79.5t-38 59.5t-59.5 45.5t-86 25.5t-116.5 9.5t-116.5 -9.5t-86 -25.5t-59.5 -45.5t-38 -59.5t-21 -79.5t-9 -92.5t-2 -110zM240 1102l272 264h84l270 -264h-104l-207 205l-209 -205h-106z" />
<glyph unicode="&#xf5;" horiz-adv-x="1110" d="M135 489q0 72 2.5 121t12 106.5t27 95.5t48.5 75.5t75 59t108 35t147 13.5q64 0 117 -8t93.5 -21.5t72 -37t53.5 -48t37.5 -60.5t24.5 -69.5t14 -80t6.5 -86.5t1.5 -95t-1.5 -95t-6.5 -86.5t-14 -79.5t-24.5 -69t-37.5 -60t-53.5 -47t-72 -36.5t-93.5 -21.5t-117 -8 q-65 0 -118 8t-93.5 21.5t-72 36.5t-53.5 47t-37.5 60t-24 69t-13.5 80t-6.5 86.5t-1.5 94.5zM174 1264q12 7 55 32t60.5 34t56.5 24t65 16.5t62.5 -4.5t71.5 -25q4 -2 34 -19t37.5 -20t33 -12.5t40 -9t37.5 4.5t45 15l125 66l37 -66l-109 -59q-62 -34 -127.5 -36.5 t-122.5 28.5q-8 4 -41 23t-45.5 24t-39 12t-50.5 2t-51 -20l-133 -74zM223 489q0 -52 1 -87t5 -76t11 -68t18.5 -56.5t29 -47.5t42 -36t57 -27.5t74.5 -15t94 -5.5t94 5.5t74.5 15t57 27.5t42 36t29 47.5t18.5 56.5t11 68t5 76t1 87q0 67 -2 110t-9 92.5t-21 79.5t-38 59.5 t-59.5 45.5t-86 25.5t-116.5 9.5t-116.5 -9.5t-86 -25.5t-59.5 -45.5t-38 -59.5t-21 -79.5t-9 -92.5t-2 -110z" />
<glyph unicode="&#xf6;" horiz-adv-x="1110" d="M135 489q0 72 2.5 121t12 106.5t27 95.5t48.5 75.5t75 59t108 35t147 13.5q64 0 117 -8t93.5 -21.5t72 -37t53.5 -48t37.5 -60.5t24.5 -69.5t14 -80t6.5 -86.5t1.5 -95t-1.5 -95t-6.5 -86.5t-14 -79.5t-24.5 -69t-37.5 -60t-53.5 -47t-72 -36.5t-93.5 -21.5t-117 -8 q-65 0 -118 8t-93.5 21.5t-72 36.5t-53.5 47t-37.5 60t-24 69t-13.5 80t-6.5 86.5t-1.5 94.5zM223 489q0 -52 1 -87t5 -76t11 -68t18.5 -56.5t29 -47.5t42 -36t57 -27.5t74.5 -15t94 -5.5t94 5.5t74.5 15t57 27.5t42 36t29 47.5t18.5 56.5t11 68t5 76t1 87q0 67 -2 110 t-9 92.5t-21 79.5t-38 59.5t-59.5 45.5t-86 25.5t-116.5 9.5t-116.5 -9.5t-86 -25.5t-59.5 -45.5t-38 -59.5t-21 -79.5t-9 -92.5t-2 -110zM268 1303q0 34 15.5 48.5t50.5 14.5t51 -14.5t16 -48.5q0 -68 -67 -68q-66 0 -66 68zM707 1303q0 35 15.5 49t49.5 14 q35 0 51.5 -14.5t16.5 -48.5q0 -68 -68 -68q-65 0 -65 68z" />
<glyph unicode="&#xf7;" d="M76 451v81h999v-81h-999zM506 55q0 70 69 70q72 0 72 -70q0 -69 -72 -69q-69 0 -69 69zM506 926q0 69 69 69q72 0 72 -69q0 -70 -72 -70q-69 0 -69 70z" />
<glyph unicode="&#xf8;" horiz-adv-x="1110" d="M135 396q-2 50 0 98q0 55 2 94.5t7 86t14.5 80t25 69.5t37.5 60t54 47t72.5 36t93.5 21t118 7q61 0 123 -10l66 186l77 -26l-63 -180q44 -16 78.5 -41t56.5 -52.5t38 -67t23.5 -72t11.5 -81t5 -81.5t0 -85q-1 -90 -7.5 -153.5t-23 -124t-46.5 -99t-77 -68t-114.5 -42.5 t-159.5 -12q-58 0 -123 10l-68 -191l-77 27l65 184q-52 18 -90 48t-59.5 66.5t-35.5 80t-18 89.5t-6 96zM222 377q3 -62 12 -116.5t44.5 -100t94.5 -64.5l280 809q-43 6 -94 6q-52 0 -94 -5.5t-74.5 -15t-57.5 -27t-42.5 -36t-29.5 -48t-19.5 -56.5t-11.5 -68t-5.5 -76 t-1.5 -87q-4 -53 -1 -115zM451 76q58 -8 96 -8q67 -1 117.5 8t86 24.5t60.5 44.5t39.5 59t22.5 79t10.5 93t3.5 111q-1 43 0.5 89.5t-6.5 95t-22.5 89.5t-46.5 74.5t-79 49.5z" />
<glyph unicode="&#xf9;" horiz-adv-x="1097" d="M156 424v17.5v15.5v522h88v-506v-24q0 -154 10 -218t53 -104q62 -59 207 -59q68 0 120.5 15t86.5 35t57.5 60.5t35 70.5t17.5 87t6.5 88t0.5 95v26v434h88v-979h-84v147q-90 -163 -330 -163q-190 0 -274 84q-30 30 -47.5 64t-24.5 85.5t-8.5 88.5t-1.5 118zM358 1366h111 l266 -264h-104z" />
<glyph unicode="&#xfa;" horiz-adv-x="1097" d="M156 424v17.5v15.5v522h88v-506v-24q0 -154 10 -218t53 -104q62 -59 207 -59q68 0 120.5 15t86.5 35t57.5 60.5t35 70.5t17.5 87t6.5 88t0.5 95v26v434h88v-979h-84v147q-90 -163 -330 -163q-190 0 -274 84q-30 30 -47.5 64t-24.5 85.5t-8.5 88.5t-1.5 118zM371 1102 l266 264h111l-273 -264h-104z" />
<glyph unicode="&#xfb;" horiz-adv-x="1097" d="M156 424v17.5v15.5v522h88v-506v-24q0 -154 10 -218t53 -104q62 -59 207 -59q68 0 120.5 15t86.5 35t57.5 60.5t35 70.5t17.5 87t6.5 88t0.5 95v26v434h88v-979h-84v147q-90 -163 -330 -163q-190 0 -274 84q-30 30 -47.5 64t-24.5 85.5t-8.5 88.5t-1.5 118zM236 1102 l272 264h84l270 -264h-104l-207 205l-209 -205h-106z" />
<glyph unicode="&#xfc;" horiz-adv-x="1097" d="M156 424v17.5v15.5v522h88v-506v-24q0 -154 10 -218t53 -104q62 -59 207 -59q68 0 120.5 15t86.5 35t57.5 60.5t35 70.5t17.5 87t6.5 88t0.5 95v26v434h88v-979h-84v147q-90 -163 -330 -163q-190 0 -274 84q-30 30 -47.5 64t-24.5 85.5t-8.5 88.5t-1.5 118zM262 1303 q0 34 15.5 48.5t50.5 14.5t51 -14.5t16 -48.5q0 -68 -67 -68q-66 0 -66 68zM700 1303q0 34 15.5 48.5t50.5 14.5t51.5 -14.5t16.5 -48.5q0 -68 -68 -68q-66 0 -66 68z" />
<glyph unicode="&#xfd;" horiz-adv-x="1097" d="M156 424v17.5v15.5v522h88v-506v-24q0 -154 10 -218t53 -104q62 -59 207 -59q68 0 120.5 15t86.5 35t57.5 60.5t35 70.5t17.5 87t6.5 88t0.5 95v26v434h88v-891q0 -115 -9 -181.5t-34 -121.5q-43 -93 -140 -137.5t-219 -44.5q-178 0 -269 67.5t-91 214.5h84 q0 -103 65 -151.5t205 -48.5q97 0 174 32t111 103q25 53 31 117.5t6 201.5q-91 -155 -328 -155q-190 0 -274 84q-30 30 -47.5 64t-24.5 85.5t-8.5 88.5t-1.5 118zM371 1102l266 264h111l-273 -264h-104z" />
<glyph unicode="&#xfe;" horiz-adv-x="1130" d="M172 -391v1818h88v-589q93 157 342 157q76 0 135 -13t100.5 -34t70.5 -57.5t46 -74.5t26 -95t12 -108t3 -124t-3 -124t-12 -107.5t-26 -94.5t-46 -74t-70.5 -57t-100.5 -33.5t-135 -12.5q-249 0 -342 157v-534h-88zM258 492q0 -241 77 -331.5t277 -90.5q47 0 85.5 7 t67.5 18.5t51 32t37 40t25.5 52t16 58t8.5 66.5t3.5 70.5t0.5 77.5q0 61 -1.5 98.5t-7.5 86.5t-17.5 79t-33 62.5t-52.5 50t-77 29t-106 11.5q-135 0 -210 -37.5t-109.5 -127t-34.5 -252.5z" />
<glyph unicode="&#xff;" horiz-adv-x="1097" d="M156 424v17.5v15.5v522h88v-506v-24q0 -154 10 -218t53 -104q62 -59 207 -59q68 0 120.5 15t86.5 35t57.5 60.5t35 70.5t17.5 87t6.5 88t0.5 95v26v434h88v-891q0 -115 -9 -181.5t-34 -121.5q-43 -93 -140 -137.5t-219 -44.5q-178 0 -269 67.5t-91 214.5h84 q0 -103 65 -151.5t205 -48.5q97 0 174 32t111 103q25 53 31 117.5t6 201.5q-91 -155 -328 -155q-190 0 -274 84q-30 30 -47.5 64t-24.5 85.5t-8.5 88.5t-1.5 118zM262 1303q0 34 15.5 48.5t50.5 14.5t51 -14.5t16 -48.5q0 -68 -67 -68q-66 0 -66 68zM700 1303 q0 34 15.5 48.5t50.5 14.5t51.5 -14.5t16.5 -48.5q0 -68 -68 -68q-66 0 -66 68z" />
<glyph unicode="&#x152;" horiz-adv-x="1875" d="M168 684q0 225 16.5 333t61.5 181q58 93 156.5 130.5t285.5 37.5h1016v-82h-668v-541h647v-81h-647v-580h668v-82h-1016q-187 0 -285.5 37.5t-156.5 130.5q-45 74 -61.5 182t-16.5 334zM258 684q0 -218 16 -321t56 -162q44 -66 123 -92.5t247 -26.5h248v1202h-250 q-166 0 -246 -26.5t-124 -92.5q-39 -60 -54.5 -161.5t-15.5 -319.5z" />
<glyph unicode="&#x153;" horiz-adv-x="1832" d="M135 489q0 55 1.5 95t6.5 86.5t14 80t24.5 69.5t37.5 60.5t53.5 48t72 37t93.5 21.5t117 8q310 0 373 -198q60 198 362 198q61 0 111.5 -7.5t89.5 -20t69.5 -34t52.5 -45.5t37 -59.5t24.5 -70t14.5 -82.5t7 -92t2 -103h-727q0 -50 1 -85.5t5 -75t11 -66.5t19 -56t29 -47 t41.5 -35.5t56 -27t72.5 -15t92 -5.5q60 0 107.5 7.5t94.5 27.5t73 62t26 103h82q0 -282 -385 -282q-311 0 -368 198q-16 -56 -56 -97t-94.5 -62t-109 -30t-113.5 -9q-91 0 -158.5 13.5t-113.5 44t-75.5 69.5t-45.5 99.5t-21.5 124t-5.5 152.5zM223 489q0 -59 1.5 -97.5 t6.5 -83.5t14.5 -73.5t26 -58.5t41 -47.5t58.5 -32.5t80 -21.5t104 -6.5q66 0 116 9.5t85 25.5t59.5 45.5t38.5 60t21.5 79t9.5 92t2 109.5q0 67 -2 111t-9.5 93t-21.5 79t-38 59.5t-59.5 45t-85.5 25t-116 9.5t-116.5 -9.5t-86 -25.5t-59.5 -45.5t-38 -59.5t-21 -79.5 t-9 -92.5t-2 -110zM971 561h641q0 96 -14.5 159t-50.5 108t-98.5 65t-158.5 20q-94 0 -156 -20.5t-98 -66t-50.5 -108.5t-14.5 -157z" />
<glyph unicode="&#x178;" horiz-adv-x="1067" d="M23 1366h100l414 -678l409 678h98l-469 -764v-602h-88v602zM248 1690q0 35 15.5 49t49.5 14q35 0 51.5 -14.5t16.5 -48.5q0 -68 -68 -68q-65 0 -65 68zM686 1690q0 34 15.5 48.5t50.5 14.5t51 -14.5t16 -48.5q0 -68 -67 -68q-66 0 -66 68z" />
<glyph unicode="&#x2c6;" horiz-adv-x="849" d="M113 1102l272 264h84l270 -264h-104l-207 205l-209 -205h-106z" />
<glyph unicode="&#x2dc;" horiz-adv-x="849" d="M43 1264q12 7 55 32t60.5 34t56.5 24t65 16.5t62.5 -4.5t71.5 -25q4 -2 34 -19t37.5 -20t33 -12.5t40 -9t37.5 4.5t45 15l125 66l37 -66l-109 -59q-62 -34 -127.5 -36.5t-122.5 28.5q-8 4 -41 23t-45.5 24t-39 12t-50.5 2t-51 -20l-133 -74z" />
<glyph unicode="&#x2000;" horiz-adv-x="888" />
<glyph unicode="&#x2001;" horiz-adv-x="1776" />
<glyph unicode="&#x2002;" horiz-adv-x="888" />
<glyph unicode="&#x2003;" horiz-adv-x="1776" />
<glyph unicode="&#x2004;" horiz-adv-x="592" />
<glyph unicode="&#x2005;" horiz-adv-x="444" />
<glyph unicode="&#x2006;" horiz-adv-x="296" />
<glyph unicode="&#x2007;" horiz-adv-x="296" />
<glyph unicode="&#x2008;" horiz-adv-x="222" />
<glyph unicode="&#x2009;" horiz-adv-x="355" />
<glyph unicode="&#x200a;" horiz-adv-x="98" />
<glyph unicode="&#x2010;" horiz-adv-x="983" d="M193 451v81h598v-81h-598z" />
<glyph unicode="&#x2011;" horiz-adv-x="983" d="M193 451v81h598v-81h-598z" />
<glyph unicode="&#x2012;" horiz-adv-x="983" d="M193 451v81h598v-81h-598z" />
<glyph unicode="&#x2013;" d="M63 451v81h1024v-81h-1024z" />
<glyph unicode="&#x2014;" horiz-adv-x="2048" d="M205 451v81h1638v-81h-1638z" />
<glyph unicode="&#x2018;" horiz-adv-x="425" d="M168 948v154q0 93 16.5 142.5t69.5 94.5l51 45l55 -55l-38 -37q-46 -42 -57 -79t-11 -111v-154h-86z" />
<glyph unicode="&#x2019;" horiz-adv-x="425" d="M66 985l38 37q46 42 57 79t11 111v154h86v-154q0 -93 -16.5 -142.5t-69.5 -94.5l-51 -45z" />
<glyph unicode="&#x201a;" horiz-adv-x="425" d="M66 -258q4 3 38 37q46 44 57 80.5t11 109.5v154h86v-154q0 -93 -16.5 -142.5t-69.5 -94.5l-51 -45z" />
<glyph unicode="&#x201c;" horiz-adv-x="757" d="M168 948v154q0 93 16.5 142.5t69.5 94.5l51 45l55 -55l-38 -37q-46 -42 -57 -79t-11 -111v-154h-86zM500 948v154q0 93 16.5 142.5t69.5 94.5l51 45l55 -55l-39 -37q-46 -42 -56.5 -79t-10.5 -111v-154h-86z" />
<glyph unicode="&#x201d;" horiz-adv-x="757" d="M66 985l38 37q46 42 57 79t11 111v154h86v-154q0 -93 -16.5 -142.5t-69.5 -94.5l-51 -45zM397 985l39 37q46 42 57 79t11 111v154h86v-154q0 -93 -16.5 -142.5t-69.5 -94.5l-51 -45z" />
<glyph unicode="&#x201e;" horiz-adv-x="757" d="M66 -258l38 37q46 42 57 79t11 111v154h86v-154q0 -93 -16.5 -142.5t-69.5 -94.5l-51 -45zM397 -258l39 37q46 42 57 79t11 111v154h86v-154q0 -93 -16.5 -142.5t-69.5 -94.5l-51 -45z" />
<glyph unicode="&#x2022;" horiz-adv-x="1024" d="M338 684q0 91 41 131.5t133 40.5t133 -40.5t41 -131.5t-41 -130.5t-133 -39.5t-133 39.5t-41 130.5z" />
<glyph unicode="&#x2026;" horiz-adv-x="2052" d="M270 55q0 70 70 70q72 0 72 -70h2q0 -69 -72 -69t-72 69zM954 55q0 70 70 70q72 0 72 -70h2q0 -69 -72 -69t-72 69zM1638 55q0 70 70 70q74 0 74 -70q0 -69 -72 -69t-72 69z" />
<glyph unicode="&#x202f;" horiz-adv-x="355" />
<glyph unicode="&#x2039;" horiz-adv-x="528" d="M109 485q0 27 8 57t17.5 54t32 57t34.5 51t43 52.5t41 45.5t44.5 46t37.5 39l57 -60q-3 -3 -37.5 -38t-45.5 -47t-41 -45.5t-43 -53.5t-31.5 -49.5t-25.5 -55.5t-7 -51t7 -51.5t24.5 -55t30.5 -48.5t41.5 -51.5t40.5 -44t45 -45t38 -37.5l-58 -58l-37.5 37.5l-44.5 44.5 t-40 43t-42.5 50.5t-33 48t-31 55.5t-16.5 52.5t-8 57.5z" />
<glyph unicode="&#x203a;" horiz-adv-x="528" d="M104 827l58 60q3 -4 37.5 -39t44.5 -46t41 -45.5t43 -52.5t34.5 -51t32 -57t17.5 -54t8 -57q0 -28 -8 -57.5t-17 -52.5t-30.5 -55t-33.5 -49t-42.5 -50t-40.5 -43.5t-44 -44t-38 -37.5l-57 58q5 5 38 37.5t45 45t40.5 44t41.5 51.5t30.5 48.5t24.5 55t7 51.5t-7.5 51 t-25.5 55t-31.5 50t-42.5 53.5t-42 46t-45.5 46.5t-37.5 38z" />
<glyph unicode="&#x205f;" horiz-adv-x="444" />
<glyph unicode="&#x20ac;" d="M123 530v80h106v148h-106v80h106q0 59 1.5 101.5t6 93t13 85.5t24 74t37 65.5t52.5 51.5t71 39.5t92.5 23t116.5 8.5q67 0 120 -7t104 -26.5t85.5 -51t55 -83t20.5 -120.5h-86q0 52 -17 90t-44 60t-68 35t-80 17t-90 4q-68 0 -120.5 -13.5t-87 -31.5t-57.5 -57t-35 -68 t-18 -88t-7 -94.5t-1 -107.5h373v-80h-373v-148h373v-80h-373q0 -181 13 -248q25 -131 124 -178q71 -34 189 -34q51 0 90.5 4t80.5 17t67.5 35t43.5 60t17 90h86q0 -69 -20 -120.5t-53.5 -83.5t-84.5 -51.5t-105 -27t-122 -7.5q-58 0 -106.5 6.5t-86.5 21t-68.5 32t-53 44 t-39 53t-27.5 64t-17.5 70.5t-10 79t-4.5 84t-1 90h-106z" />
<glyph unicode="&#x2122;" horiz-adv-x="1736" d="M33 1296v70h631v-70h-275v-819h-80v819h-276zM748 477v889h110l291 -805l295 805h108v-889h-73v776l-283 -776h-94l-279 776v-776h-75z" />
<glyph unicode="&#xe000;" horiz-adv-x="983" d="M0 0v983h983v-983h-983z" />
</font>
</defs>
</svg>
