<?xml version="1.0" standalone="no"?>
<!DOCTYPE svg PUBLIC "-//W3C//DTD SVG 1.1//EN" "http://www.w3.org/Graphics/SVG/1.1/DTD/svg11.dtd" >
<svg xmlns="http://www.w3.org/2000/svg">
<metadata></metadata>
<defs>
<font id="land_rover_ot4_mediummedium" horiz-adv-x="1112" >
<font-face units-per-em="2048" ascent="1434" descent="-614" />
<missing-glyph horiz-adv-x="485" />
<glyph unicode="&#xfb01;" horiz-adv-x="1122" d="M45 842v149h160v144q0 83 22.5 142.5t54.5 90.5t83.5 48.5t91 21.5t96.5 4h78v-150h-74q-41 0 -70.5 -5t-49.5 -17.5t-31.5 -27t-17.5 -41t-7.5 -51t-1.5 -63.5v-96h252v-149h-252v-842h-174v842h-160zM788 1278q0 56 32.5 79t70.5 23q39 0 70.5 -23t31.5 -79t-32 -79 t-70 -23t-70.5 23t-32.5 79zM805 0v991h174v-991h-174z" />
<glyph unicode="&#xfb02;" horiz-adv-x="1157" d="M45 842v149h160v144q0 83 22.5 142.5t54.5 90.5t83.5 48.5t91 21.5t96.5 4h78v-150h-74q-41 0 -70.5 -5t-49.5 -17.5t-31.5 -27t-17.5 -41t-7.5 -51t-1.5 -63.5v-96h252v-149h-252v-842h-174v842h-160zM805 283v1144h174v-1083q0 -37 0.5 -59t3.5 -47t8.5 -38t15.5 -27 t25 -20t35.5 -10t48.5 -4h41v-149h-47q-57 0 -97.5 5t-82.5 22.5t-67.5 49t-41.5 86t-16 130.5z" />
<glyph unicode="&#xfb03;" horiz-adv-x="1722" d="M45 842v149h160v144q0 83 22.5 142.5t54.5 90.5t83.5 48.5t91 21.5t96.5 4h78v-150h-74q-41 0 -70.5 -5t-49.5 -17.5t-31.5 -27t-17.5 -41t-7.5 -51t-1.5 -63.5v-96h426v144q0 83 22.5 142.5t54.5 90.5t83.5 48.5t91 21.5t96.5 4h78v-150h-74q-41 0 -70.5 -5t-49.5 -17.5 t-31.5 -27t-17.5 -41t-7.5 -51t-1.5 -63.5v-96h252v-149h-252v-842h-174v842h-426v-842h-174v842h-160zM1389 1278q0 56 32 79t70 23q39 0 70.5 -23t31.5 -79t-32 -79t-70 -23t-70 23t-32 79zM1405 0v991h174v-991h-174z" />
<glyph unicode="&#xfb04;" horiz-adv-x="1757" d="M45 842v149h160v144q0 83 22.5 142.5t54.5 90.5t83.5 48.5t91 21.5t96.5 4h78v-150h-74q-41 0 -70.5 -5t-49.5 -17.5t-31.5 -27t-17.5 -41t-7.5 -51t-1.5 -63.5v-96h426v144q0 83 22.5 142.5t54.5 90.5t83.5 48.5t91 21.5t96.5 4h78v-150h-74q-41 0 -70.5 -5t-49.5 -17.5 t-31.5 -27t-17.5 -41t-7.5 -51t-1.5 -63.5v-96h252v-149h-252v-842h-174v842h-426v-842h-174v842h-160zM1405 283v1144h174v-1083q0 -37 0.5 -59t3.5 -47t8.5 -38t15.5 -27t25 -20t35.5 -10t48.5 -4h41v-149h-47q-57 0 -97.5 5t-82.5 22.5t-67.5 49t-41.5 86t-16 130.5z" />
<glyph horiz-adv-x="0" />
<glyph unicode="&#xd;" horiz-adv-x="2048" />
<glyph unicode=" "  horiz-adv-x="485" />
<glyph unicode="&#x09;" horiz-adv-x="485" />
<glyph unicode="&#xa0;" horiz-adv-x="485" />
<glyph unicode="!" horiz-adv-x="591" d="M184 94q0 55 28 85t83 30t84 -30t29 -85q0 -110 -113 -110q-111 0 -111 110zM211 389v977h170v-977h-170z" />
<glyph unicode="&#x22;" horiz-adv-x="931" d="M217 922v444h162v-444h-162zM555 922v444h162v-444h-162z" />
<glyph unicode="#" horiz-adv-x="1191" d="M37 449v149h250l59 225h-207v150h250l121 448h164l-123 -448h233l121 448h154l-113 -448h211v-150h-252l-59 -225h209v-149h-250l-121 -449h-162l121 449h-233l-121 -449h-162l121 449h-211zM453 598h229l59 225h-231z" />
<glyph unicode="$" horiz-adv-x="1159" d="M131 311h174q0 -80 42 -115t149 -36v473q-72 8 -124 21.5t-97.5 39.5t-73.5 65.5t-44 98.5t-16 139q0 186 90 272t265 97v195h157v-195q179 -8 269 -78t90 -233h-174q0 84 -40 119t-145 36v-424q86 -8 143 -21.5t104 -39.5t73 -68t39.5 -105t13.5 -153 q0 -198 -90.5 -292.5t-282.5 -106.5v-203h-157v203q-179 8 -272 78.5t-93 232.5zM311 987q0 -109 39.5 -145.5t145.5 -44.5v413q-101 -2 -143 -52t-42 -171zM653 160q109 3 156 60t47 188q0 68 -8 106.5t-33.5 62t-60.5 32t-101 14.5v-463z" />
<glyph unicode="%" horiz-adv-x="1798" d="M135 889v67v68q0 46 1.5 78t8 72t18 67t32.5 55t50.5 44.5t73 27t99.5 10.5t100.5 -10.5t74 -27.5t50.5 -45.5t32.5 -55t17.5 -67t7.5 -71.5t1.5 -77v-68v-32q0 -58 -0.5 -86.5t-5.5 -77.5t-15.5 -75t-31 -59.5t-50 -50t-75.5 -28.5t-106 -12q-56 0 -100 10.5t-73.5 27 t-50.5 45t-32 55.5t-17.5 67t-8 71.5t-1.5 77.5zM266 956q0 -192 17 -241q13 -33 43 -49.5t92 -16.5q66 0 97 18.5t42 55.5q14 41 14 233q0 201 -16 242q-13 31 -43.5 47.5t-93.5 16.5q-65 0 -95 -18.5t-42 -53.5q-15 -46 -15 -234zM483 0l688 1366h144l-692 -1366h-140z M1094 342v68v67q0 46 1.5 78t8 72t18 67t32 55t50 44.5t73 27t99.5 10.5t100.5 -10.5t74 -27.5t51 -45.5t32.5 -55.5t17.5 -67t8 -71.5t1.5 -76.5v-67q0 -157 -8 -209q-20 -138 -120 -185q-61 -28 -157 -28q-56 0 -100 10.5t-73.5 27t-50 45t-32 55t-17.5 67t-7.5 72 t-1.5 77.5zM1225 410q0 -196 16 -242q13 -33 43 -49.5t92 -16.5q66 0 97.5 18.5t42.5 55.5q14 41 14 234q0 197 -17 241q-13 31 -43.5 47.5t-93.5 16.5q-65 0 -95 -18.5t-42 -53.5q-14 -43 -14 -233z" />
<glyph unicode="&#x26;" horiz-adv-x="1249" d="M125 387q0 132 35 213.5t123 116.5q-86 36 -116 109.5t-30 193.5q0 200 100 280t328 80q80 0 142.5 -9t118 -32t92 -59.5t57 -93.5t20.5 -133h-174q0 95 -57 131.5t-197 36.5q-108 0 -162.5 -20.5t-74 -64.5t-19.5 -130q0 -65 14 -105.5t48 -62.5t78 -29.5t116 -7.5h330 v106h172v-106h121v-164h-121v-174q0 -265 -104 -372t-369 -107q-122 0 -204.5 17.5t-145 61.5t-92 124t-29.5 200zM299 385q0 -76 17.5 -124t57.5 -74t91 -35t131 -9q97 0 154.5 15t91 54.5t44.5 96.5t11 154v174h-330q-161 0 -214.5 -48.5t-53.5 -203.5z" />
<glyph unicode="'" horiz-adv-x="595" d="M217 922v444h162v-444h-162z" />
<glyph unicode="(" horiz-adv-x="636" d="M59 627q0 572 64 780q40 135 146 189.5t309 54.5v-154q-122 0 -188.5 -29t-96.5 -104q-31 -80 -47.5 -301t-16.5 -434t16.5 -432.5t47.5 -300.5q30 -75 96 -103.5t189 -28.5v-155q-202 0 -308.5 55.5t-146.5 190.5q-64 208 -64 772z" />
<glyph unicode=")" horiz-adv-x="636" d="M59 -236q123 0 189 28.5t96 103.5q31 81 47.5 300.5t16.5 432.5t-16.5 434t-47.5 301q-30 75 -96.5 104t-188.5 29v154q203 0 309 -54.5t146 -189.5q64 -208 64 -780q0 -564 -64 -772q-40 -135 -146.5 -190.5t-308.5 -55.5v155z" />
<glyph unicode="*" horiz-adv-x="1079" d="M37 969l49 137l377 -115v375h151v-375l379 115l49 -137l-380 -117l231 -301l-121 -84l-233 301l-232 -301l-123 84l234 301z" />
<glyph unicode="+" horiz-adv-x="1191" d="M78 418v157h438v416h158v-416h440v-157h-440v-418h-158v418h-438z" />
<glyph unicode="," horiz-adv-x="454" d="M39 -205q6 5 16 15q67 62 84 94.5t17 113.5v191h161v-191q0 -91 -19 -147t-75 -109l-76 -71z" />
<glyph unicode="-" horiz-adv-x="1034" d="M152 418v157h731v-157h-731z" />
<glyph unicode="." horiz-adv-x="454" d="M115 98q0 111 112 111q111 0 111 -111q0 -55 -28 -84.5t-83 -29.5t-83.5 29.5t-28.5 84.5z" />
<glyph unicode="/" horiz-adv-x="1007" d="M-25 -201l887 1778h170l-887 -1778h-170z" />
<glyph unicode="0" horiz-adv-x="1159" d="M123 528.5q-1 49.5 0 100.5v53q0 227 6 295q19 208 117 301q108 102 334 102q68 0 124.5 -9t99.5 -25.5t77 -40.5t58 -54t41.5 -65.5t27.5 -76t17 -84.5t8.5 -91.5t2.5 -97t0 -100.5v-54v-54v-112.5t-4 -104.5t-11.5 -102t-23 -88t-38 -81.5t-57 -63t-79.5 -51.5 t-106.5 -29t-136.5 -12q-68 0 -124.5 9t-99.5 25.5t-77.5 40.5t-58 54.5t-41.5 66t-28 76t-17 85t-8.5 91.5t-2.5 96.5zM299 682q0 -126 1.5 -181t9 -133.5t24.5 -107.5t48.5 -63.5t79 -44t118.5 -9.5q42 0 75.5 3.5t61 15t47.5 21t35.5 35.5t25.5 43t17 58.5t10.5 67 t5 84.5t2 94.5t0.5 112.5v4v4q0 77 -0.5 112.5t-2 94.5t-5 84.5t-10.5 67t-17 58.5t-25.5 43t-35.5 35.5t-47.5 21t-61 15t-75.5 3.5q-71 0 -118.5 -9.5t-79 -44t-48.5 -63.5t-24.5 -107.5t-9 -133.5t-1.5 -181z" />
<glyph unicode="1" horiz-adv-x="964" d="M82 1040l367 326h159v-1366h-174v1145l-239 -223z" />
<glyph unicode="2" horiz-adv-x="1132" d="M133 0v324q0 56 11 102.5t26.5 79t46 60.5t55.5 44.5t69.5 34.5t74.5 27.5t84 25t84 25.5q122 39 163 65q77 49 87 154q2 18 2 39q0 136 -55 188t-210 52q-144 0 -202 -35.5t-58 -130.5h-174q0 94 30.5 159t90 100.5t134 50.5t175.5 15q221 0 330 -84q115 -88 115 -315 q0 -83 -22.5 -147t-48.5 -101.5t-90.5 -74t-101.5 -50.5t-128 -45q-7 -3 -11 -4q-29 -10 -69 -23l-60 -19.5t-48.5 -17.5t-41.5 -19.5t-30 -22.5t-24.5 -28.5t-15 -36t-10 -47.5t-2.5 -60v-127h701v-158h-877z" />
<glyph unicode="3" horiz-adv-x="1134" d="M113 1055q0 94 32 159t94.5 100.5t139.5 50.5t180 15q234 0 337 -81.5t103 -288.5q0 -112 -27 -184t-110 -111q49 -19 80 -50t45.5 -75.5t19.5 -86t5 -102.5q0 -119 -29 -200.5t-89 -129t-140.5 -67.5t-194.5 -20q-77 0 -138.5 8t-119.5 29.5t-96.5 57.5t-62 94.5 t-23.5 137.5h176q0 -92 60.5 -130t205.5 -38q148 0 212.5 51t64.5 193q0 55 -4 91.5t-16.5 65t-30 44t-51.5 25.5t-74 13t-103 3h-199v159h199q76 0 121 7.5t80.5 30t50 66t14.5 114.5q0 128 -52.5 171.5t-213.5 43.5q-146 0 -208 -37.5t-62 -128.5h-176z" />
<glyph unicode="4" horiz-adv-x="1146" d="M90 369v149l600 848h166v-840h199v-157h-199v-369h-172v369h-594zM287 526h397v576z" />
<glyph unicode="5" horiz-adv-x="1163" d="M147 311h170q0 -95 56 -131.5t196 -36.5q164 0 223.5 58t59.5 221q0 70 -4.5 113.5t-19 84t-42.5 62.5t-74.5 34.5t-115.5 12.5q-262 0 -262 -160h-168v797h817v-160h-649v-399q35 38 107.5 60t158.5 22q124 0 206.5 -26t131 -84.5t68.5 -141.5t20 -207 q0 -243 -106.5 -344.5t-350.5 -101.5q-98 0 -171 15.5t-131.5 51t-89 101t-30.5 159.5z" />
<glyph unicode="6" horiz-adv-x="1157" d="M123 625q0 321 27 465q29 151 138.5 220.5t299.5 69.5q409 0 409 -325h-172q0 89 -55.5 127.5t-179.5 38.5q-55 0 -92 -5.5t-71.5 -22t-55.5 -46t-37.5 -79t-23.5 -120.5t-9 -170q107 111 289 111q232 0 332 -104.5t100 -352.5q0 -228 -107 -338t-333 -110 q-153 0 -262 60t-152 177q-45 119 -45 404zM307 440q0 -161 64.5 -229t208.5 -68q150 0 209 62.5t59 224.5q0 176 -53 237.5t-195 61.5q-151 0 -222 -70.5t-71 -218.5z" />
<glyph unicode="7" horiz-adv-x="962" d="M39 1206v160h885v-152l-598 -1214h-193l600 1206h-694z" />
<glyph unicode="8" horiz-adv-x="1153" d="M123 379q0 133 34.5 214t123.5 116q-86 36 -116 111.5t-30 199.5q0 199 104 279.5t339 80.5q234 0 337 -80t103 -280q0 -124 -30 -199t-116 -112q89 -35 123.5 -116t34.5 -214q0 -115 -29 -192.5t-89.5 -121.5t-140 -62.5t-193.5 -18.5t-194 18.5t-141 62t-90.5 121.5 t-29.5 193zM299 385q0 -76 15 -123.5t51 -73.5t85 -35.5t128 -9.5q78 0 127 9.5t84.5 36t50 74t14.5 122.5q0 78 -15.5 126t-52.5 73.5t-84 34t-124 8.5q-82 0 -130.5 -8.5t-84.5 -34.5t-50 -73.5t-14 -125.5zM309 1001q0 -55 10 -93t29 -62t53 -37t74 -18t100 -5 q76 0 122 8t81 30.5t49.5 65t14.5 111.5q0 70 -15 113.5t-50.5 67t-81.5 31.5t-120 8t-120 -8t-81 -31.5t-50 -67t-15 -113.5z" />
<glyph unicode="9" horiz-adv-x="1155" d="M133 932q0 228 107 338t333 110q153 0 262 -60t152 -177q45 -119 45 -404q0 -326 -26 -465q-29 -151 -139 -220.5t-300 -69.5q-409 0 -409 325h172q0 -89 55.5 -127.5t179.5 -38.5q55 0 92 5.5t71.5 22t55.5 46t37.5 79t23.5 120.5t9 170q-107 -111 -289 -111 q-232 0 -332 104.5t-100 352.5zM307 934q0 -176 53 -237.5t195 -61.5q151 0 222 70.5t71 218.5q0 161 -64.5 229t-208.5 68q-150 0 -209 -62.5t-59 -224.5z" />
<glyph unicode=":" horiz-adv-x="456" d="M117 98q0 111 112 111q111 0 111 -111q0 -55 -28 -84.5t-83 -29.5t-83.5 29.5t-28.5 84.5zM117 897q0 111 112 111q111 0 111 -111q0 -55 -28 -85t-83 -30t-83.5 30t-28.5 85z" />
<glyph unicode=";" horiz-adv-x="454" d="M25 -205q5 5 14 13q64 60 79 86q23 38 23 124v191h162v-191q0 -91 -19 -147t-75 -109l-76 -71zM115 897q0 111 112 111q111 0 111 -111q0 -55 -28 -85t-83 -30t-83.5 30t-28.5 85z" />
<glyph unicode="&#x3c;" horiz-adv-x="1193" d="M68 420v153l997 418l61 -153l-833 -340l833 -344l-59 -154z" />
<glyph unicode="=" horiz-adv-x="1191" d="M78 231v158h1036v-158h-1036zM78 610v158h1036v-158h-1036z" />
<glyph unicode="&#x3e;" horiz-adv-x="1193" d="M68 154l833 344l-833 340l61 153l997 -418v-153l-999 -420z" />
<glyph unicode="?" horiz-adv-x="905" d="M47 1055q0 196 102 276t302 80q208 0 308.5 -86t100.5 -291q0 -126 -48 -205t-150 -131q-93 -48 -112 -63q-35 -29 -41 -88q-3 -26 -3 -72v-86h-176v119q0 84 19.5 143.5t51.5 90.5t70 52t76 38t70 38.5t51.5 62t19.5 101.5q0 120 -49 169.5t-184 49.5q-134 0 -186 -45 t-52 -153h-170zM307 94q0 55 28 85t83 30t83.5 -30t28.5 -85q0 -110 -112 -110q-111 0 -111 110z" />
<glyph unicode="@" horiz-adv-x="1572" d="M147 645q0 106 4.5 185t17.5 154t34.5 128t56 100t82 76.5t112.5 51t147 31t187 9.5q129 0 219 -9.5t165 -35.5t120.5 -68t76.5 -111t43.5 -160t12.5 -220q0 -68 -2.5 -116.5t-11.5 -122t-32 -131t-60 -91.5q-57 -54 -127 -71t-182 -15v74q-92 -86 -248 -86 q-65 0 -116.5 11.5t-87 30t-61 50t-40 63.5t-22.5 78.5t-10.5 87.5t-2.5 97q0 57 2 97.5t10 87.5t22.5 79.5t39.5 64.5t60 51t86.5 30.5t117.5 11.5q157 0 248 -88v73h120v-692q58 0 95 43q75 89 75 400q0 101 -10 172.5t-35.5 124t-61 84t-96 50t-130 25t-172.5 6.5 q-72 0 -130.5 -5t-106 -17t-84 -27t-65 -41t-48.5 -52t-34 -67.5t-22.5 -79.5t-13 -95.5t-6.5 -109t-2 -126.5q0 -103 1.5 -163.5t8.5 -134.5t21 -114t39.5 -86t63 -69t92.5 -44t127 -28.5t167 -7.5q66 0 113.5 2.5t104.5 12.5t98.5 28t80 50.5t64.5 78.5l108 -62 q-28 -53 -68 -93.5t-89.5 -65t-98 -41t-109.5 -23.5t-107 -9.5t-107 -2.5q-127 0 -222.5 16t-164.5 42.5t-115.5 78.5t-75 107t-43 145.5t-19 176.5t-4.5 216zM555 635q0 -56 1.5 -89.5t8 -72t19.5 -59.5t35 -40t56 -26.5t81 -7.5q141 0 196.5 62.5t55.5 232.5 q0 171 -56.5 234t-197.5 63q-39 0 -69.5 -7t-51.5 -18t-35.5 -32.5t-23 -42.5t-13 -55.5t-5.5 -65t-1 -76.5z" />
<glyph unicode="A" horiz-adv-x="1286" d="M25 0l528 1366h182l527 -1366h-199l-139 377h-572l-137 -377h-190zM412 535h454l-227 612z" />
<glyph unicode="B" horiz-adv-x="1333" d="M172 0v1366h473h42q73 0 109.5 -0.5t98 -6.5t94 -18.5t74.5 -37.5t62.5 -61t35.5 -92t15 -128q0 -258 -138 -317q85 -38 116.5 -116t31.5 -196q0 -82 -16.5 -145.5t-38.5 -105t-66.5 -69.5t-78 -42.5t-97.5 -21.5t-100 -8t-109 -1h-23h-485zM352 164h289h52h78.5t68 4 t57.5 12t46.5 24t34.5 40t21 60.5t7 84.5q0 38 -4 68.5t-11.5 53.5t-19.5 40t-28 28.5t-35.5 19t-43.5 11.5t-52.5 6t-61 2h-68.5h-14h-12.5h-14.5h-289v-454zM352 782h293h56q39 -1 73.5 -1t64 4t54 11.5t43.5 22.5t32 38t20 57t7 79q0 35 -4 62.5t-12 48.5t-20 36.5 t-28 26.5t-36 17.5t-44 10.5t-52 5.5t-60 1.5h-68h-40h-279v-420z" />
<glyph unicode="C" horiz-adv-x="1325" d="M147 684q0 112 2 170t12 145.5t31 132.5t61 101t99.5 82.5t148 45.5t204.5 19q250 0 370.5 -86t120.5 -297h-176q0 85 -28.5 130t-100 66t-205.5 21q-65 0 -114 -6t-86.5 -23t-63 -35t-43 -56t-27.5 -71t-15 -94t-6 -111t-1 -136q0 -99 2 -154t8.5 -121t21.5 -99 t39.5 -69t63.5 -51.5t93 -25.5t128 -10q198 0 266 44.5t68 170.5h176q0 -211 -122 -297t-372 -86q-116 0 -204.5 19.5t-147.5 45.5t-98.5 83.5t-60 102t-31 133.5t-12 146t-1.5 170z" />
<glyph unicode="D" horiz-adv-x="1374" d="M172 0v1366h492q194 0 302.5 -39t174.5 -139q50 -75 68 -183t18 -323q0 -217 -17 -323t-67 -181q-66 -100 -174.5 -139t-304.5 -39h-492zM352 166h299q146 0 216.5 19.5t109.5 74.5q36 52 51.5 146t15.5 276t-15.5 276t-51.5 146q-39 56 -110 76t-216 20h-299v-1034z" />
<glyph unicode="E" horiz-adv-x="1214" d="M172 0v1366h897v-164h-715v-420h695v-164h-695v-454h715v-164h-897z" />
<glyph unicode="F" horiz-adv-x="1167" d="M172 0v1366h877v-164h-697v-420h678v-164h-678v-618h-180z" />
<glyph unicode="G" horiz-adv-x="1376" d="M147 682q0 114 1.5 171.5t12 146.5t31.5 133.5t61 101t99.5 82t148.5 44.5t206 19q97 0 173 -11.5t140.5 -38.5t107 -70.5t66 -109.5t23.5 -153h-181q0 122 -76 168.5t-272 46.5q-54 0 -97 -4t-77.5 -16.5t-60.5 -22.5t-45.5 -36.5t-33 -43.5t-22 -57.5t-13 -65.5 t-6.5 -80.5t-2.5 -88.5t-0.5 -103v-12q0 -69 0.5 -106t2.5 -91.5t7 -82t13.5 -67.5t21.5 -59t32 -44.5t44.5 -36.5t59 -23t75.5 -16t94 -4q76 0 131 9t94.5 21.5t64 43.5t39.5 58t21.5 84t8 101.5t1.5 128.5h-352v160h529v-271q0 -67 -4.5 -118t-18.5 -106t-37.5 -94.5 t-64.5 -76t-97 -59t-136 -36t-181 -13.5q-107 0 -188.5 17t-138 43t-95 77t-60 99.5t-32.5 131t-14 151.5t-3 179z" />
<glyph unicode="H" horiz-adv-x="1345" d="M172 0v1366h182v-584h639v584h181v-1366h-181v618h-639v-618h-182z" />
<glyph unicode="I" horiz-adv-x="526" d="M172 0v1366h182v-1366h-182z" />
<glyph unicode="J" horiz-adv-x="1099" d="M70 367h174q0 -68 15 -111t50 -66t80.5 -31.5t116.5 -8.5q46 0 81 3.5t61.5 13.5t44.5 20.5t30.5 31t19.5 38t10 49.5t4 57.5t1 68.5v934h182v-930q0 -125 -8 -174q-13 -81 -52.5 -137.5t-99.5 -86t-126 -42t-148 -12.5q-106 0 -183 18.5t-135.5 61.5t-88 118.5 t-29.5 184.5z" />
<glyph unicode="K" horiz-adv-x="1243" d="M172 0v1366h180v-590l629 590h248l-740 -680l744 -686h-270l-609 584v-584h-182z" />
<glyph unicode="L" horiz-adv-x="1064" d="M172 0v1366h182v-1202h695v-164h-877z" />
<glyph unicode="M" horiz-adv-x="1687" d="M172 0v1366h236l438 -1139l434 1139h236v-1366h-175v1092l-411 -1092h-174l-412 1092v-1092h-172z" />
<glyph unicode="N" horiz-adv-x="1341" d="M172 0v1366h190l631 -1059v1059h176v-1366h-192l-629 1065v-1065h-176z" />
<glyph unicode="O" horiz-adv-x="1380" d="M147 684v4q0 114 1.5 169t11 144.5t29.5 132.5t59 100t96.5 82.5t143.5 44.5t200 19t201 -19t145 -44.5t96.5 -82t59 -100t30.5 -132.5t11.5 -145.5t1.5 -170.5q0 -86 -1 -137t-6.5 -122t-15.5 -113t-29 -95t-46.5 -83.5t-68 -63.5t-94 -49.5t-124.5 -27.5t-158 -11 q-114 0 -201 19.5t-144.5 45.5t-96 84t-58.5 101.5t-30 134t-11.5 145.5t-1.5 170zM328 682q0 -195 12.5 -283t46.5 -141q35 -57 105 -81.5t198 -24.5q126 0 195 24.5t106 81.5q34 53 47 142.5t13 283.5t-13 282.5t-47 141.5q-37 57 -106.5 81.5t-196.5 24.5t-197.5 -25.5 t-105.5 -82.5q-34 -52 -45.5 -139.5t-11.5 -284.5z" />
<glyph unicode="P" horiz-adv-x="1259" d="M172 0v1366h465q82 0 129 -1.5t112.5 -9t102 -22.5t79 -43t64 -69t36 -102.5t14.5 -141.5q0 -81 -14.5 -143t-36 -104t-63.5 -71t-79 -44.5t-101.5 -23.5t-113 -9.5t-129.5 -1.5h-283v-580h-182zM354 743h279q11 -1 47 -1h31h20q15 0 45.5 2t48 4.5t39 8t37.5 13.5 q92 47 92 203t-92 203q-19 9 -41.5 15t-56.5 8.5t-51 2.5h-24h-40h-55h-279v-459z" />
<glyph unicode="Q" horiz-adv-x="1380" d="M147 684v4q0 114 1.5 169t11 144.5t29.5 132.5t59 100t96.5 82.5t143.5 44.5t200 19t201 -19t145 -44.5t96.5 -82t59 -100t30.5 -132.5t11.5 -145.5t1.5 -170.5q0 -170 -9.5 -279.5t-41.5 -183.5l153 -104l-96 -133l-152 104q-118 -106 -397 -106q-114 0 -201 19.5 t-144.5 45.5t-96 84t-58.5 101.5t-30 134t-11.5 145.5t-1.5 170zM328 682q0 -195 12.5 -283t46.5 -141q35 -57 105 -81.5t198 -24.5q171 0 246 47l-184 127l96 133l176 -125q27 69 27 350q0 194 -13 282.5t-47 141.5q-37 57 -106.5 81.5t-196.5 24.5t-197.5 -25.5 t-105.5 -82.5q-34 -52 -45.5 -139.5t-11.5 -284.5z" />
<glyph unicode="R" horiz-adv-x="1339" d="M172 0v1366h463q80 0 128 -1.5t112.5 -9.5t102.5 -23.5t80 -44t64 -70.5t37 -103.5t15 -142.5q0 -355 -334 -375l399 -596h-217l-260 395q-28 42 -40.5 61.5t-32.5 45.5t-27 34.5t-26 21t-27 15t-32 6t-39.5 3.5h-50.5h-133v-582h-182zM354 748h336q44 0 68 0.5t57.5 2.5 t50.5 6t40 11.5t34 19t24 27.5t18 38.5t9 51t4 64.5q0 69 -16.5 114t-37 69t-70.5 35.5t-86 13t-114 1.5h-18h-299v-454z" />
<glyph unicode="S" horiz-adv-x="1327" d="M131 367h180q0 -125 75 -171t280 -46q140 0 217.5 27.5t107 81t29.5 147.5q0 40 -6.5 70.5t-16 51t-29.5 35t-36.5 22t-48 12.5t-53.5 6.5t-64 3.5q-15 1 -23 1q-32 1 -85.5 2t-88 2t-84 4.5t-82 9.5t-73 19t-67 30.5t-54 45.5t-43 64t-25.5 85t-10 109q0 223 124 312 t402 89q133 0 228 -18.5t165.5 -62t105 -118.5t34.5 -184h-176q0 59 -17.5 99.5t-45 63.5t-78 35.5t-98 15.5t-122.5 3q-88 0 -146.5 -8t-97.5 -23t-59.5 -44.5t-28.5 -65.5t-8 -92q0 -38 7 -67.5t17 -49t31 -33.5t38 -21.5t49 -12.5t53 -7t61 -3q14 -1 21 -1q33 -2 85 -3 t87.5 -1.5t83.5 -4t82 -9.5t74 -18.5t67.5 -30t54.5 -45.5t43.5 -63.5t26.5 -85t10 -109.5q0 -223 -132.5 -327.5t-409.5 -104.5q-133 0 -227.5 18.5t-164.5 62t-104.5 118.5t-34.5 184z" />
<glyph unicode="T" horiz-adv-x="1107" d="M37 1204v162h1034v-162h-426v-1204h-182v1204h-426z" />
<glyph unicode="U" horiz-adv-x="1335" d="M160 686v680h182v-680v-79.5v-76.5t0.5 -63t3 -62t6 -48t9.5 -48.5t14 -36.5q30 -62 100 -92t193 -30q125 0 195 29.5t100 90.5q8 17 14 36.5t9.5 47t5.5 49t2 61.5q2 40 2 64v31v46q0 53 -1 81v680h181v-680q0 -216 -5 -299q-6 -97 -32 -166q-94 -237 -471 -237 t-471 237q-27 72 -33 166q-4 66 -4 299z" />
<glyph unicode="V" horiz-adv-x="1214" d="M8 1366h193l407 -1122l408 1122h190l-514 -1366h-176z" />
<glyph unicode="W" horiz-adv-x="1810" d="M74 1366h184l256 -1094l297 1094h193l294 -1094l261 1094h178l-334 -1366h-193l-305 1116l-303 -1116h-201z" />
<glyph unicode="X" horiz-adv-x="1208" d="M49 0l449 696l-437 670h207l338 -537l336 537h207l-438 -670l448 -696h-207l-350 559l-348 -559h-205z" />
<glyph unicode="Y" horiz-adv-x="1163" d="M4 1366h209l373 -604l368 604h205l-485 -770v-596h-182v596z" />
<glyph unicode="Z" horiz-adv-x="1249" d="M125 0v160l782 1044h-782v162h999v-160l-784 -1042h784v-164h-999z" />
<glyph unicode="[" horiz-adv-x="636" d="M104 -391v2042h474v-154h-304v-1733h304v-155h-474z" />
<glyph unicode="\" horiz-adv-x="1007" d="M-25 1577h170l887 -1778h-170z" />
<glyph unicode="]" horiz-adv-x="636" d="M59 -236h303v1733h-303v154h473v-2042h-473v155z" />
<glyph unicode="^" horiz-adv-x="1193" d="M74 442l448 942h146l452 -944l-157 -61l-371 795l-363 -795z" />
<glyph unicode="_" horiz-adv-x="1071" d="M0 -236h1071v-161h-1071v161z" />
<glyph unicode="`" horiz-adv-x="874" d="M203 1366h196l273 -258h-197z" />
<glyph unicode="a" horiz-adv-x="1103" d="M96 293q0 82 23 140.5t58.5 92t92.5 52.5t110 24.5t126 5.5h293q0 113 -11 150q-20 62 -95 82q-53 14 -144 14q-36 0 -60 -1t-57 -5.5t-55 -14.5t-42.5 -25.5t-31 -41t-10.5 -59.5h-168q0 88 33 149t95.5 93.5t137 45.5t172.5 13q85 0 151 -14t108.5 -33.5t72.5 -55 t44.5 -63.5t22 -75.5t8.5 -73.5t1 -74v-11v-608h-160v96q-45 -53 -130.5 -82.5t-199.5 -29.5q-192 0 -288.5 72t-96.5 237zM272 295q0 -86 49.5 -124t176.5 -38q70 0 120 8.5t83.5 28.5t53.5 44t30 65.5t13 80.5t3 101h-303q-124 0 -175 -33t-51 -133z" />
<glyph unicode="b" horiz-adv-x="1140" d="M143 0v1427h174v-528q96 109 314 109q75 0 134 -13t100.5 -35.5t71 -59.5t47 -77t28 -96t13.5 -109t3 -124q0 -65 -2.5 -110.5t-12 -102.5t-26 -96.5t-47.5 -80t-74.5 -65t-107.5 -40t-146 -15.5q-208 0 -309 112v-96h-160zM315 496q0 -141 27.5 -216.5t89.5 -106 t178 -30.5q62 0 105 14t70 39.5t41.5 70.5t20 98t5.5 131t-5.5 130.5t-20 97t-42 69t-70 38t-104.5 13.5q-88 0 -142 -15t-89.5 -55t-49.5 -105.5t-14 -172.5z" />
<glyph unicode="c" horiz-adv-x="1071" d="M113 498q0 70 3.5 121.5t14.5 108t30.5 95.5t52.5 76.5t79.5 59.5t113 35.5t150.5 13.5q412 0 412 -306h-166q0 39 -15.5 67.5t-37.5 44t-57.5 24t-64 10.5t-67.5 2q-47 0 -84 -4.5t-65 -16.5t-48 -26t-33.5 -38t-22 -48t-12.5 -61.5t-5.5 -72t-1.5 -85.5q0 -59 2 -97.5 t8 -79.5t17.5 -66.5t31.5 -49.5t49 -36.5t69.5 -20t94.5 -7.5q39 0 67.5 2t64 10.5t57.5 24t37.5 44t15.5 67.5h166q0 -305 -412 -305q-84 0 -150.5 13.5t-113 36t-79.5 60.5t-52.5 77.5t-30.5 96t-14.5 108.5t-3.5 122z" />
<glyph unicode="d" horiz-adv-x="1140" d="M113 496q0 68 3 119.5t13.5 107t28 96t47 78t71 60.5t100.5 37t134 14q217 0 313 -109v528h174v-1427h-161v100q-102 -116 -316 -116q-63 0 -115.5 9t-91.5 24t-69.5 40t-51.5 51t-36 64t-23 71t-13 80t-6 84t-1 89zM289 494q0 -99 8.5 -159t34 -106.5t73.5 -66 t125 -19.5q88 0 142 15t89.5 55.5t49.5 107t14 173.5t-14 173.5t-50 106.5t-89.5 55t-141.5 15q-62 0 -104.5 -13.5t-69.5 -38.5t-42 -70t-20 -97t-5 -131z" />
<glyph unicode="e" horiz-adv-x="1101" d="M113 487q0 102 9 174.5t36 142t74.5 111.5t128 67.5t192.5 25.5q88 0 155 -15t113 -38t78 -66.5t49.5 -84.5t27 -108t11.5 -121t2 -139h-700q0 -56 4 -95t14.5 -75.5t29.5 -59t49.5 -39.5t74 -24.5t102.5 -7.5q49 0 86.5 5t78 19.5t63 47.5t22.5 82h164q0 -90 -36.5 -153 t-100 -94.5t-131.5 -44.5t-150 -13t-147 12.5t-111.5 33.5t-80 56t-54.5 74.5t-33 94t-16 108.5t-4 124zM291 586h526q0 77 -9.5 124t-38 82.5t-80.5 50.5t-136 15q-79 0 -131.5 -17t-80.5 -53.5t-39 -84t-11 -117.5z" />
<glyph unicode="f" horiz-adv-x="686" d="M45 842v149h160v144q0 83 22.5 142.5t54.5 90.5t83.5 48.5t91 21.5t96.5 4h78v-150h-74q-41 0 -70.5 -5t-49.5 -17.5t-31.5 -27t-17.5 -41t-7.5 -51t-1.5 -63.5v-96h252v-149h-252v-842h-174v842h-160z" />
<glyph unicode="g" horiz-adv-x="1138" d="M113 504q0 68 3.5 120.5t14 107t28.5 94t48.5 76t72 58.5t100.5 35t134 13q218 0 320 -111v94h161v-891q0 -168 -8 -223q-10 -64 -41.5 -113.5t-74.5 -79.5t-100 -48.5t-111 -25.5t-115 -7q-84 0 -153.5 14.5t-129 46.5t-93.5 92t-34 142h172q0 -69 60.5 -105.5 t171.5 -36.5q256 0 276 160q4 28 5 60q1 22 1 47q0 12 -1 25q0 40 1 61q-98 -109 -305 -109q-79 0 -140.5 14.5t-103.5 38t-72 62.5t-46.5 77.5t-26 95t-12 103.5t-2.5 113zM289 502q0 -65 3.5 -110.5t13 -86t26 -65.5t43.5 -43.5t64.5 -26.5t88.5 -8q87 0 140.5 14t90 52.5 t50.5 103.5t14 170q0 139 -27.5 212.5t-89.5 103.5t-178 30q-62 0 -104.5 -13.5t-69 -37.5t-41 -68.5t-19.5 -96t-5 -130.5z" />
<glyph unicode="h" d="M143 0v1427h174v-524q105 105 287 105q69 0 124.5 -10t94 -28t67 -43t44.5 -55t27 -64.5t13.5 -72t4.5 -75.5q1 -19 1 -38.5t-1 -39.5v-13v-12.5v-13.5v-543h-174v522q0 149 -3 176q-10 89 -66 120q-48 28 -148 28q-79 0 -132.5 -22t-80.5 -50t-40.5 -86.5t-15.5 -97.5 t-2 -116v-6v-5v-6v-457h-174z" />
<glyph unicode="i" horiz-adv-x="460" d="M127 1278q0 56 32 79t70 23q39 0 71 -23t32 -79t-32.5 -79t-70.5 -23t-70 23t-32 79zM143 0v991h174v-991h-174z" />
<glyph unicode="j" horiz-adv-x="460" d="M-94 -242h59q41 0 70.5 5t49.5 17.5t31.5 27t17.5 41t7.5 51t1.5 63.5v1028h174v-1073q0 -83 -22.5 -142.5t-54.5 -90.5t-83.5 -48.5t-91 -21.5t-96.5 -4h-63v147zM127 1278q0 56 32 79t70 23q39 0 71 -23t32 -79t-32.5 -79t-70.5 -23t-70 23t-32 79z" />
<glyph unicode="k" horiz-adv-x="1017" d="M143 0v1427h174v-827l459 391h240l-537 -454l537 -537h-238l-461 471v-471h-174z" />
<glyph unicode="l" horiz-adv-x="520" d="M143 283v1144h174v-1083q0 -52 2 -80t9 -56t22 -40.5t40.5 -20.5t64.5 -8h41v-149h-47q-57 0 -97.5 5t-82.5 22.5t-67.5 49t-42 86t-16.5 130.5z" />
<glyph unicode="m" horiz-adv-x="1648" d="M143 0v991h162v-94q100 111 281 111q200 0 276 -131q57 67 130.5 99t178.5 32q247 0 318 -164q8 -18 13.5 -39.5t8.5 -37.5t4 -43q1 -28 1 -40v-17v-28v-43v-596h-175v600q0 119 -13 158q-22 70 -107 85q-29 5 -68 5q-43 0 -78 -8.5t-59 -24.5t-42 -37.5t-28 -48t-17 -56 t-8.5 -61.5t-2.5 -64v-32.5v-32.5v-32v-451h-175v600q0 119 -13 158q-22 70 -107 85q-29 5 -68 5q-35 0 -65 -6t-52 -16.5t-40 -26t-30.5 -34t-22 -40.5t-14 -45.5t-8.5 -49.5t-4.5 -52t-1.5 -52.5t0 -52.5v-27v-446h-174z" />
<glyph unicode="n" d="M143 0v991h158v-96q101 113 303 113q69 0 124.5 -10t94 -28t67 -43t44.5 -55t27 -64.5t13.5 -72t4.5 -75.5q1 -19 1 -38.5t-1 -39.5v-13v-12.5v-13.5v-543h-174v522q0 149 -3 176q-10 89 -66 120q-48 28 -148 28q-79 0 -132.5 -22t-80.5 -50t-40.5 -86.5t-15.5 -97.5 t-2 -116v-6v-5v-6v-457h-174z" />
<glyph unicode="o" horiz-adv-x="1136" d="M113 496q0 160 21 251.5t79 149.5q111 111 356 111q244 0 355 -111q58 -58 79 -149.5t21 -251.5t-21 -252t-79 -150q-110 -110 -355 -110q-125 0 -211 25.5t-145 84.5q-58 58 -79 150t-21 252zM289 496q0 -51 1 -84.5t5.5 -72t12.5 -62t22 -48.5t34.5 -39.5t49.5 -26.5 t67.5 -17t87.5 -5t87.5 5t67.5 17t49.5 26.5t34 39.5t21.5 48.5t12.5 62t5.5 72t1 84.5q0 59 -2 97.5t-8 80t-18 66t-32 48t-50 35.5t-71.5 19.5t-97.5 7.5q-66 0 -112.5 -8.5t-77.5 -30.5t-49 -47t-27 -70.5t-11.5 -87t-2.5 -110.5z" />
<glyph unicode="p" horiz-adv-x="1140" d="M143 -391v1382h162v-98q106 115 320 115q77 0 137 -13.5t102.5 -35t72.5 -58.5t47.5 -76t27.5 -96t13 -109.5t3 -125.5q0 -63 -2.5 -109.5t-12.5 -103t-27.5 -96.5t-48.5 -80.5t-74 -65t-107 -40t-144 -15.5q-199 0 -295 110v-485h-174zM317 496q0 -107 14 -174 t49.5 -107.5t90 -56t141.5 -15.5q62 0 105 14t70 39.5t41.5 70.5t20 98t5.5 131t-5.5 130.5t-20 97t-42 69t-70 38t-104.5 13.5q-88 0 -141.5 -14.5t-89.5 -54.5t-50 -106t-14 -173z" />
<glyph unicode="q" horiz-adv-x="1138" d="M113 496q0 69 3 119.5t13 107t27 96t47 77.5t71.5 61t101.5 37t136 14q215 0 322 -115v98h161v-1382h-174v485q-102 -110 -309 -110q-69 0 -125 10.5t-96.5 32.5t-70.5 48t-49 65.5t-31 75.5t-17.5 87.5t-7.5 93t-2 99.5zM289 494q0 -99 8.5 -159t34 -106.5t73 -66 t123.5 -19.5q87 0 140.5 15t89 55.5t49.5 107t14 173.5t-14 173.5t-49.5 106.5t-89 55t-140.5 15q-61 0 -103.5 -13.5t-69 -38.5t-41.5 -70t-20 -97t-5 -131z" />
<glyph unicode="r" horiz-adv-x="921" d="M143 0v991h164v-96q94 113 281 113q313 0 313 -301h-168q0 84 -38.5 113.5t-139.5 29.5q-39 0 -71.5 -8t-55.5 -22t-41.5 -33.5t-30 -43t-20 -50.5t-11.5 -56t-6 -59.5t-2 -60t0 -58.5v-29v-430h-174z" />
<glyph unicode="s" horiz-adv-x="1050" d="M102 289h162q0 -86 51 -121t189 -35q60 0 99 3t73.5 13t53.5 28t29.5 47.5t10.5 72.5q0 79 -49 103q-34 17 -149 21h-1h-1h-1h-1h-1h-1h-1h-1h-1h-1h-1h-1l-17 1q-160 6 -208 14q-138 24 -185 119q-29 62 -29 158q1 87 31 146t89.5 91t135.5 46q71 13 168 12h14 q193 -2 291 -70.5t98 -235.5h-162q0 85 -49.5 120t-175.5 36h-23q-87 0 -139 -14q-59 -16 -81 -43.5t-23 -75.5q0 -23 2.5 -41t6.5 -31.5t12.5 -24t15.5 -17.5t21 -12t23.5 -7.5t28.5 -4.5t30.5 -2.5t34.5 -1t36 -1.5l66 -3q78 -3 117 -6.5t97.5 -19.5t86 -45t49.5 -85.5 t22 -137.5q0 -86 -30 -145.5t-88.5 -93.5t-136.5 -48q-73 -14 -170 -14h-13q-206 2 -305 69.5t-99 235.5z" />
<glyph unicode="t" horiz-adv-x="698" d="M59 842v149h164v375h174v-375h250v-149h-250v-496q0 -37 0.5 -55.5t3.5 -45t9.5 -39t18.5 -28t30 -22t44.5 -11t61.5 -4.5h82v-151h-96q-63 0 -110.5 8t-90 28.5t-69.5 54.5t-42.5 88t-15.5 128v545h-164z" />
<glyph unicode="u" d="M133 426v25v540h176v-522q0 -149 3 -176q10 -89 66 -120q48 -28 148 -28q78 0 131.5 22t80 49.5t40 86t15.5 96.5t2 116v10.5v9.5v456h174v-991h-162v98q-102 -114 -303 -114q-78 0 -138 14.5t-98.5 34t-65.5 59t-40.5 69t-20.5 85.5t-7.5 86.5t-0.5 93.5z" />
<glyph unicode="v" horiz-adv-x="1003" d="M27 991h186l293 -778l289 778h182l-387 -991h-174z" />
<glyph unicode="w" horiz-adv-x="1460" d="M41 991h182l205 -772l215 772h178l217 -772l205 772h176l-282 -991h-183l-221 774l-221 -774h-186z" />
<glyph unicode="x" horiz-adv-x="1013" d="M31 0l372 506l-358 485h209l254 -364l262 364h203l-363 -483l373 -508h-209l-268 385l-275 -385h-200z" />
<glyph unicode="y" d="M133 426v25v540h176v-522q0 -149 3 -176q10 -89 66 -120q48 -28 148 -28q78 0 131.5 22t80 49.5t40 86t15.5 96.5t2 116v10.5v9.5v456h174v-934q0 -43 -1 -70.5t-5 -70t-11.5 -70t-22.5 -63.5t-36 -59.5t-53.5 -48.5t-73.5 -39t-97 -23.5t-124 -9.5q-65 0 -121 8.5 t-109 29.5t-90 54t-59.5 84.5t-22.5 118.5h172q2 -71 58.5 -107.5t165.5 -36.5q53 0 94.5 8.5t69.5 21.5t48 37t30.5 47t16.5 59.5t7.5 66.5t1.5 76v28q-102 -114 -303 -114q-78 0 -138 14.5t-98.5 34t-65.5 59t-40.5 69t-20.5 85.5t-7.5 86.5t-0.5 93.5z" />
<glyph unicode="z" horiz-adv-x="997" d="M94 0v147l586 695h-586v149h807v-147l-584 -688h584v-156h-807z" />
<glyph unicode="{" horiz-adv-x="780" d="M141 651q0 36 17.5 67.5t43 55.5l51 48t43 53.5t17.5 62.5v336q0 228 89.5 323t312.5 95v-154q-76 0 -121 -12t-70 -45t-33 -78.5t-8 -124.5v-365q0 -35 -7.5 -63.5t-25.5 -54t-31 -39.5t-40.5 -39.5t-36.5 -34.5q-33 -33 -2 -64q14 -14 43.5 -41t41.5 -40.5t29 -37 t23 -50.5t6 -62v-362q0 -78 8 -124t33.5 -79t70.5 -45.5t120 -12.5v-155q-223 0 -312.5 96t-89.5 324v331q0 34 -17.5 64t-43 54l-51 48t-43 56t-17.5 69z" />
<glyph unicode="|" horiz-adv-x="583" d="M207 -391v1757h170v-1757h-170z" />
<glyph unicode="}" horiz-adv-x="780" d="M66 -236q75 0 120 12.5t70 46t33 79t8 123.5v362q0 35 6 62t23 50.5t29 37t41.5 40.5t43.5 41q31 31 -2 64q-9 9 -36.5 34.5t-40.5 39.5t-31 39.5t-25.5 54t-7.5 63.5v365q0 80 -7.5 125t-32.5 78t-70 45t-121 12v154q223 0 312 -95t89 -323v-336q0 -33 17.5 -62.5 t43 -53.5l51 -48t43 -55.5t17.5 -67.5q0 -37 -17.5 -69t-43 -56l-51 -48t-43 -54t-17.5 -64v-331q0 -229 -89 -324.5t-312 -95.5v155z" />
<glyph unicode="~" horiz-adv-x="1191" d="M68 463q22 20 84.5 66.5t85.5 60.5q52 33 106 47t114 6t115 -43q104 -66 138 -79q84 -34 159 13q1 0 2 1q104 70 152 108l100 -119q-22 -19 -85.5 -66.5t-84.5 -60.5q-79 -52 -163.5 -57t-172.5 47q-105 66 -140 80q-85 34 -161 -14q-91 -61 -151 -109z" />
<glyph unicode="&#xa1;" horiz-adv-x="591" d="M184 897q0 111 113 111q111 0 111 -111q0 -55 -28 -85t-83 -30t-84 30t-29 85zM211 -375v977h170v-977h-170z" />
<glyph unicode="&#xa2;" horiz-adv-x="1099" d="M113 500q0 96 8 164.5t31.5 133t65 105.5t110 68.5t164.5 34.5v172h155v-172q350 -24 350 -304h-166q0 134 -184 146v-705q184 12 184 146h166q0 -277 -350 -301v-183h-155v183q-97 7 -165.5 35t-109.5 69.5t-64.5 107t-31.5 134.5t-8 166zM287 498q0 -72 3.5 -118.5 t15 -92.5t34 -73t60 -46t92.5 -25v705q-54 -5 -91.5 -23.5t-60 -45t-34.5 -71.5t-15.5 -91.5t-3.5 -118.5z" />
<glyph unicode="&#xa3;" horiz-adv-x="1183" d="M109 0v160h124v452h-124v158h124v168v39.5v41.5t1 38.5t3.5 41.5t6 37.5t10.5 39.5t15.5 35t21 36t28.5 31q105 102 343 102q46 0 78.5 -1.5t80 -8.5t81 -19.5t70 -36.5t59 -57.5t37.5 -85t15 -116.5h-168q0 43 -11 73.5t-29.5 48.5t-50 28t-63.5 13t-79 3 q-64 0 -108.5 -6t-75 -22t-48 -34.5t-26.5 -54.5t-11.5 -70.5t-2.5 -91.5v-172h583v-158h-583v-452h692v-160h-993z" />
<glyph unicode="&#xa4;" horiz-adv-x="1175" d="M18 1155l117 111l182 -181q122 86 271 86q144 0 272 -92l180 187l111 -111l-182 -184q90 -128 90 -271q0 -141 -88 -274l182 -176l-115 -111l-178 178q-122 -88 -268 -88q-144 0 -277 88l-178 -178l-110 111l178 176q-90 129 -90 276q0 138 90 271zM276 705 q0 -132 90.5 -223t221.5 -91q128 0 218.5 91t90.5 220t-90.5 220.5t-216.5 91.5q-132 0 -223 -89.5t-91 -219.5z" />
<glyph unicode="&#xa5;" horiz-adv-x="1189" d="M33 1366h203l360 -602l358 602h203l-303 -496h156v-147h-246l-72 -115h318v-147h-326v-461h-178v461h-326v147h318l-72 115h-248v147h158z" />
<glyph unicode="&#xa6;" horiz-adv-x="583" d="M207 270h170v-661h-170v661zM207 705v661h170v-661h-170z" />
<glyph unicode="&#xa7;" horiz-adv-x="1177" d="M164 1059q0 79 22.5 137t58.5 92.5t91.5 55.5t111 28t127.5 8q110 1 187 -14t135 -51t86 -100.5t29 -159.5h-174q0 95 -55 131t-208 35q-60 0 -98.5 -6t-71.5 -23.5t-48 -52.5t-15 -90q0 -23 2.5 -42.5t9.5 -34t12.5 -26t19 -20t21.5 -14.5t28 -9.5t30 -5.5t35 -3t36 -1 h40h20q119 0 192.5 -13t131.5 -61q92 -76 92 -237q0 -181 -123 -234q125 -59 125 -248q0 -79 -22.5 -137t-59 -92.5t-92 -55.5t-111 -28t-127.5 -8q-222 -2 -329 69t-107 256h174q0 -64 22 -98.5t78.5 -51t161.5 -15.5q60 0 98.5 6t72 23.5t48.5 52.5t15 90q0 23 -3 42 t-8.5 34t-13.5 26.5t-18.5 19.5t-22.5 14t-26.5 9.5t-30.5 5.5t-33.5 3t-36.5 1h-39h-22q-119 0 -192.5 13t-131.5 61q-92 76 -92 238q0 180 123 233q-125 59 -125 248zM342 573q0 -28 4.5 -50t15 -37.5t21 -27t30.5 -18.5t36 -11t43.5 -6t46.5 -2.5t53 -0.5q35 0 56.5 1 t50 4t46 9.5t36.5 18.5t29 29.5t17 43t7 58.5q0 44 -13 73.5t-31 45t-55.5 23.5t-66 9.5t-82.5 1.5q-49 0 -78 -2t-65 -10.5t-55 -25.5t-32.5 -48.5t-13.5 -77.5z" />
<glyph unicode="&#xa8;" horiz-adv-x="874" d="M117 1268q0 52 23.5 75t74.5 23q52 0 77 -23t25 -75q0 -101 -102 -101q-98 0 -98 101zM557 1268q0 52 23.5 75t74.5 23q52 0 77.5 -23t25.5 -75q0 -101 -103 -101q-98 0 -98 101z" />
<glyph unicode="&#xa9;" horiz-adv-x="1669" d="M147 688q0 140 12.5 240.5t44.5 180.5t81.5 130t128.5 82.5t179.5 45.5t240.5 13q139 0 239.5 -13.5t179.5 -46.5t129 -83.5t82 -130.5t45 -181t13 -241q0 -137 -13.5 -238t-45.5 -181t-82.5 -132t-129 -86t-179.5 -48.5t-238 -14.5q-139 0 -240.5 14.5t-179.5 49 t-128 86t-81.5 132.5t-44.5 182t-13 240zM279 682q0 -117 9 -198.5t33 -149t62.5 -108t102 -68.5t147 -38.5t201.5 -10.5q119 0 203 11t147.5 40t102.5 70t63 109.5t32.5 150.5t8.5 200q0 119 -9 201t-33.5 148.5t-63 106t-103 65.5t-147 36t-201.5 10q-121 0 -205 -10 t-148 -37.5t-101.5 -66.5t-61 -107.5t-31.5 -150.5t-8 -203zM416 684q0 128 17.5 211t63.5 144.5t129 88.5t212 27q73 0 129 -7.5t107.5 -28t84.5 -54.5t52.5 -88.5t19.5 -128.5h-131q0 49 -14 83.5t-35 54t-58 30t-71 13.5t-84 3q-57 0 -99.5 -7.5t-73.5 -19.5t-51.5 -35.5 t-33 -48t-19 -65t-8.5 -78t-2 -94.5q0 -58 2 -95t8 -77.5t18.5 -65t33 -48t51.5 -35.5t74 -19.5t100 -7.5q51 0 85.5 3t71 13.5t57.5 30t34.5 54t13.5 83.5h131q0 -74 -19.5 -128.5t-52.5 -88.5t-84.5 -54.5t-107.5 -28t-129 -7.5q-105 0 -178.5 18t-121 52.5t-74.5 94 t-37.5 131t-10.5 175.5z" />
<glyph unicode="&#xaa;" horiz-adv-x="782" d="M72 889q0 57 16.5 98.5t43 65t67.5 37.5t79.5 18t90.5 4h211v2q2 93 -34.5 123.5t-148.5 30.5q-52 0 -88 -5.5t-64 -27t-28 -59.5h-125q0 204 318 204q48 0 88 -6t69 -15t52 -26t37.5 -31t24.5 -38.5t15 -41t7.5 -45.5t3 -44.5t0.5 -45.5v-8v-391h-111v76 q-47 -42 -99 -64t-139 -22q-143 0 -214.5 49t-71.5 162zM197 891q0 -57 32 -80t125 -23q151 0 199 82q14 27 19.5 51.5t5.5 77.5h-216q-87 0 -126 -20.5t-39 -87.5z" />
<glyph unicode="&#xab;" horiz-adv-x="978" d="M88 489q0 34 11 71.5t23.5 66t42 69t45 60.5t56.5 62t52 52.5t53 51.5l112 -109l-84 -86q-49 -50 -72 -76t-48 -72t-25 -87t24.5 -86t49 -71.5t73.5 -75.5l17 -17l63 -64l-112 -106q-116 108 -154 150q-127 143 -127 267zM504 489q0 48 20.5 100.5t43.5 90t71.5 92 t71 76.5t75.5 74l113 -109l-84 -86q-49 -50 -72 -76t-48 -72t-25 -87t24.5 -86t49 -71.5t73.5 -75.5l6 -6l5 -5l6 -6l63 -64l-113 -106q-117 109 -156 153q-124 141 -124 264z" />
<glyph unicode="&#xac;" horiz-adv-x="1191" d="M78 608v160h1036v-768h-166v608h-870z" />
<glyph unicode="&#xad;" horiz-adv-x="1034" d="M152 418v157h731v-157h-731z" />
<glyph unicode="&#xae;" horiz-adv-x="1075" d="M74 920q0 144 19.5 229.5t74.5 139t141 72.5t230 19q95 0 162.5 -8.5t121 -30t86 -54t54 -86t30 -121t8.5 -162.5q0 -137 -21 -223.5t-75 -142t-140.5 -77.5t-225.5 -22q-141 0 -228.5 21.5t-141.5 77.5t-74.5 142t-20.5 226zM172 915q0 -78 6 -131t22 -96t41 -68.5 t67.5 -42.5t97 -23.5t133.5 -6.5q78 0 133 7t97 25t67 44t40.5 70t21 97.5t5.5 131.5t-5.5 131t-21.5 96t-41 67.5t-67.5 41t-96 22.5t-132.5 6q-81 0 -135.5 -6t-97.5 -23t-67.5 -42t-40 -69t-21 -97.5t-5.5 -133.5zM342 643v561h197q42 0 66 -1.5t56 -9.5t48.5 -23.5 t28.5 -44.5t12 -72q0 -47 -14 -74t-44 -47q31 -19 44.5 -46t13.5 -85v-158h-95v164q0 23 -4 38t-9.5 23t-19.5 12t-25 4.5t-36 0.5h-121v-242h-98zM438 971h99q8 0 26 -0.5t24 0t19 1.5t17 4t12 8t10.5 13t5 19.5t2.5 27.5q0 23 -4 37.5t-8.5 22.5t-21 11.5t-26.5 4t-40 0.5 h-23h-92v-149z" />
<glyph unicode="&#xaf;" horiz-adv-x="876" d="M86 1202v133h705v-133h-705z" />
<glyph unicode="&#xb0;" horiz-adv-x="1099" d="M244 1059q0 163 72 235t233 72q160 0 233.5 -72t73.5 -235q0 -164 -73.5 -240t-231.5 -76q-160 0 -233.5 76t-73.5 240zM377 1055q0 -104 35 -144.5t137 -40.5t139 40.5t37 144.5q0 103 -37 143.5t-139 40.5t-137 -40t-35 -144z" />
<glyph unicode="&#xb1;" horiz-adv-x="1191" d="M66 0v158h1060v-158h-1060zM76 629v157h440v363h158v-363h442v-157h-442v-365h-158v365h-440z" />
<glyph unicode="&#xb2;" horiz-adv-x="839" d="M147 1165q0 119 73 166t206 47q141 0 212 -55.5t71 -187.5q0 -58 -11 -97t-37 -62.5t-50.5 -35.5t-69.5 -29q-11 -4 -17 -6q-20 -8 -68 -24.5t-72 -25.5t-51.5 -26t-39.5 -36q-14 -25 -14 -68v-63h428v-115h-557v198q0 36 8 66t19.5 51.5t34 40t39.5 29.5t49.5 23 t51 17.5t56.5 16t55 15.5q69 21 93 46.5t24 84.5q0 75 -32 102t-120 27q-84 0 -119 -19.5t-35 -79.5h-127z" />
<glyph unicode="&#xb3;" horiz-adv-x="839" d="M141 754h127q2 -59 36 -82t120 -23q100 0 132 23t32 106q0 91 -31.5 116.5t-128.5 25.5h-121v112h121q87 0 119.5 20t32.5 91q0 68 -29 94.5t-123 26.5q-88 0 -122 -22.5t-34 -82.5h-125q0 121 73 170t208 49q144 0 211.5 -53.5t67.5 -177.5q0 -67 -14 -106.5t-54 -65.5 q41 -25 58.5 -69t17.5 -126q0 -137 -74 -191t-217 -54q-136 0 -209.5 48.5t-73.5 170.5z" />
<glyph unicode="&#xb4;" horiz-adv-x="874" d="M203 1108l272 258h197l-273 -258h-196z" />
<glyph unicode="&#xb5;" horiz-adv-x="1122" d="M143 -391v1382h174v-522v-29q0 -78 1.5 -111.5t12 -78.5t33.5 -62t65 -30t108 -13q78 0 131 22t80 49.5t40 85.5t15 95.5t2 115.5v22v456h174v-991h-162v96q-100 -112 -293 -112q-61 0 -118.5 15t-90.5 42v-432h-172z" />
<glyph unicode="&#xb6;" horiz-adv-x="1208" d="M76 979q0 81 16.5 143.5t39 103t69 68.5t82 42t105 21t110 8t123.5 1h7.5h7h7.5h365v-1366h-160v1208h-119v-1208h-160v596h-3h-4h-3h-3h-4h-3h-4h-3h-3h-4h-3h-4h-3h-3h-4h-3h-4h-3h-4h-3h-4h-3h-4h-3h-10q-93 0 -160.5 16t-124.5 56.5t-86.5 118.5t-29.5 192zM250 985 q0 -49 5.5 -85.5t17 -61.5t28 -41t39 -24.5t50 -12.5t60.5 -4.5t71 0.5h48v452h-35h-55t-50 -2t-45 -5.5t-39 -11t-33 -18.5t-26.5 -28t-19.5 -39t-12 -52t-4 -67z" />
<glyph unicode="&#xb7;" horiz-adv-x="452" d="M115 690q0 111 112 111q111 0 111 -111q0 -55 -28 -85t-83 -30t-83.5 30t-28.5 85z" />
<glyph unicode="&#xb8;" horiz-adv-x="876" d="M254 -244h96q0 -34 16.5 -45.5t59.5 -11.5q44 0 57 17t13 55q0 63 -72 67q-16 2 -62 2v160h103v-84q66 -1 99.5 -38.5t33.5 -102.5q0 -80 -40.5 -121t-131.5 -41q-89 0 -130.5 33.5t-41.5 109.5z" />
<glyph unicode="&#xb9;" horiz-adv-x="839" d="M158 1161l231 205h105v-819h-129v641l-129 -113z" />
<glyph unicode="&#xba;" horiz-adv-x="786" d="M68 1030q0 109 15 171.5t56 103.5q78 75 254 75q174 0 252 -75q42 -40 58 -103t16 -172q0 -108 -16 -170t-58 -102q-81 -78 -252 -78q-173 0 -254 78q-41 41 -56 102t-15 170zM195 1030q0 -49 1.5 -76t7.5 -57.5t18.5 -46t34.5 -29.5t55 -19t81 -5q40 0 70 4.5t51.5 12.5 t35.5 23.5t22.5 31.5t13 43.5t5.5 52.5t1 65q0 47 -2 77t-9 59.5t-20 46t-35.5 30t-54.5 18.5t-78 5q-41 0 -71 -5t-51.5 -12.5t-35.5 -23.5t-22 -31.5t-12 -44.5t-5 -53t-1 -66z" />
<glyph unicode="&#xbb;" horiz-adv-x="978" d="M80 813l113 109q53 -52 75.5 -74t71 -76.5t71.5 -92t43.5 -90t20.5 -100.5q0 -56 -22.5 -111.5t-65.5 -108.5t-79.5 -90t-90.5 -87q-15 -13 -22 -20l-113 106l63 64l17 17q49 48 73.5 75.5t49 72t24.5 85.5t-25 87t-48 72t-72 76zM496 813l112 109q42 -41 53 -51.5 t52 -52.5t56.5 -62t45 -60.5t42 -69t23.5 -66t11 -71.5q0 -56 -20 -109t-70 -112.5t-75.5 -85.5t-92.5 -88q-15 -15 -23 -22l-112 106l63 64l17 17q49 48 73.5 75.5t49 72t24.5 85.5t-25 87t-48 72t-72 76z" />
<glyph unicode="&#xbc;" horiz-adv-x="1798" d="M158 1161l231 205h105v-819h-129v641l-129 -113zM483 0l688 1366h144l-692 -1366h-140zM1059 201v96l377 522h118v-510h119v-108h-119v-201h-124v201h-371zM1204 309h226v318z" />
<glyph unicode="&#xbd;" horiz-adv-x="1798" d="M158 1161l231 205h105v-819h-129v641l-129 -113zM483 0l688 1366h144l-692 -1366h-140zM1106 618q0 119 72.5 166t205.5 47q141 0 212 -55.5t71 -187.5q0 -40 -4.5 -70t-17.5 -52t-23.5 -36t-35 -27.5t-39.5 -20t-48 -18.5q-11 -4 -16 -6q-21 -8 -68.5 -24t-72 -25.5 t-52 -26.5t-39.5 -36q-14 -25 -14 -68v-63h428v-115h-557v199q0 36 8 66t19.5 51t33.5 40t39.5 30t49.5 23t51 17.5t57 15.5t55 15q69 21 93 46.5t24 84.5q0 75 -32 102t-120 27q-84 0 -118.5 -19.5t-34.5 -79.5h-127z" />
<glyph unicode="&#xbe;" horiz-adv-x="1798" d="M141 754h127q2 -59 36 -82t120 -23q100 0 132 23t32 106q0 91 -31.5 116.5t-128.5 25.5h-121v112h121q87 0 119.5 20t32.5 91q0 68 -29 94.5t-123 26.5q-88 0 -122 -22.5t-34 -82.5h-125q0 121 73 170t208 49q144 0 211.5 -53.5t67.5 -177.5q0 -67 -14 -106.5t-54 -65.5 q41 -25 58.5 -69t17.5 -126q0 -137 -74 -191t-217 -54q-136 0 -209.5 48.5t-73.5 170.5zM483 0l688 1366h144l-692 -1366h-140zM1059 201v96l377 522h118v-510h119v-108h-119v-201h-124v201h-371zM1204 309h226v318z" />
<glyph unicode="&#xbf;" horiz-adv-x="905" d="M51 -43q0 126 48.5 205t150.5 131q93 48 112 63q35 29 41 88q3 26 3 72v86h176v-119q0 -84 -20 -143.5t-51.5 -90.5t-69.5 -52t-76.5 -38t-70 -38.5t-51.5 -62t-20 -101.5q0 -120 49.5 -169.5t184.5 -49.5q134 0 185.5 45.5t51.5 153.5h170q0 -196 -101.5 -276.5 t-301.5 -80.5q-208 0 -309 86t-101 291zM381 897q0 111 113 111q110 0 110 -111q0 -55 -27.5 -85t-82.5 -30t-84 30t-29 85z" />
<glyph unicode="&#xc0;" horiz-adv-x="1286" d="M25 0l528 1366h182l527 -1366h-199l-139 377h-572l-137 -377h-190zM387 1765h197l272 -258h-197zM412 535h454l-227 612z" />
<glyph unicode="&#xc1;" horiz-adv-x="1286" d="M25 0l528 1366h182l527 -1366h-199l-139 377h-572l-137 -377h-190zM412 535h454l-227 612zM453 1507l272 258h197l-273 -258h-196z" />
<glyph unicode="&#xc2;" horiz-adv-x="1286" d="M25 0l528 1366h182l527 -1366h-199l-139 377h-572l-137 -377h-190zM309 1505l269 260h155l268 -260h-184l-162 156l-159 -156h-187zM412 535h454l-227 612z" />
<glyph unicode="&#xc3;" horiz-adv-x="1286" d="M25 0l528 1366h182l527 -1366h-199l-139 377h-572l-137 -377h-190zM244 1659q15 8 52 28t56.5 29.5t53.5 24t58.5 18t56.5 5.5t62 -7.5t60 -27.5q6 -4 28 -18t28 -17t24.5 -11.5t29 -8.5h28t36 6.5t39.5 17.5l121 63l63 -119q-16 -8 -52 -28t-56 -29.5t-53.5 -24 t-58 -18.5t-56 -6t-61.5 7.5t-60 27.5q-6 3 -28 17.5t-28 17.5t-24.5 11.5t-29 8.5h-28.5t-36.5 -6.5t-40.5 -17.5l-121 -62zM412 535h454l-227 612z" />
<glyph unicode="&#xc4;" horiz-adv-x="1286" d="M25 0l528 1366h182l527 -1366h-199l-139 377h-572l-137 -377h-190zM332 1669q0 52 23.5 75t74.5 23q52 0 77 -23t25 -75q0 -100 -102 -100q-51 0 -74.5 24.5t-23.5 75.5zM412 535h454l-227 612zM772 1669q0 52 23.5 75t74.5 23q52 0 77.5 -23t25.5 -75q0 -100 -103 -100 q-51 0 -74.5 24.5t-23.5 75.5z" />
<glyph unicode="&#xc5;" horiz-adv-x="1286" d="M25 0l495 1288q-123 38 -123 225q0 125 56 173.5t188 48.5t189 -51t57 -177q0 -189 -125 -219l498 -1288h-197l-141 377h-570l-139 -377h-188zM410 532h454l-227 615zM518 1499q0 -75 23.5 -98t101.5 -23q76 0 100.5 23.5t24.5 97.5q0 76 -25 102.5t-102 26.5 q-76 0 -99.5 -26t-23.5 -103z" />
<glyph unicode="&#xc6;" horiz-adv-x="1906" d="M4 0l914 1366h843v-164h-635v-420h615v-164h-615v-454h635v-164h-813v377h-487l-248 -377h-209zM565 537h383v581z" />
<glyph unicode="&#xc7;" horiz-adv-x="1325" d="M147 684q0 112 2 170t12 145.5t31 132.5t61 101t99.5 82.5t148 45.5t204.5 19q250 0 370.5 -86t120.5 -297h-176q0 85 -28.5 130t-100 66t-205.5 21q-65 0 -114 -6t-86.5 -23t-63 -35t-43 -56t-27.5 -71t-15 -94t-6 -111t-1 -136q0 -99 2 -154t8.5 -121t21.5 -99 t39.5 -69t63.5 -51.5t93 -25.5t128 -10q135 0 206 20.5t99.5 65t28.5 129.5h176q0 -202 -109.5 -288.5t-338.5 -92.5v-70q66 -1 99.5 -38.5t33.5 -102.5q0 -80 -40.5 -121t-131.5 -41q-89 0 -130.5 33.5t-41.5 109.5h96q0 -34 16.5 -45.5t59.5 -11.5q44 0 56.5 16.5 t12.5 55.5q0 64 -71 67q-16 2 -62 2v146q-92 3 -164 17t-123.5 45t-88 60.5t-59.5 86t-36 97.5t-19 120t-7 127.5t-1 144.5z" />
<glyph unicode="&#xc8;" horiz-adv-x="1214" d="M172 0v1366h897v-164h-715v-420h695v-164h-695v-454h715v-164h-897zM352 1765h197l272 -258h-196z" />
<glyph unicode="&#xc9;" horiz-adv-x="1214" d="M172 0v1366h897v-164h-715v-420h695v-164h-695v-454h715v-164h-897zM416 1507l272 258h197l-273 -258h-196z" />
<glyph unicode="&#xca;" horiz-adv-x="1214" d="M172 0v1366h897v-164h-715v-420h695v-164h-695v-454h715v-164h-897zM279 1505l268 260h155l269 -260h-185l-161 156l-160 -156h-186z" />
<glyph unicode="&#xcb;" horiz-adv-x="1214" d="M172 0v1366h897v-164h-715v-420h695v-164h-695v-454h715v-164h-897zM319 1667q0 52 23.5 75t75.5 23t77 -23t25 -75q0 -100 -102 -100q-99 0 -99 100zM760 1667q0 52 23.5 75t74.5 23q52 0 77.5 -23t25.5 -75q0 -100 -103 -100q-51 0 -74.5 24.5t-23.5 75.5z" />
<glyph unicode="&#xcc;" horiz-adv-x="526" d="M59 1765h197l272 -258h-196zM172 0v1366h182v-1366h-182z" />
<glyph unicode="&#xcd;" horiz-adv-x="526" d="M70 1507l272 258h197l-273 -258h-196zM172 0v1366h182v-1366h-182z" />
<glyph unicode="&#xce;" horiz-adv-x="526" d="M-84 1505l268 260h156l268 -260h-184l-162 156l-160 -156h-186zM172 0v1366h182v-1366h-182z" />
<glyph unicode="&#xcf;" horiz-adv-x="526" d="M-57 1667q0 52 23.5 75t74.5 23q52 0 77 -23t25 -75q0 -100 -102 -100q-51 0 -74.5 24.5t-23.5 75.5zM172 0v1366h182v-1366h-182zM383 1667q0 52 23.5 75t74.5 23q52 0 77.5 -23t25.5 -75q0 -100 -103 -100q-51 0 -74.5 24.5t-23.5 75.5z" />
<glyph unicode="&#xd0;" horiz-adv-x="1409" d="M51 606v164h156v596h491q194 0 303 -39t175 -139q50 -75 68 -183t18 -323q0 -217 -17 -323t-67 -181q-66 -100 -175 -139t-305 -39h-491v606h-156zM387 166h299q146 0 216.5 19.5t109.5 74.5q36 52 51.5 146t15.5 276t-15.5 276t-51.5 146q-39 56 -110 76t-216 20h-299 v-430h367v-164h-367v-440z" />
<glyph unicode="&#xd1;" horiz-adv-x="1341" d="M172 0v1366h190l631 -1059v1059h176v-1366h-192l-629 1065v-1065h-176zM279 1663q15 8 52 28t56.5 29.5t53.5 24t58.5 18t56.5 5.5t62 -7.5t60 -27.5q6 -4 28 -18t28 -17t24.5 -11.5t29 -8.5h28t36 6.5t39.5 17.5l121 63l63 -118q-17 -9 -52.5 -28.5t-55.5 -29.5 t-53 -24.5t-58.5 -18.5t-56 -6t-61 7.5t-60.5 27.5q-6 3 -28 17.5t-28 17.5t-24.5 11.5t-29 8.5h-28.5t-36.5 -6.5t-40.5 -17.5l-121 -62z" />
<glyph unicode="&#xd2;" horiz-adv-x="1380" d="M147 684v4q0 114 1.5 169t11 144.5t29.5 132.5t59 100t96.5 82.5t143.5 44.5t200 19t201 -19t145 -44.5t96.5 -82t59 -100t30.5 -132.5t11.5 -145.5t1.5 -170.5q0 -86 -1 -137t-6.5 -122t-15.5 -113t-29 -95t-46.5 -83.5t-68 -63.5t-94 -49.5t-124.5 -27.5t-158 -11 q-114 0 -201 19.5t-144.5 45.5t-96 84t-58.5 101.5t-30 134t-11.5 145.5t-1.5 170zM328 682q0 -195 12.5 -283t46.5 -141q35 -57 105 -81.5t198 -24.5q126 0 195 24.5t106 81.5q34 53 47 142.5t13 283.5t-13 282.5t-47 141.5q-37 57 -106.5 81.5t-196.5 24.5t-197.5 -25.5 t-105.5 -82.5q-34 -52 -45.5 -139.5t-11.5 -284.5zM465 1765h197l272 -258h-197z" />
<glyph unicode="&#xd3;" horiz-adv-x="1380" d="M147 684v4q0 114 1.5 169t11 144.5t29.5 132.5t59 100t96.5 82.5t143.5 44.5t200 19t201 -19t145 -44.5t96.5 -82t59 -100t30.5 -132.5t11.5 -145.5t1.5 -170.5q0 -86 -1 -137t-6.5 -122t-15.5 -113t-29 -95t-46.5 -83.5t-68 -63.5t-94 -49.5t-124.5 -27.5t-158 -11 q-114 0 -201 19.5t-144.5 45.5t-96 84t-58.5 101.5t-30 134t-11.5 145.5t-1.5 170zM328 682q0 -195 12.5 -283t46.5 -141q35 -57 105 -81.5t198 -24.5q126 0 195 24.5t106 81.5q34 53 47 142.5t13 283.5t-13 282.5t-47 141.5q-37 57 -106.5 81.5t-196.5 24.5t-197.5 -25.5 t-105.5 -82.5q-34 -52 -45.5 -139.5t-11.5 -284.5zM442 1507l273 258h196l-272 -258h-197z" />
<glyph unicode="&#xd4;" horiz-adv-x="1380" d="M147 684v4q0 114 1.5 169t11 144.5t29.5 132.5t59 100t96.5 82.5t143.5 44.5t200 19t201 -19t145 -44.5t96.5 -82t59 -100t30.5 -132.5t11.5 -145.5t1.5 -170.5q0 -86 -1 -137t-6.5 -122t-15.5 -113t-29 -95t-46.5 -83.5t-68 -63.5t-94 -49.5t-124.5 -27.5t-158 -11 q-114 0 -201 19.5t-144.5 45.5t-96 84t-58.5 101.5t-30 134t-11.5 145.5t-1.5 170zM328 682q0 -195 12.5 -283t46.5 -141q35 -57 105 -81.5t198 -24.5q126 0 195 24.5t106 81.5q34 53 47 142.5t13 283.5t-13 282.5t-47 141.5q-37 57 -106.5 81.5t-196.5 24.5t-197.5 -25.5 t-105.5 -82.5q-34 -52 -45.5 -139.5t-11.5 -284.5zM342 1505l268 260h156l268 -260h-184l-162 156l-160 -156h-186z" />
<glyph unicode="&#xd5;" horiz-adv-x="1380" d="M147 684v4q0 114 1.5 169t11 144.5t29.5 132.5t59 100t96.5 82.5t143.5 44.5t200 19t201 -19t145 -44.5t96.5 -82t59 -100t30.5 -132.5t11.5 -145.5t1.5 -170.5q0 -86 -1 -137t-6.5 -122t-15.5 -113t-29 -95t-46.5 -83.5t-68 -63.5t-94 -49.5t-124.5 -27.5t-158 -11 q-114 0 -201 19.5t-144.5 45.5t-96 84t-58.5 101.5t-30 134t-11.5 145.5t-1.5 170zM291 1663q15 8 52 28t56.5 29.5t53.5 24t58.5 18t56.5 5.5t62 -7.5t60 -27.5q6 -4 28 -18t28 -17t24.5 -11.5t29 -8.5h28t36 6.5t39.5 17.5l121 63l63 -118q-17 -9 -52.5 -28.5t-55.5 -29.5 t-53 -24.5t-58.5 -18.5t-56 -6t-61 7.5t-60.5 27.5q-6 3 -28 17.5t-28 17.5t-24.5 11.5t-29 8.5h-28.5t-36.5 -6.5t-40.5 -17.5l-121 -62zM328 682q0 -195 12.5 -283t46.5 -141q35 -57 105 -81.5t198 -24.5q126 0 195 24.5t106 81.5q34 53 47 142.5t13 283.5t-13 282.5 t-47 141.5q-37 57 -106.5 81.5t-196.5 24.5t-197.5 -25.5t-105.5 -82.5q-34 -52 -45.5 -139.5t-11.5 -284.5z" />
<glyph unicode="&#xd6;" horiz-adv-x="1380" d="M147 684v4q0 114 1.5 169t11 144.5t29.5 132.5t59 100t96.5 82.5t143.5 44.5t200 19t201 -19t145 -44.5t96.5 -82t59 -100t30.5 -132.5t11.5 -145.5t1.5 -170.5q0 -86 -1 -137t-6.5 -122t-15.5 -113t-29 -95t-46.5 -83.5t-68 -63.5t-94 -49.5t-124.5 -27.5t-158 -11 q-114 0 -201 19.5t-144.5 45.5t-96 84t-58.5 101.5t-30 134t-11.5 145.5t-1.5 170zM328 682q0 -195 12.5 -283t46.5 -141q35 -57 105 -81.5t198 -24.5q126 0 195 24.5t106 81.5q34 53 47 142.5t13 283.5t-13 282.5t-47 141.5q-37 57 -106.5 81.5t-196.5 24.5t-197.5 -25.5 t-105.5 -82.5q-34 -52 -45.5 -139.5t-11.5 -284.5zM377 1669q0 52 23.5 75t74.5 23q52 0 77.5 -23t25.5 -75q0 -100 -103 -100q-51 0 -74.5 24.5t-23.5 75.5zM817 1669q0 52 23.5 75t74.5 23q52 0 77.5 -23t25.5 -75q0 -100 -103 -100q-51 0 -74.5 24.5t-23.5 75.5z" />
<glyph unicode="&#xd7;" horiz-adv-x="1191" d="M119 152l366 364l-366 369l110 110l365 -368l369 368l110 -110l-368 -369l368 -364l-110 -111l-369 367l-365 -367z" />
<glyph unicode="&#xd8;" horiz-adv-x="1380" d="M147 563.5q-1 60.5 0 124.5q2 242 19 339q30 183 143 265q126 90 385 88q15 0 33 -0.5t30.5 -1t14.5 -0.5l62 275l151 -37l-59 -260q64 -17 112 -43t81 -61t55.5 -79t34 -96t18 -114t6.5 -132v-149q-1 -86 -2.5 -137t-7.5 -122.5t-16.5 -113t-29.5 -94.5t-47 -83 t-69 -62.5t-94.5 -49t-124.5 -27t-158 -9.5q-11 0 -41.5 1t-36.5 1l-63 -279l-152 33l64 270q-57 14 -102 37t-76.5 53t-55 67.5t-37 81t-22.5 94t-11.5 105.5t-3.5 115.5zM328 686q-1 -194 10.5 -283.5t44.5 -142.5q40 -64 111 -82l237 1034q-10 2 -39 2q-126 1 -196 -23.5 t-107 -82.5q-34 -53 -47 -140t-14 -282zM647 154q18 -2 39 -2q124 -1 194 23.5t107 80.5q35 54 49 143t15 281q1 196 -10.5 284.5t-45.5 141.5q-40 60 -108 82z" />
<glyph unicode="&#xd9;" horiz-adv-x="1335" d="M160 686v680h182v-680v-79.5v-76.5t0.5 -63t3 -62t6 -48t9.5 -48.5t14 -36.5q30 -62 100 -92t193 -30q125 0 195 29.5t100 90.5q8 17 14 36.5t9.5 47t5.5 49t2.5 62t1 64t0 76.5t-0.5 81v680h181v-680q0 -216 -5 -299q-6 -97 -32 -166q-94 -237 -471 -237t-471 237 q-27 72 -33 166q-4 66 -4 299zM416 1765h196l273 -258h-197z" />
<glyph unicode="&#xda;" horiz-adv-x="1335" d="M160 686v680h182v-680v-79.5v-76.5t0.5 -63t3 -62t6 -48t9.5 -48.5t14 -36.5q30 -62 100 -92t193 -30q125 0 195 29.5t100 90.5q8 17 14 36.5t9.5 47t5.5 49t2.5 62t1 64t0 76.5t-0.5 81v680h181v-680q0 -216 -5 -299q-6 -97 -32 -166q-94 -237 -471 -237t-471 237 q-27 72 -33 166q-4 66 -4 299zM471 1507l272 258h197l-272 -258h-197z" />
<glyph unicode="&#xdb;" horiz-adv-x="1335" d="M160 686v680h182v-680v-79.5v-76.5t0.5 -63t3 -62t6 -48t9.5 -48.5t14 -36.5q30 -62 100 -92t193 -30q125 0 195 29.5t100 90.5q8 17 14 36.5t9.5 47t5.5 49t2.5 62t1 64t0 76.5t-0.5 81v680h181v-680q0 -216 -5 -299q-6 -97 -32 -166q-94 -237 -471 -237t-471 237 q-27 72 -33 166q-4 66 -4 299zM336 1505l268 260h156l268 -260h-184l-162 156l-160 -156h-186z" />
<glyph unicode="&#xdc;" horiz-adv-x="1335" d="M160 686v680h182v-680v-79.5v-76.5t0.5 -63t3 -62t6 -48t9.5 -48.5t14 -36.5q30 -62 100 -92t193 -30q125 0 195 29.5t100 90.5q8 17 14 36.5t9.5 47t5.5 49t2.5 62t1 64t0 76.5t-0.5 81v680h181v-680q0 -216 -5 -299q-6 -97 -32 -166q-94 -237 -471 -237t-471 237 q-27 72 -33 166q-4 66 -4 299zM360 1669q0 52 23.5 75t75.5 23t77 -23t25 -75q0 -100 -102 -100q-99 0 -99 100zM801 1669q0 52 23.5 75t74.5 23q52 0 77 -23t25 -75q0 -100 -102 -100q-51 0 -74.5 24.5t-23.5 75.5z" />
<glyph unicode="&#xdd;" horiz-adv-x="1163" d="M4 1366h209l373 -604l368 604h205l-485 -770v-596h-182v596zM369 1507l272 258h197l-273 -258h-196z" />
<glyph unicode="&#xde;" horiz-adv-x="1259" d="M172 0v1366h182v-287h283q82 0 129 -1.5t112.5 -9t102 -22.5t79 -43t64 -69t36 -102.5t14.5 -141.5q0 -81 -14.5 -143t-36 -104t-63.5 -71t-79 -44.5t-101.5 -23.5t-113 -9.5t-129.5 -1.5h-283v-293h-182zM354 457h279q9 0 55.5 -0.5t63.5 0t51 3t56.5 8.5t41.5 15 q92 47 92 203t-92 203q-19 9 -41.5 15t-56.5 8.5t-51 3t-63.5 0t-55.5 -0.5h-279v-458z" />
<glyph unicode="&#xdf;" horiz-adv-x="1159" d="M143 0v983v40v43t1 40t3.5 42.5t6 39t10.5 41t15.5 35.5t21 37t28.5 32q112 109 346 109q226 0 331.5 -85.5t105.5 -285.5q0 -252 -148 -319q90 -35 126 -122t36 -229q0 -118 -30 -198t-91.5 -123.5t-141 -61.5t-192.5 -18h-125v158h129q158 0 216.5 50t58.5 195 q1 85 -12.5 137t-50 82t-88.5 40t-140 10h-113v157h113q59 0 98 4t77 18t59 38.5t34 67t13 102.5q0 67 -10.5 107.5t-41 68t-80.5 37.5t-133 10q-61 0 -104 -7.5t-71.5 -25.5t-45 -38.5t-25 -58.5t-10.5 -72t-2 -91v-989h-174z" />
<glyph unicode="&#xe0;" horiz-adv-x="1103" d="M96 293q0 82 23 140.5t58.5 92t92.5 52.5t110 24.5t126 5.5h293q0 113 -11 150q-20 62 -95 82q-53 14 -144 14q-36 0 -60 -1t-57 -5.5t-55 -14.5t-42.5 -25.5t-31 -41t-10.5 -59.5h-168q0 88 33 149t95.5 93.5t137 45.5t172.5 13q85 0 151 -14t108.5 -33.5t72.5 -55 t44.5 -63.5t22 -75.5t8.5 -73.5t1 -74v-11v-608h-160v96q-45 -53 -130.5 -82.5t-199.5 -29.5q-192 0 -288.5 72t-96.5 237zM272 295q0 -86 49.5 -124t176.5 -38q70 0 120 8.5t83.5 28.5t53.5 44t30 65.5t13 80.5t3 101h-303q-124 0 -175 -33t-51 -133zM301 1366h197 l272 -258h-197z" />
<glyph unicode="&#xe1;" horiz-adv-x="1103" d="M96 293q0 82 23 140.5t58.5 92t92.5 52.5t110 24.5t126 5.5h293q0 113 -11 150q-20 62 -95 82q-53 14 -144 14q-36 0 -60 -1t-57 -5.5t-55 -14.5t-42.5 -25.5t-31 -41t-10.5 -59.5h-168q0 88 33 149t95.5 93.5t137 45.5t172.5 13q85 0 151 -14t108.5 -33.5t72.5 -55 t44.5 -63.5t22 -75.5t8.5 -73.5t1 -74v-11v-608h-160v96q-45 -53 -130.5 -82.5t-199.5 -29.5q-192 0 -288.5 72t-96.5 237zM272 295q0 -86 49.5 -124t176.5 -38q70 0 120 8.5t83.5 28.5t53.5 44t30 65.5t13 80.5t3 101h-303q-124 0 -175 -33t-51 -133zM342 1108l272 258h197 l-272 -258h-197z" />
<glyph unicode="&#xe2;" horiz-adv-x="1103" d="M96 293q0 82 23 140.5t58.5 92t92.5 52.5t110 24.5t126 5.5h293q0 113 -11 150q-20 62 -95 82q-53 14 -144 14q-36 0 -60 -1t-57 -5.5t-55 -14.5t-42.5 -25.5t-31 -41t-10.5 -59.5h-168q0 88 33 149t95.5 93.5t137 45.5t172.5 13q85 0 151 -14t108.5 -33.5t72.5 -55 t44.5 -63.5t22 -75.5t8.5 -73.5t1 -74v-11v-608h-160v96q-45 -53 -130.5 -82.5t-199.5 -29.5q-192 0 -288.5 72t-96.5 237zM211 1106l268 260h156l268 -260h-184l-162 156l-160 -156h-186zM272 295q0 -86 49.5 -124t176.5 -38q70 0 120 8.5t83.5 28.5t53.5 44t30 65.5 t13 80.5t3 101h-303q-124 0 -175 -33t-51 -133z" />
<glyph unicode="&#xe3;" horiz-adv-x="1103" d="M96 293q0 82 23 140.5t58.5 92t92.5 52.5t110 24.5t126 5.5h293q0 113 -11 150q-20 62 -95 82q-53 14 -144 14q-36 0 -60 -1t-57 -5.5t-55 -14.5t-42.5 -25.5t-31 -41t-10.5 -59.5h-168q0 88 33 149t95.5 93.5t137 45.5t172.5 13q85 0 151 -14t108.5 -33.5t72.5 -55 t44.5 -63.5t22 -75.5t8.5 -73.5t1 -74v-11v-608h-160v96q-45 -53 -130.5 -82.5t-199.5 -29.5q-192 0 -288.5 72t-96.5 237zM156 1264q14 7 52 27.5t56.5 29.5t53.5 24t59 18.5t56 5t62 -8t60 -27.5q7 -4 25 -15.5t24 -15t21.5 -11.5t24 -9.5t24 -3.5t28.5 1t30 8.5t36 15.5 l121 63l63 -119q-16 -8 -52 -28t-56 -29.5t-53.5 -24t-58 -18.5t-56 -6t-61.5 7.5t-60 27.5q-7 4 -25 15.5t-24 15t-22 11.5t-24.5 9.5t-24 3.5t-28.5 -1t-30.5 -8.5t-36.5 -15.5l-121 -61zM272 295q0 -86 49.5 -124t176.5 -38q70 0 120 8.5t83.5 28.5t53.5 44t30 65.5 t13 80.5t3 101h-303q-124 0 -175 -33t-51 -133z" />
<glyph unicode="&#xe4;" horiz-adv-x="1103" d="M96 293q0 82 23 140.5t58.5 92t92.5 52.5t110 24.5t126 5.5h293q0 113 -11 150q-20 62 -95 82q-53 14 -144 14q-36 0 -60 -1t-57 -5.5t-55 -14.5t-42.5 -25.5t-31 -41t-10.5 -59.5h-168q0 88 33 149t95.5 93.5t137 45.5t172.5 13q85 0 151 -14t108.5 -33.5t72.5 -55 t44.5 -63.5t22 -75.5t8.5 -73.5t1 -74v-11v-608h-160v96q-45 -53 -130.5 -82.5t-199.5 -29.5q-192 0 -288.5 72t-96.5 237zM236 1268q0 52 23.5 75t74.5 23q52 0 77 -23t25 -75q0 -101 -102 -101q-98 0 -98 101zM272 295q0 -86 49.5 -124t176.5 -38q70 0 120 8.5t83.5 28.5 t53.5 44t30 65.5t13 80.5t3 101h-303q-124 0 -175 -33t-51 -133zM676 1268q0 52 23.5 75t74.5 23q52 0 77.5 -23t25.5 -75q0 -101 -103 -101q-98 0 -98 101z" />
<glyph unicode="&#xe5;" horiz-adv-x="1103" d="M96 293q0 82 23 140.5t58.5 92t92.5 52.5t110 24.5t126 5.5h293q0 113 -11 150q-20 62 -95 82q-53 14 -144 14q-36 0 -60 -1t-57 -5.5t-55 -14.5t-42.5 -25.5t-31 -41t-10.5 -59.5h-168q0 224 229 280q-39 34 -39 158q0 123 56 172t190 49t190 -48.5t56 -172.5 q0 -122 -43 -162q43 -13 76.5 -34t55 -42.5t37 -54t22.5 -55.5t11 -61.5t4.5 -58.5t0.5 -59v-10v-608h-160v96q-45 -53 -130.5 -82.5t-199.5 -29.5q-192 0 -288.5 72t-96.5 237zM272 295q0 -86 49.5 -124t176.5 -38q70 0 120 8.5t83.5 28.5t53.5 44t30 65.5t13 80.5t3 101 h-303q-124 0 -175 -33t-51 -133zM432 1126q0 -77 25 -101t104 -24q76 0 100.5 25t24.5 100q0 78 -26 106t-103 28t-101 -27.5t-24 -106.5z" />
<glyph unicode="&#xe6;" horiz-adv-x="1789" d="M96 287q0 82 23.5 140.5t59.5 91.5t93.5 51.5t111 24t126.5 5.5h297q0 54 -2.5 86.5t-11.5 64.5t-25.5 49t-45 30.5t-69.5 18.5t-100 5q-43 0 -72 -1.5t-68 -9.5t-62.5 -23t-40.5 -43.5t-17 -69.5h-168q0 70 22 122.5t60 86t93.5 54.5t117 29.5t137.5 8.5 q134 0 221 -29.5t133 -97.5q94 127 332 127q88 0 155 -14.5t113.5 -36.5t78 -63.5t49 -81.5t26.5 -105.5t11.5 -119t2.5 -138.5h-702q0 -86 9.5 -138.5t38 -95.5t83.5 -61.5t143 -18.5q38 0 68.5 2.5t66.5 12t60 25t40.5 45t16.5 69.5h164q0 -305 -422 -305q-269 0 -356 149 q-109 -149 -400 -149q-194 0 -292.5 69.5t-98.5 233.5zM272 289q0 -84 51.5 -120t178.5 -36q53 0 94 4t72 14.5t53.5 23t38 34.5t24.5 43.5t14 55.5t7 65t2 78h-305q-126 0 -178 -31t-52 -131zM977 598h528q0 146 -55 203t-211 57q-150 0 -206 -61t-56 -199z" />
<glyph unicode="&#xe7;" horiz-adv-x="1071" d="M113 498q0 70 3.5 121.5t14.5 108t30.5 95.5t52.5 76.5t79.5 59.5t113 35.5t150.5 13.5q412 0 412 -306h-166q0 39 -15.5 67.5t-37.5 44t-57.5 24t-64 10.5t-67.5 2q-47 0 -84 -4.5t-65 -16.5t-48 -26t-33.5 -38t-22 -48t-12.5 -61.5t-5.5 -72t-1.5 -85.5q0 -59 2 -97.5 t8 -79.5t17.5 -66.5t31.5 -49.5t49 -36.5t69.5 -20t94.5 -7.5q39 0 67.5 2t64 10.5t57.5 24t37.5 44t15.5 67.5h166q0 -287 -361 -303v-70q66 -1 99.5 -38.5t33.5 -102.5q0 -80 -40.5 -121t-131.5 -41q-89 0 -130.5 33.5t-41.5 109.5h97q0 -34 16 -45.5t59 -11.5q44 0 57 17 t13 55q0 63 -72 67q-16 2 -61 2v146q-100 5 -171 31.5t-114 67.5t-67.5 107t-32.5 136t-8 170z" />
<glyph unicode="&#xe8;" horiz-adv-x="1101" d="M113 487q0 102 9 174.5t36 142t74.5 111.5t128 67.5t192.5 25.5q88 0 155 -15t113 -38t78 -66.5t49.5 -84.5t27 -108t11.5 -121t2 -139h-700q0 -56 4 -95t14.5 -75.5t29.5 -59t49.5 -39.5t74 -24.5t102.5 -7.5q49 0 86.5 5t78 19.5t63 47.5t22.5 82h164q0 -90 -36.5 -153 t-100 -94.5t-131.5 -44.5t-150 -13t-147 12.5t-111.5 33.5t-80 56t-54.5 74.5t-33 94t-16 108.5t-4 124zM291 586h526q0 77 -9.5 124t-38 82.5t-80.5 50.5t-136 15q-79 0 -131.5 -17t-80.5 -53.5t-39 -84t-11 -117.5zM297 1366h197l272 -258h-197z" />
<glyph unicode="&#xe9;" horiz-adv-x="1101" d="M113 487q0 102 9 174.5t36 142t74.5 111.5t128 67.5t192.5 25.5q88 0 155 -15t113 -38t78 -66.5t49.5 -84.5t27 -108t11.5 -121t2 -139h-700q0 -56 4 -95t14.5 -75.5t29.5 -59t49.5 -39.5t74 -24.5t102.5 -7.5q49 0 86.5 5t78 19.5t63 47.5t22.5 82h164q0 -90 -36.5 -153 t-100 -94.5t-131.5 -44.5t-150 -13t-147 12.5t-111.5 33.5t-80 56t-54.5 74.5t-33 94t-16 108.5t-4 124zM291 586h526q0 77 -9.5 124t-38 82.5t-80.5 50.5t-136 15q-79 0 -131.5 -17t-80.5 -53.5t-39 -84t-11 -117.5zM340 1108l272 258h197l-272 -258h-197z" />
<glyph unicode="&#xea;" horiz-adv-x="1101" d="M113 487q0 102 9 174.5t36 142t74.5 111.5t128 67.5t192.5 25.5q88 0 155 -15t113 -38t78 -66.5t49.5 -84.5t27 -108t11.5 -121t2 -139h-700q0 -56 4 -95t14.5 -75.5t29.5 -59t49.5 -39.5t74 -24.5t102.5 -7.5q49 0 86.5 5t78 19.5t63 47.5t22.5 82h164q0 -90 -36.5 -153 t-100 -94.5t-131.5 -44.5t-150 -13t-147 12.5t-111.5 33.5t-80 56t-54.5 74.5t-33 94t-16 108.5t-4 124zM207 1106l268 260h156l268 -260h-184l-162 156l-160 -156h-186zM291 586h526q0 77 -9.5 124t-38 82.5t-80.5 50.5t-136 15q-79 0 -131.5 -17t-80.5 -53.5t-39 -84 t-11 -117.5z" />
<glyph unicode="&#xeb;" horiz-adv-x="1101" d="M113 487q0 102 9 174.5t36 142t74.5 111.5t128 67.5t192.5 25.5q88 0 155 -15t113 -38t78 -66.5t49.5 -84.5t27 -108t11.5 -121t2 -139h-700q0 -56 4 -95t14.5 -75.5t29.5 -59t49.5 -39.5t74 -24.5t102.5 -7.5q49 0 86.5 5t78 19.5t63 47.5t22.5 82h164q0 -90 -36.5 -153 t-100 -94.5t-131.5 -44.5t-150 -13t-147 12.5t-111.5 33.5t-80 56t-54.5 74.5t-33 94t-16 108.5t-4 124zM233 1268q0 52 23.5 75t75.5 23t77 -23t25 -75q0 -101 -102 -101q-99 0 -99 101zM291 586h526q0 77 -9.5 124t-38 82.5t-80.5 50.5t-136 15q-79 0 -131.5 -17 t-80.5 -53.5t-39 -84t-11 -117.5zM674 1268q0 52 23.5 75t74.5 23q52 0 77 -23t25 -75q0 -101 -102 -101q-98 0 -98 101z" />
<glyph unicode="&#xec;" horiz-adv-x="454" d="M14 1366h197l272 -258h-196zM143 0v991h174v-991h-174z" />
<glyph unicode="&#xed;" horiz-adv-x="454" d="M10 1108l273 258h196l-272 -258h-197zM143 0v991h174v-991h-174z" />
<glyph unicode="&#xee;" horiz-adv-x="454" d="M-117 1106l269 260h155l268 -260h-184l-162 156l-159 -156h-187zM143 0v991h174v-991h-174z" />
<glyph unicode="&#xef;" horiz-adv-x="454" d="M-90 1268q0 52 23.5 75t74.5 23q52 0 77.5 -23t25.5 -75q0 -101 -103 -101q-98 0 -98 101zM143 0v991h174v-991h-174zM350 1268q0 52 23.5 75t75.5 23t77 -23t25 -75q0 -101 -102 -101q-99 0 -99 101z" />
<glyph unicode="&#xf0;" horiz-adv-x="1130" d="M113 498q0 61 2.5 105.5t11 97t24 90.5t43.5 76.5t66 63t94.5 41.5t128.5 21q72 3 127 -2l-196 199l-117 -98l-90 90l117 100l-95 94l117 105l94 -97l109 97l88 -90l-107 -95l304 -309q103 -106 143.5 -211t40.5 -280q0 -109 -11.5 -186t-41 -142t-80.5 -103.5 t-130 -59.5t-190 -21q-94 0 -164.5 13.5t-120.5 43.5t-82.5 70t-51 100.5t-25.5 127.5t-8 159zM285 496q0 -48 0.5 -77t3.5 -65.5t8.5 -58t15.5 -47t24.5 -39.5t35 -28.5t48.5 -21.5t63.5 -11.5t80.5 -4.5q57 0 99.5 7.5t73 19.5t50 36.5t31 48t17 66.5t7 78.5t1.5 96.5 q0 106 -16 172.5t-54.5 105t-92.5 53t-140 15.5q-68 1 -115 -15t-74.5 -42.5t-42.5 -73.5t-19.5 -94.5t-4.5 -120.5z" />
<glyph unicode="&#xf1;" d="M143 0v991h158v-96q101 113 303 113q69 0 124.5 -10t94 -28t67 -43t44.5 -55t27 -64.5t13.5 -72t4.5 -76t0 -77.5v-13v-12.5v-13.5v-543h-174v522q0 149 -3 176q-10 89 -66 120q-48 28 -148 28q-79 0 -132.5 -22t-80.5 -50t-40.5 -86.5t-15.5 -97.5t-2 -116v-6v-5v-6 v-457h-174zM160 1264q14 7 52 27.5t56.5 29.5t53.5 24t59 18.5t56 5t62 -8t60 -27.5q7 -4 25 -15.5t24 -15t21.5 -11.5t24 -9.5t24 -3.5t28.5 1t30 8.5t36 15.5l121 63l63 -119q-16 -8 -52 -28t-56 -29.5t-53.5 -24t-58 -18.5t-56 -6t-61.5 7.5t-60 27.5q-7 4 -25 15.5 t-24 15t-22 11.5t-24.5 9.5t-24 3.5t-28.5 -1t-30.5 -8.5t-36.5 -15.5l-121 -61z" />
<glyph unicode="&#xf2;" horiz-adv-x="1136" d="M113 496q0 160 21 251.5t79 149.5q111 111 356 111q244 0 355 -111q58 -58 79 -149.5t21 -251.5t-21 -252t-79 -150q-110 -110 -355 -110q-125 0 -211 25.5t-145 84.5q-58 58 -79 150t-21 252zM289 496q0 -51 1 -84.5t5.5 -72t12.5 -62t22 -48.5t34.5 -39.5t49.5 -26.5 t67.5 -17t87.5 -5t87.5 5t67.5 17t49.5 26.5t34 39.5t21.5 48.5t12.5 62t5.5 72t1 84.5q0 59 -2 97.5t-8 80t-18 66t-32 48t-50 35.5t-71.5 19.5t-97.5 7.5q-66 0 -112.5 -8.5t-77.5 -30.5t-49 -47t-27 -70.5t-11.5 -87t-2.5 -110.5zM356 1366h197l272 -258h-196z" />
<glyph unicode="&#xf3;" horiz-adv-x="1136" d="M113 496q0 160 21 251.5t79 149.5q111 111 356 111q244 0 355 -111q58 -58 79 -149.5t21 -251.5t-21 -252t-79 -150q-110 -110 -355 -110q-125 0 -211 25.5t-145 84.5q-58 58 -79 150t-21 252zM289 496q0 -51 1 -84.5t5.5 -72t12.5 -62t22 -48.5t34.5 -39.5t49.5 -26.5 t67.5 -17t87.5 -5t87.5 5t67.5 17t49.5 26.5t34 39.5t21.5 48.5t12.5 62t5.5 72t1 84.5q0 59 -2 97.5t-8 80t-18 66t-32 48t-50 35.5t-71.5 19.5t-97.5 7.5q-66 0 -112.5 -8.5t-77.5 -30.5t-49 -47t-27 -70.5t-11.5 -87t-2.5 -110.5zM317 1108l273 258h196l-272 -258h-197z " />
<glyph unicode="&#xf4;" horiz-adv-x="1136" d="M113 496q0 160 21 251.5t79 149.5q111 111 356 111q244 0 355 -111q58 -58 79 -149.5t21 -251.5t-21 -252t-79 -150q-110 -110 -355 -110q-125 0 -211 25.5t-145 84.5q-58 58 -79 150t-21 252zM227 1106l269 260h155l269 -260h-185l-162 156l-159 -156h-187zM289 496 q0 -51 1 -84.5t5.5 -72t12.5 -62t22 -48.5t34.5 -39.5t49.5 -26.5t67.5 -17t87.5 -5t87.5 5t67.5 17t49.5 26.5t34 39.5t21.5 48.5t12.5 62t5.5 72t1 84.5q0 59 -2 97.5t-8 80t-18 66t-32 48t-50 35.5t-71.5 19.5t-97.5 7.5q-66 0 -112.5 -8.5t-77.5 -30.5t-49 -47 t-27 -70.5t-11.5 -87t-2.5 -110.5z" />
<glyph unicode="&#xf5;" horiz-adv-x="1136" d="M113 496q0 160 21 251.5t79 149.5q111 111 356 111q244 0 355 -111q58 -58 79 -149.5t21 -251.5t-21 -252t-79 -150q-110 -110 -355 -110q-125 0 -211 25.5t-145 84.5q-58 58 -79 150t-21 252zM176 1264q14 7 52 27.5t56.5 29.5t53.5 24t59 18.5t56 5t62 -8t60 -27.5 q7 -4 25 -15.5t24 -15t21.5 -11.5t24 -9.5t24 -3.5t28.5 1t30 8.5t36 15.5l121 63l64 -119q-16 -8 -52 -28t-56 -29.5t-53.5 -24t-58.5 -18.5t-56 -6t-61.5 7.5t-60.5 27.5q-7 4 -25 15.5t-24 15t-22 11.5t-24.5 9.5t-24 3.5t-28.5 -1t-30.5 -8.5t-36.5 -15.5l-120 -61z M289 496q0 -51 1 -84.5t5.5 -72t12.5 -62t22 -48.5t34.5 -39.5t49.5 -26.5t67.5 -17t87.5 -5t87.5 5t67.5 17t49.5 26.5t34 39.5t21.5 48.5t12.5 62t5.5 72t1 84.5q0 59 -2 97.5t-8 80t-18 66t-32 48t-50 35.5t-71.5 19.5t-97.5 7.5q-66 0 -112.5 -8.5t-77.5 -30.5t-49 -47 t-27 -70.5t-11.5 -87t-2.5 -110.5z" />
<glyph unicode="&#xf6;" horiz-adv-x="1136" d="M113 496q0 160 21 251.5t79 149.5q111 111 356 111q244 0 355 -111q58 -58 79 -149.5t21 -251.5t-21 -252t-79 -150q-110 -110 -355 -110q-125 0 -211 25.5t-145 84.5q-58 58 -79 150t-21 252zM254 1268q0 52 23.5 75t74.5 23q52 0 77.5 -23t25.5 -75q0 -101 -103 -101 q-98 0 -98 101zM289 496q0 -51 1 -84.5t5.5 -72t12.5 -62t22 -48.5t34.5 -39.5t49.5 -26.5t67.5 -17t87.5 -5t87.5 5t67.5 17t49.5 26.5t34 39.5t21.5 48.5t12.5 62t5.5 72t1 84.5q0 59 -2 97.5t-8 80t-18 66t-32 48t-50 35.5t-71.5 19.5t-97.5 7.5q-66 0 -112.5 -8.5 t-77.5 -30.5t-49 -47t-27 -70.5t-11.5 -87t-2.5 -110.5zM694 1268q0 52 23.5 75t75.5 23t77 -23t25 -75q0 -101 -102 -101q-99 0 -99 101z" />
<glyph unicode="&#xf7;" horiz-adv-x="1191" d="M78 418v157h1036v-157h-1036zM485 98q0 111 113 111q111 0 111 -111q0 -55 -28 -84.5t-83 -29.5t-84 30t-29 84zM485 897q0 111 113 111q111 0 111 -111q0 -55 -28 -85t-83 -30t-84 30t-29 85z" />
<glyph unicode="&#xf8;" horiz-adv-x="1136" d="M113 417.5q-1 32.5 0 82.5q2 159 24 251t80 148q61 59 146 85t210 24q70 0 99 -4l67 180l148 -54l-64 -165q36 -15 65 -36.5t49.5 -46.5t36 -54.5t24.5 -61t15 -65.5t8 -68.5t3 -70t0 -70.5q-2 -156 -24 -249.5t-80 -150.5q-60 -59 -145.5 -84.5t-209.5 -23.5 q-69 0 -100 4l-72 -193l-149 53l69 181q-41 18 -73 44t-53 53t-36 65t-22.5 70t-11 78t-4.5 78.5zM289 498q-2 -132 14.5 -202.5t71.5 -107.5q20 54 130.5 356.5t110.5 303.5q-18 2 -43 2q-49 0 -87.5 -4.5t-68 -16.5t-50 -26t-34.5 -38.5t-22.5 -48.5t-13 -62t-6.5 -71.5 t-2 -84.5zM524 143q18 -2 51 -2q44 0 78.5 4.5t61.5 11.5t47 22t34 29t23.5 40t15 47t8.5 58t4 65.5t1 75.5q1 113 -10.5 178t-25.5 86t-46 49z" />
<glyph unicode="&#xf9;" d="M133 426v25v540h176v-522q0 -149 3 -176q10 -89 66 -120q48 -28 148 -28q78 0 131.5 22t80 49.5t40 86t15.5 96.5t2 116v10.5v9.5v456h174v-991h-162v98q-102 -114 -303 -114q-78 0 -138 14.5t-98.5 34t-65.5 59t-40.5 69t-20.5 85.5t-7.5 86.5t-0.5 93.5zM326 1366h196 l273 -258h-197z" />
<glyph unicode="&#xfa;" d="M133 426v25v540h176v-522q0 -149 3 -176q10 -89 66 -120q48 -28 148 -28q78 0 131.5 22t80 49.5t40 86t15.5 96.5t2 116v10.5v9.5v456h174v-991h-162v98q-102 -114 -303 -114q-78 0 -138 14.5t-98.5 34t-65.5 59t-40.5 69t-20.5 85.5t-7.5 86.5t-0.5 93.5zM348 1108 l273 258h196l-272 -258h-197z" />
<glyph unicode="&#xfb;" d="M133 426v25v540h176v-522q0 -149 3 -176q10 -89 66 -120q48 -28 148 -28q78 0 131.5 22t80 49.5t40 86t15.5 96.5t2 116v10.5v9.5v456h174v-991h-162v98q-102 -114 -303 -114q-78 0 -138 14.5t-98.5 34t-65.5 59t-40.5 69t-20.5 85.5t-7.5 86.5t-0.5 93.5zM213 1106 l268 260h156l268 -260h-184l-162 156l-160 -156h-186z" />
<glyph unicode="&#xfc;" d="M133 426v25v540h176v-522q0 -149 3 -176q10 -89 66 -120q48 -28 148 -28q78 0 131.5 22t80 49.5t40 86t15.5 96.5t2 116v10.5v9.5v456h174v-991h-162v98q-102 -114 -303 -114q-78 0 -138 14.5t-98.5 34t-65.5 59t-40.5 69t-20.5 85.5t-7.5 86.5t-0.5 93.5zM242 1268 q0 52 23.5 75t74.5 23q52 0 77 -23t25 -75q0 -101 -102 -101q-98 0 -98 101zM682 1268q0 52 23.5 75t74.5 23q52 0 77.5 -23t25.5 -75q0 -101 -103 -101q-98 0 -98 101z" />
<glyph unicode="&#xfd;" d="M133 426v25v540h176v-522q0 -149 3 -176q10 -89 66 -120q48 -28 148 -28q78 0 131.5 22t80 49.5t40 86t15.5 96.5t2 116v10.5v9.5v456h174v-934q0 -43 -1 -70.5t-5 -70t-11.5 -70t-22.5 -63.5t-36 -59.5t-53.5 -48.5t-73.5 -39t-97 -23.5t-124 -9.5q-65 0 -121 8.5 t-109 29.5t-90 54t-59.5 84.5t-22.5 118.5h172q2 -71 58.5 -107.5t165.5 -36.5q53 0 94.5 8.5t69.5 21.5t48 37t30.5 47t16.5 59.5t7.5 66.5t1.5 76v28q-102 -114 -303 -114q-78 0 -138 14.5t-98.5 34t-65.5 59t-40.5 69t-20.5 85.5t-7.5 86.5t-0.5 93.5zM348 1108l273 258 h196l-272 -258h-197z" />
<glyph unicode="&#xfe;" horiz-adv-x="1140" d="M143 -391v1818h172v-530q105 111 310 111q77 0 137 -13.5t102.5 -35t72.5 -58.5t47.5 -76t27.5 -96t13 -109.5t3 -125.5q0 -63 -2.5 -109.5t-12.5 -103t-27.5 -96.5t-48.5 -80.5t-74 -65t-107 -40t-144 -15.5q-102 0 -172.5 25t-122.5 85v-485h-174zM317 494 q0 -107 14 -173.5t49.5 -107t89.5 -55.5t142 -15q62 0 105 14t70 39.5t41.5 70.5t20 98t5.5 131t-5.5 130.5t-20 97t-42 69t-70 38t-104.5 13.5q-88 0 -142 -15t-90 -55t-49.5 -106t-13.5 -174z" />
<glyph unicode="&#xff;" d="M133 426v25v540h176v-522q0 -149 3 -176q10 -89 66 -120q48 -28 148 -28q78 0 131.5 22t80 49.5t40 86t15.5 96.5t2 116v10.5v9.5v456h174v-934q0 -43 -1 -70.5t-5 -70t-11.5 -70t-22.5 -63.5t-36 -59.5t-53.5 -48.5t-73.5 -39t-97 -23.5t-124 -9.5q-65 0 -121 8.5 t-109 29.5t-90 54t-59.5 84.5t-22.5 118.5h172q2 -71 58.5 -107.5t165.5 -36.5q53 0 94.5 8.5t69.5 21.5t48 37t30.5 47t16.5 59.5t7.5 66.5t1.5 76v28q-102 -114 -303 -114q-78 0 -138 14.5t-98.5 34t-65.5 59t-40.5 69t-20.5 85.5t-7.5 86.5t-0.5 93.5zM242 1268 q0 52 23.5 75t74.5 23q52 0 77 -23t25 -75q0 -101 -102 -101q-98 0 -98 101zM682 1268q0 52 23.5 75t74.5 23q52 0 77.5 -23t25.5 -75q0 -101 -103 -101q-98 0 -98 101z" />
<glyph unicode="&#x152;" horiz-adv-x="1878" d="M147 682q0 214 18 322.5t68 183.5q66 100 175.5 139t302.5 39h1022v-164h-631v-420h610v-164h-610v-454h631v-164h-1022q-198 0 -306 38.5t-174 139.5q-50 75 -67 181t-17 323zM330 682q0 -180 16 -274.5t51 -147.5q40 -59 114.5 -77.5t211.5 -18.5h199v1038h-199 q-143 0 -215 -21t-111 -77q-36 -52 -51.5 -146t-15.5 -276z" />
<glyph unicode="&#x153;" horiz-adv-x="1837" d="M113 496q0 160 21 251.5t79 149.5q111 111 358 111q131 0 225 -39.5t138 -112.5q43 74 133.5 113t220.5 39q88 0 155 -15t113 -38t78 -66.5t49.5 -84.5t27 -108t11.5 -121t2 -139h-700q0 -56 4 -95t14.5 -75.5t29.5 -59t49.5 -39.5t74 -24.5t102.5 -7.5q49 0 86.5 5 t78 19.5t63 47.5t22.5 82h164q0 -305 -418 -305q-132 0 -224.5 39t-135.5 112q-44 -73 -139 -112t-226 -39q-125 0 -211 25.5t-145 84.5q-58 58 -79 150t-21 252zM289 496q0 -51 1 -84.5t5.5 -72t12.5 -62t22 -48.5t34.5 -39.5t49.5 -26.5t67.5 -17t87.5 -5q56 0 98.5 7.5 t72.5 20t50 36.5t31.5 48.5t17.5 66.5t7.5 78.5t1.5 95.5t-2 97.5t-8 80t-18 66.5t-32 49t-50 36t-71.5 19.5t-97.5 7.5q-66 0 -112.5 -8.5t-77.5 -30.5t-49 -47t-27 -70.5t-11.5 -87t-2.5 -110.5zM1026 586h526q0 77 -9.5 124t-38 82.5t-80.5 50.5t-136 15 q-80 0 -132.5 -17t-80.5 -54t-38.5 -83.5t-10.5 -117.5z" />
<glyph unicode="&#x178;" horiz-adv-x="1163" d="M4 1366h209l373 -604l368 604h205l-485 -770v-596h-182v596zM264 1667q0 52 23.5 75t74.5 23q52 0 77.5 -23t25.5 -75q0 -100 -103 -100q-51 0 -74.5 24.5t-23.5 75.5zM705 1667q0 52 23.5 75t74.5 23q52 0 77 -23t25 -75q0 -100 -102 -100q-51 0 -74.5 24.5t-23.5 75.5z " />
<glyph unicode="&#x2c6;" horiz-adv-x="876" d="M92 1106l268 260h156l268 -260h-184l-162 156l-159 -156h-187z" />
<glyph unicode="&#x2dc;" horiz-adv-x="876" d="M41 1264q14 7 52 27.5t56.5 29.5t53.5 24t59 18.5t56 5t62 -8t60 -27.5q7 -4 25 -15.5t24 -15t21.5 -11.5t24 -9.5t24 -3.5t28.5 1t30 8.5t36 15.5l121 63l64 -119q-16 -8 -52 -28t-56 -29.5t-53.5 -24t-58.5 -18.5t-56 -6t-61.5 7.5t-60.5 27.5q-7 4 -25 15.5t-24 15 t-22 11.5t-24.5 9.5t-24 3.5t-28.5 -1t-30.5 -8.5t-36.5 -15.5l-121 -61z" />
<glyph unicode="&#x2000;" horiz-adv-x="884" />
<glyph unicode="&#x2001;" horiz-adv-x="1768" />
<glyph unicode="&#x2002;" horiz-adv-x="884" />
<glyph unicode="&#x2003;" horiz-adv-x="1768" />
<glyph unicode="&#x2004;" horiz-adv-x="589" />
<glyph unicode="&#x2005;" horiz-adv-x="442" />
<glyph unicode="&#x2006;" horiz-adv-x="294" />
<glyph unicode="&#x2007;" horiz-adv-x="294" />
<glyph unicode="&#x2008;" horiz-adv-x="221" />
<glyph unicode="&#x2009;" horiz-adv-x="353" />
<glyph unicode="&#x200a;" horiz-adv-x="98" />
<glyph unicode="&#x2010;" horiz-adv-x="1034" d="M152 418v157h731v-157h-731z" />
<glyph unicode="&#x2011;" horiz-adv-x="1034" d="M152 418v157h731v-157h-731z" />
<glyph unicode="&#x2012;" horiz-adv-x="1034" d="M152 418v157h731v-157h-731z" />
<glyph unicode="&#x2013;" horiz-adv-x="1191" d="M66 418v157h1060v-157h-1060z" />
<glyph unicode="&#x2014;" horiz-adv-x="2054" d="M203 418v157h1648v-157h-1648z" />
<glyph unicode="&#x2018;" horiz-adv-x="454" d="M152 866v191q0 91 19 147t75 109l76 71l108 -104q-6 -5 -16 -15q-67 -62 -84 -94.5t-17 -113.5v-191h-161z" />
<glyph unicode="&#x2019;" horiz-adv-x="454" d="M25 952l12 12q65 60 81 86q23 39 23 126v190h162v-190q0 -91 -19 -147t-75 -109l-76 -72z" />
<glyph unicode="&#x201a;" horiz-adv-x="454" d="M25 -205q5 5 14 13q64 60 79 86q23 38 23 124v191h162v-191q0 -91 -19 -147t-75 -109l-76 -71z" />
<glyph unicode="&#x201c;" horiz-adv-x="806" d="M152 866v193q0 95 16.5 150t71.5 106l75 69l111 -102q-33 -31 -42.5 -40t-28.5 -30t-22.5 -30.5t-10.5 -30t-8 -40.5t-1 -52v-193h-161zM504 866v191q0 91 19 147t75 109l76 71l108 -104q-5 -5 -14 -13q-64 -60 -79 -86q-23 -38 -23 -124v-191h-162z" />
<glyph unicode="&#x201d;" horiz-adv-x="804" d="M25 952l12 12q65 60 81 86q23 39 23 126v190h162v-190q0 -91 -19 -147t-75 -109l-76 -72zM381 952q55 52 73.5 74t28 55t9.5 95v190h161v-190q0 -95 -16.5 -149.5t-71.5 -106.5l-76 -72z" />
<glyph unicode="&#x201e;" horiz-adv-x="806" d="M25 -205q5 5 14 13q64 60 79 86q23 38 23 124v191h162v-191q0 -91 -19 -147t-75 -109l-76 -71zM381 -205q33 31 42.5 40t28.5 30t22.5 30.5t10.5 30t8 40.5t1 52v191h161v-191q0 -95 -16.5 -149.5t-71.5 -106.5l-75 -71z" />
<glyph unicode="&#x2022;" horiz-adv-x="1017" d="M289 684q0 116 52.5 168.5t168.5 52.5q115 0 167 -52.5t52 -168.5t-51.5 -167.5t-167.5 -51.5t-168.5 52t-52.5 167z" />
<glyph unicode="&#x2026;" horiz-adv-x="2027" d="M225 98q0 55 29.5 83t83.5 28q111 0 111 -111h2q0 -54 -28.5 -84t-82.5 -30q-55 0 -85 30t-30 84zM901 98q0 55 29.5 83t83.5 28q110 0 110 -111h2q0 -54 -28 -84t-82 -30q-55 0 -85 30t-30 84zM1577 98q0 55 29.5 83t83.5 28q112 0 112 -111q0 -54 -28 -84t-82 -30 q-55 0 -85 30t-30 84z" />
<glyph unicode="&#x202f;" horiz-adv-x="353" />
<glyph unicode="&#x2039;" horiz-adv-x="563" d="M88 489q0 34 11 71.5t23.5 66t42 69t45 60.5t56.5 62t52 52.5t53 51.5l112 -109l-84 -86q-49 -50 -72 -76t-48 -72t-25 -87t24.5 -86t49 -71.5t73.5 -75.5l17 -17l63 -64l-112 -106q-116 108 -154 150q-127 143 -127 267z" />
<glyph unicode="&#x203a;" horiz-adv-x="563" d="M80 813l113 109q53 -52 75.5 -74t71 -76.5t71.5 -92t43.5 -90t20.5 -100.5q0 -56 -22.5 -111.5t-65.5 -108.5t-79.5 -90t-90.5 -87q-15 -13 -22 -20l-113 106l63 64l17 17q49 48 73.5 75.5t49 72t24.5 85.5t-25 87t-48 72t-72 76z" />
<glyph unicode="&#x205f;" horiz-adv-x="442" />
<glyph unicode="&#x20ac;" horiz-adv-x="1191" d="M94 743v148h123q3 126 24.5 211.5t71.5 151t138 96t219 30.5q71 0 129 -8t114 -29.5t93.5 -57t60.5 -94t23 -136.5h-177q0 52 -16.5 86t-51 51t-74.5 23t-101 6q-53 0 -93.5 -7.5t-69.5 -20.5t-49 -36.5t-32.5 -47.5t-19.5 -61.5t-9.5 -72t-3.5 -84.5h367v-148h-369v-116 h367v-148h-365q1 -51 3.5 -86t9.5 -72.5t19 -62t32 -47.5t48.5 -36t69 -20.5t93.5 -7.5q62 0 102.5 5.5t75.5 22.5t51 50.5t16 85.5h177q0 -78 -22.5 -136.5t-59.5 -94t-92.5 -57t-114 -29.5t-131.5 -8q-107 0 -185 22t-128.5 61t-81 102t-43.5 136t-15 172h-121v148h121 v116h-123z" />
<glyph unicode="&#x2122;" horiz-adv-x="1732" d="M37 1249v117h655v-117h-260v-772h-133v772h-262zM762 477v889h164l266 -717l268 717h160v-889h-125v658l-242 -658h-131l-235 656v-656h-125z" />
<glyph unicode="&#xe000;" horiz-adv-x="993" d="M0 0v993h993v-993h-993z" />
</font>
</defs>
</svg>
